<svg width="144" height="144" viewBox="0 0 144 144" fill="none" xmlns="http://www.w3.org/2000/svg">
<g clip-path="url(#clip0_4043_25998)">
<path d="M80.9104 42.7276C81.3123 41.1202 80.335 39.4914 78.7276 39.0895C77.1202 38.6877 75.4914 39.665 75.0896 41.2724L72.0896 53.2724C71.6877 54.8798 72.665 56.5086 74.2724 56.9104C75.8798 57.3123 77.5086 56.335 77.9104 54.7276L80.9104 42.7276Z" fill="white"/>
<path d="M62.8461 44.0513C62.3221 42.4795 60.6231 41.63 59.0513 42.1539C57.4795 42.6779 56.63 44.3768 57.1539 45.9487L60.1539 54.9487C60.6779 56.5205 62.3769 57.37 63.9487 56.846C65.5205 56.3221 66.37 54.6231 65.846 53.0513L62.8461 44.0513Z" fill="white"/>
<path d="M98.1213 50.1213C99.2929 48.9497 99.2929 47.0502 98.1213 45.8787C96.9497 44.7071 95.0503 44.7071 93.8787 45.8787L81.8787 57.8787C80.7071 59.0502 80.7071 60.9497 81.8787 62.1213C83.0503 63.2929 84.9497 63.2929 86.1213 62.1213L98.1213 50.1213Z" fill="white"/>
<path d="M102.728 68.9104C104.335 68.5086 105.312 66.8798 104.91 65.2724C104.509 63.665 102.88 62.6877 101.272 63.0896L89.2724 66.0896C87.665 66.4914 86.6877 68.1202 87.0896 69.7276C87.4914 71.335 89.1202 72.3123 90.7276 71.9104L102.728 68.9104Z" fill="white"/>
<path d="M90.9487 78.1539C89.3769 77.63 87.6779 78.4795 87.1539 80.0513C86.63 81.6231 87.4795 83.3221 89.0513 83.846L98.0513 86.846C99.6231 87.37 101.322 86.5205 101.846 84.9487C102.37 83.3768 101.521 81.6779 99.9487 81.1539L90.9487 78.1539Z" fill="white"/>
<path fill-rule="evenodd" clip-rule="evenodd" d="M47.5715 62.571C52.9145 57.231 64.8245 60.48 74.1725 69.831L74.1695 69.828C83.5205 79.179 86.7695 91.089 81.4295 96.429C79.8035 98.058 77.5685 98.886 74.9825 98.991L75.0005 99L48.2345 102.489C47.323 102.608 46.3964 102.516 45.5262 102.22C44.6559 101.924 43.8653 101.432 43.2154 100.782C42.5654 100.132 42.0735 99.3415 41.7775 98.4713C41.4816 97.601 41.3895 96.6744 41.5085 95.763L45.0005 69L45.0125 69.021C45.1175 66.435 45.9455 64.197 47.5715 62.571ZM77.5205 86.208C76.5275 82.575 74.0045 78.147 69.9305 74.07V74.073C65.8565 69.996 61.4285 67.473 57.7925 66.483C53.9675 65.439 52.3085 66.324 51.8165 66.819C51.3245 67.308 50.4365 68.967 51.4805 72.795C52.4705 76.431 54.9965 80.859 59.0705 84.93C63.1445 89.007 67.5725 91.53 71.2085 92.52C75.0335 93.564 76.6925 92.676 77.1845 92.184C77.6765 91.692 78.5645 90.036 77.5205 86.208Z" fill="white"/>
</g>
<defs>
<clipPath id="clip0_4043_25998">
<rect width="144" height="144" fill="white"/>
</clipPath>
</defs>
</svg>
