<svg width="144" height="144" xmlns="http://www.w3.org/2000/svg" fill="white"><path d="M112 71.96C112 49.9 94.08 32 72 32S32 49.9 32 71.96C32 84.11 37.52 95.06 46.16 102.41C46.24 102.49 46.32 102.49 46.32 102.57C47.04 103.13 47.76 103.69 48.56 104.25C48.96 104.49 49.28 104.805 49.68 105.125C56.2903 109.6068 64.0935 112.0018 72.08 112C80.0665 112.0018 87.8697 109.6068 94.48 105.125C94.88 104.885 95.2 104.57 95.6 104.325C96.32 103.77 97.12 103.21 97.84 102.65C97.92 102.57 98 102.57 98 102.49C106.48 95.055 112 84.11 112 71.96ZM72 106.965C64.48 106.965 57.6 104.565 51.92 100.57C52 99.93 52.16 99.295 52.32 98.655C52.7967 96.9205 53.4958 95.255 54.4 93.7C55.28 92.18 56.32 90.82 57.6 89.62C58.8 88.42 60.24 87.305 61.68 86.425C63.2 85.545 64.8 84.905 66.56 84.425C68.3337 83.9469 70.163 83.7065 72 83.71C77.4533 83.6714 82.7061 85.7632 86.64 89.54C88.48 91.38 89.92 93.54 90.96 96.015C91.52 97.455 91.92 98.975 92.16 100.57C86.2559 104.7208 79.2172 106.9536 72 106.965ZM59.76 69.965C59.0551 68.3511 58.7006 66.606 58.72 64.845C58.72 63.09 59.04 61.33 59.76 59.73C60.48 58.13 61.44 56.695 62.64 55.495C63.84 54.295 65.28 53.34 66.88 52.62C68.48 51.9 70.24 51.58 72 51.58C73.84 51.58 75.52 51.9 77.12 52.62C78.72 53.34 80.16 54.3 81.36 55.495C82.56 56.695 83.52 58.135 84.24 59.73C84.96 61.33 85.28 63.09 85.28 64.845C85.28 66.685 84.96 68.365 84.24 69.96C83.5451 71.5363 82.5692 72.9731 81.36 74.2C80.1326 75.4075 78.6959 76.3816 77.12 77.075C73.8141 78.4336 70.1059 78.4336 66.8 77.075C65.2241 76.3816 63.7874 75.4075 62.56 74.2C61.3491 72.9909 60.3965 71.5484 59.76 69.96ZM96.88 96.495C96.88 96.335 96.8 96.255 96.8 96.095C96.0132 93.5921 94.8535 91.2221 93.36 89.065C91.8651 86.8919 90.028 84.9754 87.92 83.39C86.3101 82.1789 84.5651 81.1587 82.72 80.35C83.5594 79.7962 84.3372 79.1542 85.04 78.435C86.2327 77.2575 87.2802 75.9415 88.16 74.515C89.9318 71.604 90.8468 68.2525 90.8 64.845C90.8247 62.3226 90.3348 59.8216 89.36 57.495C88.3976 55.2532 87.0124 53.2178 85.28 51.5C83.5502 49.8002 81.5144 48.443 79.28 47.5C76.9495 46.527 74.4453 46.0387 71.92 46.065C69.3943 46.0403 66.8901 46.5303 64.56 47.505C62.3063 48.4459 60.2656 49.8319 58.56 51.58C56.8602 53.3079 55.503 55.3421 54.56 57.575C53.5852 59.9016 53.0953 62.4026 53.12 64.925C53.12 66.685 53.36 68.365 53.84 69.96C54.32 71.64 54.96 73.16 55.84 74.595C56.64 76.035 57.76 77.315 58.96 78.515C59.68 79.235 60.48 79.87 61.36 80.43C59.5092 81.2603 57.7636 82.3076 56.16 83.55C54.08 85.15 52.24 87.065 50.72 89.145C49.2113 91.2932 48.0504 93.6656 47.28 96.175C47.2 96.335 47.2 96.495 47.2 96.575C40.88 90.18 36.96 81.55 36.96 71.96C36.96 52.7 52.72 36.955 72 36.955S107.04 52.7 107.04 71.96C107.0295 81.1598 103.3766 89.9811 96.88 96.495Z"></path></svg>