<svg width="144" height="144" xmlns="http://www.w3.org/2000/svg" fill="white"><path d="M107 59.5C107.3265 71.1067 98.5649 80.9634 87 82C86.959 80.288 86.6206 78.5961 86 77C95.0025 76.0742 101.8825 68.5492 102 59.5C101.9508 46.0016 87.3076 37.6185 75.6423 44.4103C70.7286 47.2711 67.5071 52.3368 67 58C65.3901 57.4279 63.7061 57.0911 62 57C63.5339 45.6928 73.0909 37.1976 84.5 37C96.9483 36.9471 107.0529 47.0517 107 59.5ZM59.5 62C42.1776 62 31.351 80.7521 40.0123 95.7537C48.6735 110.7554 70.3265 110.7554 78.9877 95.7538C80.9627 92.3329 59.5 110.955 59.5 107.005C76.8205 107.005 87.6458 88.255 78.9856 73.255C74.9663 66.2935 67.5385 62.005 59.5 62.005Z"></path></svg>