<svg width="144" height="144" xmlns="http://www.w3.org/2000/svg" fill="white"><path d="M58.8446 71.5963L69.5417 60.8992V89.66H74.5417V61.2636L84.8745 71.5963L88.41 68.0608L73.6273 53.2781H70.0918L55.309 68.0608L58.8446 71.5963Z"></path><path d="M102 72C102 88.5685 88.5685 102 72 102C55.4315 102 42 88.5685 42 72C42 55.4315 55.4315 42 72 42C88.5685 42 102 55.4315 102 72ZM97 72C97 58.1929 85.807 47 72 47C58.1929 47 47 58.1929 47 72C47 85.807 58.1929 97 72 97C85.807 97 97 85.807 97 72Z"></path></svg>