<svg width="144" height="144" xmlns="http://www.w3.org/2000/svg" fill="white"><path d="M72.4037 58.8446L83.101 69.5417H54.3401V74.5417H82.7365L72.4037 84.8745L75.9392 88.41L90.722 73.6273V70.0918L75.9392 55.309L72.4037 58.8446Z"></path><path d="M72 102C55.4315 102 42 88.5685 42 72C42 55.4315 55.4315 42 72 42C88.5685 42 102 55.4315 102 72C102 88.5685 88.5685 102 72 102ZM72 97C85.807 97 97 85.807 97 72C97 58.1929 85.807 47 72 47C58.1929 47 47 58.1929 47 72C47 85.807 58.1929 97 72 97Z"></path></svg>