<svg width="144" height="144" xmlns="http://www.w3.org/2000/svg" fill="white"><path d="M58.8446 72.4037L69.5417 83.101V54.3401H74.5417V82.7365L84.8745 72.4037L88.41 75.9392L73.6273 90.722H70.0918L55.309 75.9392L58.8446 72.4037Z"></path><path d="M102 72C102 55.4315 88.5685 42 72 42C55.4315 42 42 55.4315 42 72C42 88.5685 55.4315 102 72 102C88.5685 102 102 88.5685 102 72ZM97 72C97 85.807 85.807 97 72 97C58.1929 97 47 85.807 47 72C47 58.1929 58.1929 47 72 47C85.807 47 97 58.1929 97 72Z"></path></svg>