<svg width="144" height="144" xmlns="http://www.w3.org/2000/svg" fill="white"><path d="M71.5963 85.1555L60.8992 74.4584H89.66V69.4584H61.2636L71.5963 59.1256L68.0608 55.59L53.2781 70.3728V73.9083L68.0608 88.691L71.5963 85.1555Z"></path><path d="M72 42C88.5685 42 102 55.4315 102 72C102 88.5685 88.5685 102 72 102C55.4315 102 42 88.5685 42 72C42 55.4315 55.4315 42 72 42ZM72 47C58.1929 47 47 58.1929 47 72C47 85.807 58.1929 97 72 97C85.807 97 97 85.807 97 72C97 58.1929 85.807 47 72 47Z"></path></svg>