<svg width="144" height="144" xmlns="http://www.w3.org/2000/svg" fill="white"><path fill-rule="evenodd" clip-rule="evenodd" d="M108.851 100.3995L88.851 40.3995C88.503 39.3646 87.826 38.4719 86.923 37.858C86.02 37.244 84.941 36.9426 83.851 36.9995H60.1509C59.1026 36.9968 58.0799 37.3235 57.2276 37.9336C56.3752 38.5438 55.7362 39.4064 55.4008 40.3995L35.1508 100.3995C34.8882 101.173 34.8191 101.999 34.9497 102.8055C35.0803 103.6125 35.4067 104.3745 35.9 105.026C36.3934 105.677 37.0389 106.1975 37.7799 106.5415C38.521 106.8855 39.335 107.043 40.1509 106.9995H54.8008C55.8405 106.992 56.8518 106.66 57.6941 106.0505C58.5366 105.4415 59.1682 104.5845 59.5008 103.5995L62.5508 94.6995L77.5508 106.0495C78.4224 106.681 79.4748 107.014 80.5509 106.9995H103.951C104.7585 107.026 105.5605 106.856 106.288 106.505C107.016 106.1535 107.6475 105.6315 108.1295 104.9825C108.611 104.334 108.928 103.578 109.0535 102.78C109.1795 101.9815 109.11 101.165 108.851 100.3995ZM80.7508 103.6995C80.3874 103.6995 80.0347 103.5765 79.7508 103.3495L51.5009 82.3995L51.0508 82.0495H66.0508L66.4509 80.9994L71.4509 68.3494L82.651 101.4995C82.741 101.7775 82.7575 102.074 82.6995 102.36C82.6415 102.6465 82.511 102.913 82.32 103.1345C82.129 103.3555 81.8844 103.5235 81.6096 103.6225C81.3347 103.7215 81.0389 103.748 80.7508 103.6995H80.7508ZM104.1005 103.6995H85.501C85.8745 102.631 85.8745 101.4675 85.501 100.3995L65.2509 40.3995H83.851C84.204 40.4012 84.5475 40.5129 84.8345 40.719C85.121 40.9251 85.3365 41.2154 85.451 41.5495L105.701 101.5495C105.769 101.7985 105.78 102.06 105.732 102.314C105.6845 102.568 105.5795 102.8075 105.4255 103.015C105.271 103.222 105.072 103.3915 104.8425 103.51C104.613 103.6285 104.359 103.6935 104.1005 103.6995H104.1005Z"></path></svg>