<svg width="144" height="144" xmlns="http://www.w3.org/2000/svg" fill="white"><path fill-rule="evenodd" clip-rule="evenodd" d="M46.9997 107.03H72.0373C70.1491 105.617 68.4674 103.944 67.0454 102.063L46.9997 102.085L54.7047 87.03H61.9999V87C61.9999 85.2985 62.1699 83.6365 62.4939 82.03H57.2447L66.4647 64.04L66.9997 62.965V42.18L76.9997 42.06V62.035V63.245L77.3529 63.9292C78.9022 63.2807 80.5305 62.7836 82.2195 62.4566L81.9997 62.03V42.03H86.9995V37.03H81.9697V37L79.6897 37.025H56.9997V42H61.9997V61.76L42.5297 99.805C42.1512 100.5665 41.9733 101.4125 42.0127 102.262C42.0522 103.112 42.3078 103.9375 42.7553 104.6605C43.2029 105.384 43.8275 105.981 44.5702 106.396C45.3129 106.8105 46.1491 107.0285 46.9997 107.03ZM75.8885 70.3704C79.1774 68.1728 83.0445 67 87 67C92.304 67 97.391 69.1075 101.1415 72.8582C104.8925 76.6089 107 81.6957 107 87C107 90.9555 105.827 94.8225 103.6295 98.1115C101.432 101.4005 98.308 103.964 94.6535 105.478C90.999 106.9915 86.9775 107.387 83.098 106.6155C79.2183 105.844 75.6551 103.939 72.858 101.142C70.061 98.345 68.1561 94.7815 67.3844 90.902C66.6127 87.0225 67.0084 83.0005 68.5221 79.3462C70.0359 75.6917 72.5994 72.568 75.8885 70.3704ZM76.3932 97.6065C79.2063 100.4195 83.0215 102 87 102C90.115 102.009 93.156 101.0475 95.7 99.25L74.7501 78.3001C72.9523 80.8442 71.9909 83.885 71.9999 87C71.9999 90.978 73.5802 94.7935 76.3932 97.6065ZM78.3 74.7502L99.2495 95.7C101.0475 93.156 102.009 90.115 102 87C102 83.022 100.4195 79.2064 97.6065 76.3933C94.7935 73.5803 90.978 72 87 72C83.8845 71.991 80.844 72.9524 78.3 74.7502Z"></path></svg>