<svg width="144" height="144" xmlns="http://www.w3.org/2000/svg" fill="white"><path fill-rule="evenodd" clip-rule="evenodd" d="M87.134 42.4279C83.4745 39.5514 79.0968 37.7126 74.4208 37.1337C70.9514 36.7748 67.4222 37.1337 64.0725 38.2702C60.7227 39.3469 57.6721 41.1414 55.0999 43.5341C52.5278 45.867 50.4342 48.7382 49.0584 51.9085C47.6826 55.0788 46.905 58.4884 46.905 62.0176V73.0239C46.905 76.8794 46.2961 80.7349 45.1314 84.4305L51.6323 77.9297C51.8286 76.3 51.9296 74.6619 51.9296 73.0239V62.0176C51.9296 59.2062 52.5278 56.4546 53.6643 53.9423C54.8008 51.3701 56.4159 49.0971 58.5095 47.2428C60.6031 45.3286 63.0556 43.893 65.6875 43.0555C68.3793 42.1583 71.1907 41.8592 73.9423 42.1583C77.4268 42.6146 80.7388 43.9627 83.539 46.0231L87.134 42.4279ZM67.119 92.1055H96.015L94.1605 86.5425C92.665 82.176 91.947 77.6298 91.947 73.0837V67.2773L96.969 62.2556C96.973 62.495 96.974 62.7347 96.972 62.9747V72.9641C96.972 77.0317 97.63 81.0394 98.886 84.8675L101.817 93.7205L99.4245 97.0105H81.898C81.898 99.6425 80.8213 102.2145 78.9669 104.069C77.1126 105.9235 74.5404 107 71.9085 107C69.2766 107 66.7044 105.9235 64.8501 104.069C63.0641 102.283 61.9994 99.831 61.9234 97.301L67.119 92.1055ZM71.9085 102.095C73.2244 102.095 74.4807 101.5565 75.4377 100.5995C76.3948 99.6425 76.9332 98.3865 76.8733 97.0705H66.8839C66.8839 98.3865 67.4222 99.6425 68.3793 100.5995C69.3364 101.5565 70.5925 102.095 71.9085 102.095Z"></path><rect x="1" y="14.5" width="20" height="1" transform="rotate(-45 1 14.5)"></rect></svg>