<svg width="144" height="144" xmlns="http://www.w3.org/2000/svg" fill="white"><path fill-rule="evenodd" clip-rule="evenodd" d="M96.972 71.3772C95.3825 71.7838 93.7165 72 92 72C91.9825 72 91.965 72 91.947 72V73.0837C91.947 77.6298 92.665 82.176 94.1605 86.5425L96.015 92.1055H47.862V92.0455L49.7164 86.4825C51.152 82.116 51.9297 77.57 51.9297 73.0239V62.0176C51.9297 59.2062 52.5278 56.4546 53.6644 53.9423C54.8009 51.3701 56.4159 49.0971 58.5095 47.2428C60.6031 45.3286 63.0556 43.893 65.6876 43.0555C68.3794 42.1583 71.1908 41.8592 73.9423 42.1583C74.1409 42.1843 74.3389 42.2132 74.5363 42.245C75.4504 40.612 76.5869 39.1204 77.9047 37.8111C76.7671 37.5071 75.6035 37.2801 74.4209 37.1337C70.9514 36.7748 67.4223 37.1337 64.0725 38.2702C60.7228 39.3469 57.6721 41.1414 55.1 43.5341C52.5278 45.867 50.4342 48.7382 49.0584 51.9085C47.6826 55.0788 46.905 58.4884 46.905 62.0176V73.0239C46.905 77.0317 46.247 81.0394 44.9909 84.8675L42 93.7205L44.3927 97.0105H61.9191C61.9191 99.6425 62.9958 102.2145 64.8501 104.069C66.7045 105.9235 69.2766 107 71.9085 107C74.5405 107 77.1126 105.9235 78.967 104.069C80.8213 102.2145 81.898 99.6425 81.898 97.0105H99.4245L101.817 93.7205L98.886 84.8675C97.63 81.0394 96.972 77.0317 96.972 72.9641V71.3772ZM71.9085 102.095C73.2245 102.095 74.4807 101.5565 75.4377 100.5995C76.3948 99.6425 76.9332 98.3865 76.8734 97.0705H66.8839C66.8839 98.3865 67.4223 99.6425 68.3794 100.5995C69.3364 101.5565 70.5926 102.095 71.9085 102.095Z"></path><path d="M92 67C100.2845 67 107 60.2843 107 52C107 43.7158 100.2845 37 92 37C83.7155 37 77 43.7158 77 52C77 60.2843 83.7155 67 92 67Z"></path></svg>