<svg width="144" height="144" xmlns="http://www.w3.org/2000/svg" fill="white"><path d="M98.885 84.865C97.6201 81.0249 96.9737 77.0081 96.97 72.965V62.975C97.062 56.6449 94.803 50.5057 90.63 45.745C86.4713 40.9768 80.6992 37.911 74.42 37.135C70.95 36.775 67.42 37.135 64.07 38.27C60.72 39.345 57.67 41.14 55.1 43.535C52.5172 45.8682 50.4586 48.7227 49.06 51.91C47.6545 55.0961 46.9209 58.5377 46.905 62.02V73.02C46.8977 77.0464 46.2513 81.0462 44.99 84.87L42 93.715L44.395 97.005H61.92C61.92 99.635 62.995 102.205 64.85 104.065C66.7 105.915 69.275 106.995 71.91 106.995C74.54 106.995 77.11 105.92 78.965 104.065S81.9 99.635 81.9 97.005H99.425L101.815 93.715L98.885 84.865ZM75.435 100.6C74.5059 101.5477 73.2372 102.0858 71.91 102.095C70.5804 102.0858 69.3095 101.5458 68.38 100.595C67.4305 99.6667 66.8905 98.3979 66.88 97.07H76.875C76.9171 98.3966 76.3958 99.6791 75.44 100.6ZM47.86 92.05L49.715 86.48C51.1616 82.1407 51.9092 77.599 51.93 73.025V62.02C51.93 59.205 52.53 56.455 53.665 53.94C54.8 51.37 56.415 49.095 58.51 47.24C60.605 45.33 63.06 43.89 65.69 43.055C68.38 42.155 71.19 41.855 73.94 42.155C78.9801 42.8177 83.6011 45.3088 86.925 49.155C90.2499 53.006 92.0373 57.9481 91.945 63.035V73.085C91.945 77.63 92.665 82.175 94.16 86.54L96.015 92.105H47.865V92.045Z"></path></svg>