<svg width="144" height="144" xmlns="http://www.w3.org/2000/svg" fill="white"><path d="M57 97V47H73.81C79.39 47 83.58 48.12 86.385 50.365C89.21 52.61 90.625 55.93 90.625 60.325C90.625 62.66 89.94 64.73 88.575 66.54C87.21 68.325 85.35 69.71 82.995 70.695C85.775 71.45 87.96 72.895 89.565 75.02C91.19 77.13 92 79.645 92 82.575C92 87.065 90.505 90.59 87.515 93.155C84.525 95.72 80.3 97 74.835 97H57ZM63.78 73.615V91.61H74.98C78.13 91.61 80.615 90.82 82.43 89.24C84.265 87.64 85.18 85.44 85.18 82.645C85.18 76.625 81.815 73.615 75.08 73.615H63.78ZM63.78 68.325H74.025C76.99 68.325 79.355 67.605 81.125 66.16C82.91 64.72 83.805 62.76 83.805 60.29C83.805 57.54 82.98 55.55 81.335 54.315C79.685 53.055 77.18 52.425 73.81 52.425H63.78V68.325Z"></path></svg>