<svg width="144" height="144" xmlns="http://www.w3.org/2000/svg" fill="white"><path fill-rule="evenodd" clip-rule="evenodd" d="M104.5 42H77L75.25 42.75L72 45.95L68.75 42.75L67 42H39.5L37 44.5V94.5L39.5 97H65.95L70.25 101.25H73.75L78.05 97H104.5L107 94.5V44.5L104.5 42ZM69.5 93.6L68.6 92.75L67 92H42V47H65.95L69.65 50.7L69.5 93.6ZM102 92H77L75.25 92.75L74.55 93.4V50.5L78.05 47H102V92ZM62 57H47V62H62V57ZM62 77H47V82H62V77ZM47 67H62V72H47V67ZM97 57H82V62H97V57ZM82 67H97V72H82V67ZM82 77H97V82H82V77Z"></path></svg>