<svg width="144" height="144" xmlns="http://www.w3.org/2000/svg" fill="white"><path fill-rule="evenodd" clip-rule="evenodd" d="M62 46.8592V46.9181H61.5542C60.5557 46.9181 59.619 47.1214 58.7401 47.5257C57.8731 47.9138 57.1097 48.4471 56.4543 49.1219C55.8211 49.7738 55.3067 50.5517 54.9119 51.4603C54.5417 52.3576 54.3567 53.301 54.3567 54.2951C54.3567 55.4363 54.3765 56.567 54.4161 57.6875C54.4563 58.8053 54.4564 59.9131 54.4162 61.011C54.3957 62.0987 54.3041 63.1665 54.1413 64.2142C53.9757 65.2587 53.6957 66.2632 53.302 67.2232C52.9046 68.1922 52.3629 69.1127 51.6808 69.9851C51.1173 70.706 50.4269 71.3769 49.6141 72C50.4269 72.6231 51.1173 73.2941 51.6808 74.0149C52.3629 74.8873 52.9046 75.8079 53.302 76.7768C53.6961 77.7379 53.9757 78.7512 54.1412 79.8156C54.3042 80.8442 54.3957 81.9123 54.4162 83.0195C54.4564 84.0975 54.4563 85.2055 54.4161 86.343C54.3765 87.4425 54.3567 88.5635 54.3567 89.705C54.3567 90.72 54.5419 91.673 54.9112 92.5685C55.3052 93.4555 55.8193 94.2345 56.4543 94.909C57.1097 95.563 57.8698 96.0955 58.7382 96.504C59.6173 96.8885 60.5548 97.082 61.5542 97.082H62V98V102H61.5542C59.9872 102 58.4704 101.692 57.0064 101.0765C55.5409 100.46 54.2471 99.5765 53.1289 98.425C52.0156 97.279 51.1897 96.025 50.6642 94.6615L50.6616 94.655C50.1694 93.325 49.841 91.9515 49.6768 90.536L49.6758 90.5275C49.5339 89.1075 49.4935 87.658 49.5542 86.1785C49.6136 84.731 49.6433 83.2835 49.6433 81.8361C49.6433 80.8442 49.4493 79.9024 49.0601 79.0054L49.0565 78.9971C48.683 78.0935 48.1714 77.3185 47.5206 76.6676L47.5111 76.6581C46.8789 75.9881 46.1229 75.4579 45.2371 75.0698L45.2301 75.0667C44.35 74.6619 43.4232 74.459 42.4459 74.459H42V74V70V69.541H42.4459C43.4249 69.541 44.353 69.3477 45.2336 68.9625C46.1233 68.5528 46.8822 68.0203 47.5159 67.368C48.1712 66.6933 48.6843 65.9148 49.058 65.0301L49.06 65.0254C49.4487 64.1297 49.6433 63.1778 49.6433 62.164C49.6433 60.7165 49.6136 59.269 49.5542 57.8214C49.4935 56.3422 49.5339 54.9025 49.676 53.5027L49.6767 53.4959C49.8407 52.0601 50.1691 50.676 50.6617 49.3449L50.6641 49.3383C51.1896 47.9749 52.0156 46.7211 53.1289 45.5749C54.2471 44.4237 55.5409 43.5399 57.0064 42.9237C58.4704 42.3081 59.9872 42 61.5542 42H62V46.8592ZM101.616 74.459H102V74V70V69.541H101.554C100.5765 69.541 99.65 69.3381 98.77 68.9333L98.763 68.9302C97.877 68.5422 97.121 68.0119 96.489 67.342L96.4795 67.3324C95.8285 66.6815 95.317 65.9065 94.9435 65.0029L94.94 64.9946C94.5505 64.0977 94.3565 63.1559 94.3565 62.164C94.3565 60.7165 94.3865 59.269 94.446 57.8214C94.5065 56.3421 94.466 54.8924 94.324 53.4727L94.323 53.4643C94.159 52.0486 93.8305 50.6751 93.3385 49.3449L93.336 49.3383C92.8105 47.975 91.9845 46.7211 90.871 45.5749C89.753 44.4237 88.459 43.5399 86.9935 42.9237C85.5295 42.3081 84.013 42 82.446 42H82V46V46.9181H82.446C83.4455 46.9181 84.3825 47.1115 85.262 47.4959C86.13 47.9046 86.8905 48.4368 87.5455 49.0912C88.1805 49.7652 88.695 50.5445 89.089 51.4314C89.458 52.327 89.6435 53.2798 89.6435 54.2951C89.6435 55.4364 89.6235 56.5573 89.584 57.6571C89.544 58.7947 89.5435 59.9025 89.584 60.9803C89.6045 62.0877 89.696 63.1559 89.859 64.1844C90.0245 65.2488 90.304 66.2621 90.698 67.2232C91.0955 68.1922 91.637 69.1127 92.319 69.9851C92.8825 70.706 93.573 71.3769 94.386 72C94.333 72.0407 94.28 72.0816 94.228 72.1228C96.882 72.4169 99.379 73.2303 101.616 74.459Z"></path><path d="M92 77C89.0335 77 86.133 77.8798 83.6665 79.528C81.1997 81.1762 79.2772 83.519 78.1418 86.2595C77.0065 89.0005 76.7095 92.0165 77.2883 94.9265C77.867 97.836 79.2956 100.509 81.3934 102.6065C83.491 104.7045 86.164 106.133 89.0735 106.712C91.9835 107.2905 94.9995 106.9935 97.7405 105.858C100.481 104.723 102.824 102.8005 104.472 100.3335C106.1205 97.867 107 94.9665 107 92C106.995 88.0235 105.413 84.211 102.601 81.3988C99.789 78.5868 95.977 77.0049 92 77Z"></path></svg>