<svg width="144" height="144" xmlns="http://www.w3.org/2000/svg" fill="white"><path d="M55.335 42.055C60.268 38.7593 66.0674 37.0001 72 37C88.5605 37.0193 101.9807 50.4395 102 67C101.9991 79.7049 93.9953 91.0316 82.02 95.275V95.055C82.1 94.985 82.175 94.905 82.25 94.83C83.6381 93.4433 84.4186 91.5621 84.42 89.6V88.915C97.1512 81.6903 101.073 65.1777 92.95 53C82.1767 36.8675 57.9795 38.4472 49.395 55.8434C43.4972 67.7951 47.9255 82.2726 59.5 88.88V89.6C59.5015 91.6726 60.3721 93.6496 61.9 95.05V95.25C40.1536 87.4879 34.9649 59.0954 52.5603 44.1435C53.4439 43.3926 54.3704 42.6936 55.335 42.05Z"></path><path d="M78.715 91.3C78.2637 91.7497 77.6521 92.0016 77.015 92V104.6C77.015 104.6 74.615 107 74.615 107H69.3C69.355 107 69.28 106.98 69.13 106.94C68.755 106.84 67.925 106.62 67.605 106.295C67.1534 105.8445 66.8998 105.2328 66.9 104.595V92C66.9 93.8475 67.3 92.6022 65.7 91.6785C64.9574 91.2497 64.5 90.4574 64.5 89.6V79.5C64.5 76.7386 66.7386 74.5 69.5 74.5H74.42C77.1814 74.5 79.42 76.7386 79.42 79.5V89.6C79.419 90.2263 79.1731 90.8274 78.735 91.275L78.715 91.295Z"></path><path d="M85.2 67C85.2 69.625 84.415 72.17 82.975 74.325C83.89 75.835 84.42 77.605 84.42 79.5V80.03C91.7423 73.0578 91.8778 61.4209 84.72 54.28C75.1097 44.2979 58.2973 48.4625 54.4577 61.7763C52.5762 68.3003 54.526 75.328 59.5 79.95V79.5C59.5 77.58 60.04 75.785 60.98 74.265C55.3864 65.7818 61.0737 54.4245 71.2172 53.8219C78.8023 53.3713 85.2008 59.4015 85.2 67Z"></path><path d="M77 67C77 70.849 72.8333 73.2546 69.5 71.3301C67.953 70.437 67 68.7863 67 67C67 63.151 71.1667 60.7454 74.5 62.6699C76.047 63.563 77 65.2137 77 67Z"></path></svg>