<svg width="144" height="144" xmlns="http://www.w3.org/2000/svg" fill="white"><path fill-rule="evenodd" clip-rule="evenodd" d="M86.385 54.5V51.59C86.385 40.3586 74.2267 33.339 64.5 38.9547C59.9858 41.5609 57.205 46.3775 57.205 51.59V54.5H53.04L44.725 46.145L41.76 49.095L49.815 57.19L49.72 57.435C48.0369 61.9636 47.1849 66.7588 47.205 71.59C47.205 72.57 47.24 73.54 47.305 74.49L47.32 74.715H37V78.895H47.845L47.875 79.065C48.735 83.77 50.395 88.075 52.645 91.72L52.815 91.995L43 101.81L45.96 104.77L55.315 95.41L55.605 95.74C59.945 100.7 65.615 103.685 71.795 103.685C77.885 103.685 83.475 100.79 87.79 95.965L88.075 95.645L97.625 105.245L100.59 102.29L90.61 92.26L90.785 91.98C93.12 88.28 94.835 83.885 95.715 79.065L95.745 78.895H106.6V74.715H96.275L96.29 74.495C96.3566 73.5298 96.39 72.5625 96.39 71.595C96.4101 66.7006 95.534 61.8439 93.805 57.265L93.71 57.015L101.56 49.165L98.6 46.215L90.31 54.5H86.385ZM61.385 54.5V51.59C61.385 43.5764 70.06 38.5679 77 42.5747C80.2209 44.4342 82.205 47.8709 82.205 51.59V54.5H61.39ZM89.87 58.685L89.97 58.95C91.385 62.715 92.205 67 92.205 71.59C92.205 79.64 89.69 86.76 85.835 91.775C81.985 96.78 76.98 99.5 71.795 99.5C66.615 99.5 61.61 96.78 57.76 91.775C53.9 86.76 51.385 79.64 51.385 71.59C51.385 67 52.205 62.715 53.625 58.95L53.725 58.685H89.87Z"></path></svg>