<svg width="144" height="144" xmlns="http://www.w3.org/2000/svg" fill="white"><path fill-rule="evenodd" clip-rule="evenodd" d="M104.5 42H97V37H92V42H52V37H47V42H39.5L37 44.5V104.5L39.5 107H104.5L107 104.5V44.5L104.5 42ZM102 102H42V57H102V102ZM102 52H42V47H102V52ZM52 72H47V77H52V72ZM47 82H52V87H47V82ZM52 92H47V97H52V92ZM62 72H67V77H62V72ZM67 82H62V87H67V82ZM62 92H67V97H62V92ZM67 62H62V67H67V62ZM77 72H82V77H77V72ZM82 82H77V87H82V82ZM77 92H82V97H77V92ZM82 62H77V67H82V62ZM92 72H97V77H92V72ZM97 82H92V87H97V82ZM92 62H97V67H92V62Z"></path></svg>