<svg width="144" height="144" xmlns="http://www.w3.org/2000/svg" fill="white"><path fill-rule="evenodd" clip-rule="evenodd" d="M94.735 78.64C93.7924 78.2538 92.7836 78.0551 91.765 78.055C90.813 78.0008 89.8618 78.1739 88.99 78.56C88.2357 78.9239 87.5161 79.3557 86.84 79.85C86.182 80.3276 85.5799 80.8777 85.045 81.49C84.525 82.09 84.02 82.64 83.525 83.135C83.0756 83.5895 82.5907 84.0075 82.075 84.385C80.9988 85.1561 79.52 85.022 78.6 84.07C78.0497 83.5539 77.503 83.0338 76.96 82.51C76.26 81.83 75.4 81.01 74.385 80.045C73.3228 79.0375 72.2678 78.0225 71.22 77L67.82 73.68C65.7324 71.6389 63.7146 69.5277 61.77 67.35C61.0716 66.5822 60.4188 65.7742 59.815 64.93C59.345 64.255 59.11 63.76 59.11 63.445C59.081 62.8806 59.2607 62.3253 59.615 61.885C59.98 61.415 60.415 60.935 60.905 60.435C61.405 59.945 61.95 59.42 62.545 58.875C63.145 58.325 63.695 57.74 64.19 57.115C64.68 56.49 65.1 55.775 65.44 54.965C65.775 54.165 65.945 53.25 65.945 52.235C65.9449 50.1717 65.131 48.1918 63.68 46.725C62.7458 45.808 61.8597 44.8434 61.025 43.835C60.0711 42.699 59.0403 41.6299 57.94 40.635C56.8719 39.6575 55.7057 38.7929 54.46 38.055C53.3286 37.3701 52.0325 37.0055 50.71 37C48.6485 37.0014 46.6706 37.8152 45.205 39.265C43.85 40.62 42.665 41.83 41.65 42.9C40.6759 43.9131 39.8111 45.0259 39.07 46.22C38.3517 47.4049 37.8252 48.6958 37.51 50.045C37.143 51.7127 36.9718 53.4176 37 55.125C37 57.885 37.445 60.75 38.33 63.72C39.215 66.685 40.41 69.645 41.92 72.585C43.43 75.53 45.27 78.42 47.43 81.26C49.59 84.095 51.935 86.79 54.46 89.345C56.985 91.895 59.67 94.255 62.51 96.415C65.345 98.575 68.25 100.44 71.22 102C74.185 103.565 77.17 104.785 80.165 105.67C83.0024 106.5325 85.9495 106.9804 88.915 107C90.6099 106.9991 92.2998 106.8147 93.955 106.45C95.3191 106.1421 96.6243 105.6153 97.82 104.89C98.97 104.19 100.07 103.33 101.14 102.315C102.21 101.295 103.405 100.125 104.735 98.795C106.1856 97.3279 106.9994 95.3481 107 93.285C106.9434 92.4081 106.7719 91.5423 106.49 90.71C106.1975 89.8382 105.7634 89.0206 105.205 88.29C104.6215 87.5242 104.0077 86.7819 103.365 86.065C102.7029 85.3233 102.0001 84.6189 101.26 83.955C100.5453 83.3144 99.8287 82.6761 99.11 82.04C98.481 81.4854 97.8691 80.9118 97.275 80.32C96.5507 79.5939 95.6866 79.0224 94.735 78.64ZM92.9 101.57C91.5956 101.8835 90.2563 102.0281 88.915 102C86.3443 101.9513 83.7931 101.544 81.335 100.79C78.5846 99.9588 75.9272 98.8462 73.405 97.47C67.7974 94.3995 62.6655 90.5307 58.17 85.985C55.885 83.6741 53.7332 81.2352 51.725 78.68C49.7754 76.2096 48.0518 73.569 46.575 70.79C45.1986 68.2204 44.0718 65.5247 43.21 62.74C42.427 60.2373 42.0192 57.6323 42 55.01C41.9987 53.6793 42.1565 52.3532 42.47 51.06C42.755 49.97 43.185 48.99 43.76 48.135C44.33 47.275 45.035 46.44 45.865 45.635C46.7 44.825 47.65 43.885 48.715 42.82C49.2391 42.2811 49.9635 41.9841 50.715 42C51.025 41.975 51.505 42.18 52.155 42.625C52.805 43.07 53.51 43.6 54.265 44.225C55.8955 45.5851 57.3999 47.0895 58.76 48.72C59.385 49.47 59.905 50.165 60.32 50.79C60.735 51.415 60.945 51.895 60.945 52.235C60.9899 52.8014 60.8083 53.3624 60.44 53.795C60.075 54.215 59.64 54.695 59.15 55.245C58.65 55.79 58.105 56.31 57.51 56.805C56.91 57.3 56.36 57.885 55.865 58.56C55.3681 59.2412 54.9489 59.9758 54.615 60.75C54.2627 61.6057 54.0908 62.5248 54.11 63.45C54.135 64.515 54.345 65.515 54.735 66.45C55.125 67.39 55.685 68.225 56.415 68.95L75.045 87.585C76.4933 89.0678 78.4823 89.8981 80.555 89.885C81.4932 89.9348 82.4301 89.7635 83.29 89.385C84.792 88.6892 86.1348 87.6919 87.235 86.455C87.785 85.855 88.285 85.305 88.76 84.81C89.225 84.32 89.71 83.9 90.205 83.56C90.6608 83.2355 91.2055 83.0592 91.765 83.055C92.13 83.055 92.625 83.265 93.25 83.68C93.875 84.095 94.565 84.63 95.32 85.28C96.075 85.93 96.855 86.65 97.665 87.43C98.47 88.21 99.19 88.99 99.815 89.775C100.435 90.555 100.96 91.26 101.375 91.885C101.79 92.51 102 92.985 102 93.33C102.0074 94.0653 101.7107 94.771 101.18 95.28C100.06 96.375 99.11 97.33 98.33 98.13C97.5719 98.918 96.7341 99.6251 95.83 100.24C94.9347 100.8442 93.9442 101.2938 92.9 101.57ZM107 40.52L83.8 63.76H100.24V68.76H75.24V43.76H80.24V60.2L103.485 37L107 40.515Z"></path></svg>