<svg width="144" height="144" xmlns="http://www.w3.org/2000/svg" fill="white"><path d="M75.24 65.24L98.45 42H82V37H107V62H102V45.55L78.76 68.765L75.24 65.245ZM91.765 78.055C93.8283 78.0551 95.8082 78.869 97.275 80.32C97.825 80.87 98.435 81.44 99.11 82.04L101.26 83.955C102.01 84.63 102.715 85.335 103.365 86.06C104.015 86.79 104.63 87.535 105.205 88.29C105.775 89.04 106.205 89.85 106.49 90.71C106.78 91.57 106.95 92.43 107 93.29C106.9981 95.3514 106.1844 97.3291 104.735 98.795C103.405 100.125 102.21 101.295 101.14 102.315C100.1267 103.2873 99.0139 104.1504 97.82 104.89C96.67 105.59 95.385 106.115 93.955 106.455C92.2996 106.818 90.6097 107.0008 88.915 107C85.9495 106.9804 83.0024 106.5325 80.165 105.67C77.0681 104.7443 74.0702 103.515 71.215 102C68.1634 100.3831 65.2517 98.515 62.51 96.415C59.665 94.249 56.9751 91.8866 54.46 89.345C51.935 86.795 49.59 84.095 47.43 81.26C45.3411 78.5365 43.4973 75.6335 41.92 72.585C40.453 69.7468 39.2513 66.7792 38.33 63.72C37.4719 60.9347 37.0238 58.0394 37 55.125C37 53.145 37.17 51.455 37.51 50.045C37.8252 48.6958 38.3517 47.4049 39.07 46.22C39.77 45.07 40.635 43.97 41.65 42.9C42.665 41.83 43.85 40.62 45.2 39.265C46.668 37.8127 48.65 36.9987 50.715 37C52.015 37 53.265 37.35 54.465 38.05C55.665 38.76 56.825 39.615 57.945 40.635C59.06 41.65 60.095 42.715 61.03 43.835C61.965 44.955 62.85 45.92 63.68 46.725C65.131 48.1918 65.9449 50.1717 65.945 52.235C65.9629 53.1709 65.7929 54.1009 65.445 54.97C65.1285 55.7404 64.7079 56.4638 64.195 57.12C63.6948 57.7483 63.1447 58.3352 62.55 58.875C61.95 59.425 61.405 59.945 60.91 60.44C60.4506 60.8946 60.0197 61.3771 59.62 61.885C59.2657 62.3253 59.086 62.8806 59.115 63.445C59.115 63.76 59.35 64.255 59.815 64.93C60.4187 65.7743 61.0715 66.5823 61.77 67.35C63.7119 69.5318 65.7315 71.6432 67.825 73.68C68.995 74.83 70.13 75.93 71.225 77C72.315 78.07 73.375 79.085 74.39 80.05C75.405 81.01 76.265 81.83 76.965 82.51C77.665 83.185 78.215 83.71 78.605 84.07C79.5257 85.0248 81.0078 85.159 82.085 84.385C82.55 84.045 83.035 83.625 83.53 83.135C84.025 82.635 84.53 82.09 85.05 81.49C85.57 80.89 86.17 80.345 86.85 79.85C87.525 79.355 88.24 78.925 89 78.56C89.8708 78.1762 90.8198 78.0031 91.77 78.055ZM88.915 102C90.505 102 91.83 101.855 92.9 101.57C93.9442 101.2938 94.9347 100.8442 95.83 100.24C96.715 99.64 97.545 98.94 98.33 98.135C99.11 97.325 100.06 96.375 101.18 95.285C101.73 94.735 102 94.085 102 93.33C102 92.99 101.79 92.51 101.375 91.88C100.8837 91.1563 100.3615 90.454 99.81 89.775C99.1439 88.9469 98.4258 88.1619 97.66 87.425C96.86 86.65 96.075 85.93 95.32 85.28C94.6629 84.7053 93.9717 84.171 93.25 83.68C92.625 83.265 92.13 83.055 91.765 83.055C91.2055 83.0592 90.6608 83.2355 90.205 83.56C89.6786 83.924 89.1925 84.343 88.755 84.81C88.29 85.31 87.78 85.855 87.235 86.455C86.685 87.055 86.085 87.6 85.435 88.095C84.785 88.59 84.07 89.02 83.285 89.385C82.4266 89.763 81.4919 89.9359 80.555 89.89C78.4823 89.9031 76.4933 89.0728 75.045 87.59L56.415 68.95C55.6956 68.2356 55.1246 67.386 54.735 66.45C54.3405 65.4945 54.1285 64.4736 54.11 63.44C54.11 62.425 54.28 61.525 54.615 60.745C54.955 59.965 55.37 59.235 55.865 58.555C56.365 57.88 56.91 57.295 57.51 56.8C58.11 56.305 58.655 55.785 59.15 55.235C59.645 54.69 60.075 54.21 60.44 53.79C60.8083 53.3574 60.9899 52.7964 60.945 52.23C60.945 51.89 60.735 51.41 60.32 50.78C59.8354 50.0656 59.3147 49.3764 58.76 48.715C58.0804 47.9002 57.3629 47.1176 56.61 46.37C55.8624 45.6171 55.0798 44.8996 54.265 44.22C53.587 43.6541 52.8829 43.1202 52.155 42.62C51.505 42.175 51.025 41.97 50.71 41.995C49.9619 41.9819 49.2417 42.2787 48.72 42.815C47.7758 43.7592 46.8258 44.6975 45.87 45.63C45.0797 46.3859 44.3724 47.224 43.76 48.13C43.1673 49.0267 42.7312 50.0174 42.47 51.06C42.1586 52.3519 42.0009 53.6761 42 55.005C42 57.505 42.4 60.08 43.21 62.735C44.0702 65.5195 45.1953 68.2152 46.57 70.785C48.005 73.49 49.72 76.125 51.725 78.675C53.73 81.225 55.88 83.66 58.175 85.975C62.6686 90.5221 67.7988 94.3925 73.405 97.465C75.9274 98.841 78.5847 99.9535 81.335 100.785C83.7931 101.539 86.3443 101.9463 88.915 101.995Z"></path></svg>