<svg width="144" height="144" xmlns="http://www.w3.org/2000/svg" fill="white"><path d="M76.2676 90.5105H71.2724L67.1905 79.7149H50.8623L47.022 90.5105H42L56.7705 52H61.4434L76.2676 90.5105ZM65.7134 75.6597L59.6709 59.251C59.474 58.7139 59.277 57.8545 59.0801 56.6729H58.9727C58.7936 57.765 58.5878 58.6244 58.355 59.251L52.3662 75.6597H65.7134Z"></path><path d="M100.78 90.5105H96.376V86.214H96.2685C94.353 89.508 91.533 91.1555 87.809 91.1555C85.0695 91.1555 82.9215 90.43 81.3637 88.98C79.824 87.53 79.0541 85.605 79.0541 83.206C79.0541 78.0677 82.08 75.0778 88.131 74.2364L96.376 73.0815C96.376 68.4087 94.487 66.0723 90.7095 66.0723C87.397 66.0723 84.4075 67.2002 81.7397 69.4561V64.9444C84.443 63.2256 87.5585 62.3662 91.0855 62.3662C97.5485 62.3662 100.78 65.7858 100.78 72.625V90.5105ZM96.376 76.5996L89.7425 77.5127C87.7015 77.7992 86.162 78.3094 85.1235 79.0435C84.085 79.7596 83.566 81.0397 83.566 82.884C83.566 84.2265 84.0405 85.3275 84.989 86.187C85.956 87.0285 87.236 87.449 88.8295 87.449C91.0135 87.449 92.813 86.6885 94.2275 85.1665C95.6595 83.627 96.376 81.6842 96.376 79.3389V76.5996Z"></path></svg>