<svg width="144" height="144" xmlns="http://www.w3.org/2000/svg" fill="white"><path fill-rule="evenodd" clip-rule="evenodd" d="M50.75 54.4H47.2L42 49.15L45.55 45.65L49 49.05L56.05 42L59.6 45.55L50.75 54.4ZM66.95 47H106.95V52H66.95V47ZM66.95 62H106.95V67H66.95V62ZM106.95 77H66.95V82H106.95V77ZM66.95 92H106.95V97H66.95V92ZM47.2 69.4H50.75L59.6 60.55L56.05 57.05L49 64.1L45.55 60.65L42 64.2L47.2 69.4ZM50.75 84.45H47.2L42 79.25L45.55 75.7L49 79.15L56.05 72.05L59.6 75.6L50.75 84.45ZM47.2 99.5H50.75L59.6 90.65L56.05 87.1L49 94.2L45.55 90.75L42 94.25L47.2 99.5Z"></path></svg>