<svg width="144" height="144" xmlns="http://www.w3.org/2000/svg" fill="white"><path d="M76.1593 74.7775C75.6096 75.6002 74.8285 76.2413 73.9153 76.6195C73.0019 76.9978 71.9968 77.0968 71.0266 76.9038C70.0566 76.7109 69.1657 76.2347 68.4664 75.5354C67.7672 74.8362 67.2909 73.9452 67.098 72.9753C66.905 72.005 67.004 70.9998 67.3823 70.0865C67.7606 69.1733 68.4016 68.3922 69.2242 67.8426C70.0464 67.2932 71.0128 67 72.0018 67C73.3276 67 74.5993 67.5267 75.5372 68.4646C76.4751 69.4025 77.0018 70.6742 77.0018 72C77.0018 72.9889 76.7086 73.9554 76.1593 74.7775ZM80.3166 77.5554C81.4154 75.911 82.002 73.9778 82.002 72C82.002 69.3478 80.9481 66.8045 79.0727 64.9291C77.1974 63.0537 74.654 62 72.0018 62C70.024 62 68.0908 62.5864 66.4464 63.6852C64.8019 64.784 63.5198 66.3459 62.7629 68.1731C62.006 70.0004 61.8082 72.0109 62.1941 73.9507C62.5799 75.8905 63.5324 77.6724 64.9308 79.0709C66.3294 80.4695 68.1113 81.4219 70.0511 81.8078C71.9909 82.1935 74.0014 81.9958 75.8287 81.2389C77.656 80.482 79.2178 79.1999 80.3166 77.5554Z"></path></svg>