<svg width="144" height="144" xmlns="http://www.w3.org/2000/svg" fill="white"><path d="M72 37C98.943 37 115.7824 66.1667 102.3109 89.5C88.8394 112.8333 55.1606 112.8333 41.6891 89.5C38.6172 84.1793 37 78.1438 37 72C37.022 52.6792 52.6792 37.022 72 37ZM42 72C42 79.09 44.52 85.95 49.115 91.35L91.35 49.115C73.7601 34.1924 46.6122 43.9074 42.4838 66.6021C42.1598 68.3831 41.9979 70.1898 42 72ZM102 72C102 64.91 99.48 58.05 94.885 52.65L52.65 94.885C70.2399 109.8076 97.3878 100.0926 101.5162 77.3979C101.8402 75.6169 102.0021 73.8102 102 72Z"></path></svg>