<svg width="144" height="144" xmlns="http://www.w3.org/2000/svg" fill="white"><path d="M104.5 37H39.5L37 39.5V104.5L39.5 107H104.5L107 104.5V39.5L104.5 37ZM102 102H57V92H68.5C70 95 73.5 97 77 97C82.5 97 87 92.5 87 87S82.5 77 77 77S67 81.5 67 87H52V102H42V42H52V53.5C49 55 47 58.5 47 62C47 67.5 51.5 72 57 72S67 67.5 67 62H77C77 67.5 81.5 72 87 72S97 67.5 97 62S92.5 52 87 52C83.5 52 80 54 78.5 57H65.5C64 54 60.5 52 57 52V42H102V102ZM72 87C72 84 74 82 77 82S82 84 82 87S80 92 77 92S72 90 72 87ZM57 57C60 57 62 59 62 62S60 67 57 67S52 65 52 62S54 57 57 57ZM87 57C90 57 92 59 92 62S90 67 87 67S82 65 82 62S84 57 87 57Z"></path></svg>