<svg width="144" height="144" xmlns="http://www.w3.org/2000/svg" fill="white"><path d="M72 37C75.1436 36.9897 78.2734 37.4154 81.3 38.265C87.1416 39.8677 92.4582 42.9804 96.715 47.29C101.0221 51.548 104.1329 56.8643 105.735 62.705C106.58 65.69 107 68.785 107 72S106.58 78.31 105.735 81.3C104.9355 84.2329 103.752 87.0473 102.215 89.67C99.1429 94.8427 94.8162 99.1573 89.635 102.215C87.0215 103.7566 84.2178 104.95 81.295 105.765C78.2663 106.5927 75.1398 107.0081 72 107C68.8588 107.0102 65.7306 106.5964 62.7 105.77C59.7691 104.9488 56.956 103.754 54.33 102.215C51.7564 100.6886 49.3802 98.8514 47.255 96.745C45.1484 94.62 43.3112 92.2438 41.785 89.67C40.2473 87.0422 39.0542 84.2274 38.235 81.295C37.4074 78.2663 36.992 75.1398 37 72C37 68.785 37.41 65.69 38.23 62.7C39.0471 59.7788 40.2422 56.9767 41.785 54.365C44.8425 49.1837 49.1572 44.857 54.33 41.785C56.9542 40.2474 59.7703 39.0638 62.705 38.265C65.7301 37.4164 68.8581 36.9907 72 37Z"></path></svg>