<svg width="144" height="144" xmlns="http://www.w3.org/2000/svg" fill="white"><path fill-rule="evenodd" clip-rule="evenodd" d="M79.94 43.075C77.3557 42.3515 74.6836 41.9897 72 42C69.23 42 66.59 42.365 64.06 43.075L64.03 43.085C61.46 43.79 59.08 44.795 56.87 46.09C52.4296 48.7322 48.7257 52.4498 46.1 56.9L46.09 56.92C44.7709 59.1544 43.749 61.5513 43.05 64.05C42.345 66.6409 41.9918 69.3149 42 72C42 74.775 42.35 77.425 43.05 79.955C44.4475 84.9653 47.1133 89.5306 50.79 93.21C52.64 95.035 54.66 96.595 56.87 97.91C59.1216 99.2277 61.5329 100.251 64.045 100.955C66.6382 101.6568 69.3136 102.0082 72 102C74.775 102 77.425 101.65 79.955 100.95C82.53 100.225 84.905 99.21 87.085 97.915L87.105 97.905C91.5535 95.2765 95.2692 91.5711 97.91 87.13C99.2237 84.8872 100.2326 82.4794 100.91 79.97L100.925 79.94C101.6486 77.3557 102.0103 74.6836 102 72C102 69.23 101.64 66.59 100.925 64.06L100.915 64.03C100.2382 61.5347 99.2292 59.1416 97.915 56.915L97.905 56.895C96.6049 54.682 95.0215 52.6482 93.195 50.845L93.155 50.805C91.3517 48.9786 89.3179 47.3952 87.105 46.095L87.085 46.085C84.8584 44.7708 82.4653 43.7618 79.97 43.085L79.94 43.075ZM102.215 89.675C99.1422 94.8458 94.8156 99.1587 89.635 102.215C87.0215 103.7566 84.2178 104.95 81.295 105.765C78.2663 106.5927 75.1398 107.0081 72 107C68.8588 107.0102 65.7306 106.5964 62.7 105.77C59.7691 104.9488 56.956 103.754 54.33 102.215C51.7564 100.6886 49.3802 98.8514 47.255 96.745C45.1484 94.62 43.3112 92.2438 41.785 89.67C40.2473 87.0422 39.0542 84.2274 38.235 81.295C37.4074 78.2663 36.992 75.1398 37 72C37 68.785 37.41 65.69 38.23 62.7C39.0471 59.7788 40.2422 56.9767 41.785 54.365C44.8425 49.1837 49.1572 44.857 54.33 41.785C56.9542 40.2474 59.7703 39.0638 62.705 38.265C65.7301 37.4164 68.8581 36.9907 72 37C75.1436 36.9897 78.2734 37.4154 81.3 38.265C87.1416 39.8677 92.4582 42.9804 96.715 47.29C101.0221 51.548 104.1329 56.8643 105.735 62.705C106.58 65.69 107 68.785 107 72S106.58 78.31 105.735 81.3C104.9355 84.2329 103.752 87.0473 102.215 89.67Z"></path></svg>