<svg width="144" height="144" xmlns="http://www.w3.org/2000/svg" fill="white"><path d="M72 52C73.835 52 75.605 52.24 77.315 52.725C80.6533 53.6401 83.6918 55.4181 86.125 57.88C88.5849 60.3139 90.3611 63.3523 91.275 66.69C91.76 68.39 92 70.165 92 72C92 73.835 91.76 75.605 91.275 77.315C90.3644 80.6584 88.5879 83.7025 86.125 86.14C83.6813 88.5883 80.6466 90.364 77.315 91.295C75.6 91.765 73.835 92 72 92S68.395 91.765 66.685 91.3C63.351 90.3618 60.3128 88.5854 57.86 86.14C55.4137 83.686 53.6372 80.6459 52.7 77.31C52.2292 75.5795 51.9937 73.7934 52 72C52 70.165 52.235 68.395 52.7 66.685C53.1699 65.0155 53.8539 63.4139 54.735 61.92C56.481 58.9591 58.9452 56.4863 61.9 54.73C63.3996 53.8536 65.0086 53.1795 66.685 52.725C68.4147 52.239 70.2034 51.995 72 52Z"></path></svg>