<svg width="144" height="144" xmlns="http://www.w3.org/2000/svg" fill="white"><path fill-rule="evenodd" clip-rule="evenodd" d="M67 101.96H52V56.96H92V66.96H97V54.46L94.5 51.96H87V46.96H82C82 39.262 73.6667 34.4507 67 38.2997C63.906 40.0861 62 43.3873 62 46.96H56.7V51.96H49.5L47 54.46V104.46L49.5 106.96H67V101.96ZM67 45.96C67.3784 43.9281 68.9681 42.3384 71 41.96C71.975 41.7697 72.9846 41.8741 73.9 42.26C74.82 42.6096 75.607 43.2392 76.15 44.06C78.3526 47.2165 76.3123 51.5737 72.4774 51.903C70.2765 52.092 68.2124 50.8143 67.4 48.76C67 47.8846 66.8611 46.9124 67 45.96ZM102.4 93.26L97 98.71V71.96H92V98.66L86.6 93.26L83.05 96.81L92.75 106.46H96.3L105.95 96.81L102.4 93.26ZM72.8 72.46H76.35L86 82.11L82.45 85.66L77.05 80.26V106.96H72.05V80.21L66.65 85.66L63.1 82.11L72.8 72.46Z"></path></svg>