<svg width="144" height="144" xmlns="http://www.w3.org/2000/svg" fill="white"><path fill-rule="evenodd" clip-rule="evenodd" d="M91.78 62H92.03C96.0021 62.0007 99.8106 63.582 102.615 66.395C108.4625 72.2559 108.4625 81.7441 102.615 87.605C99.8106 90.418 96.0021 91.9993 92.03 92H82.055V87H92.03C99.728 86.6556 104.1665 78.1071 100.0193 71.6126C98.2656 68.8664 95.2851 67.1456 92.03 67H87.46L86.845 62.715C86.074 57.1987 81.7328 52.8656 76.215 52.105C70.6924 51.3506 65.3458 54.3768 63.15 59.5L61.485 63.31L57.44 62.365C56.5154 62.1357 55.5675 62.0132 54.615 62C51.305 62 48.13 63.315 45.795 65.66C39.0014 72.491 42.1502 84.1146 51.4628 86.5825C52.4915 86.8551 53.5508 86.9954 54.615 87H67.085V92H54.615C49.605 92.0451 44.8178 89.932 41.475 86.2C36.3465 80.4887 35.5357 72.103 39.475 65.515C42.0462 61.2137 46.3394 58.2223 51.265 57.3C53.695 56.85 56.2 56.915 58.605 57.505C61.7185 50.3759 69.1794 46.1732 76.89 47.205C84.6049 48.249 90.6867 54.292 91.78 62ZM83.465 81.265L76.895 74.7V101.88H71.925V74.88L65.535 81.27L62 77.73L72.73 67H76.27L87 77.73L83.465 81.265Z"></path></svg>