<svg width="144" height="144" xmlns="http://www.w3.org/2000/svg" fill="white"><path fill-rule="evenodd" clip-rule="evenodd" d="M91.785 62H92.035C96.0054 62.002 99.8119 63.5832 102.615 66.395C108.4625 72.2559 108.4625 81.7441 102.615 87.605C99.8106 90.418 96.0021 91.9993 92.03 92V91.935L92 92H54.615C49.605 92.0451 44.8178 89.932 41.475 86.2C32.4737 76.1668 37.7092 60.1518 50.8988 57.3731C51.0206 57.3474 51.1427 57.3231 51.265 57.3C53.6978 56.841 56.2008 56.9092 58.605 57.5C61.7185 50.3709 69.1794 46.1682 76.89 47.2C84.6084 48.2425 90.6932 54.2884 91.785 62ZM57 87H92.05C97.5641 86.9945 102.0266 82.5141 102.01 77C102.0045 71.4872 97.5428 67.0165 92.03 67H87.46L86.845 62.715C86.074 57.1987 81.7328 52.8656 76.215 52.105C70.6941 51.353 65.3503 54.3788 63.155 59.5L61.49 63.31L57.445 62.365C56.5188 62.1353 55.5692 62.0128 54.615 62C51.305 62 48.13 63.315 45.795 65.66C39.0014 72.491 42.1502 84.1146 51.4628 86.5825C52.4915 86.8551 53.5508 86.9954 54.615 87H57Z"></path></svg>