<svg width="144" height="144" xmlns="http://www.w3.org/2000/svg" fill="white"><path fill-rule="evenodd" clip-rule="evenodd" d="M39.5 37L37 39.5V54.5L39.5 57H54.5L57 54.5V39.5L54.5 37H39.5ZM42 52V42H52V52H42ZM39.5 62L37 64.5V79.5L39.5 82H54.5L57 79.5V64.5L54.5 62H39.5ZM42 77V67H52V77H42ZM37 89.5L39.5 87H54.5L57 89.5V104.5L54.5 107H39.5L37 104.5V89.5ZM42 92V102H52V92H42ZM94.5 57L92 59.5V89.5L94.5 92H109.5L112 89.5V59.5L109.5 57H94.5ZM107 72H97V62H107V72ZM107 87H97V77H107V87ZM77.5 72H62V77H77.5L72.5 82L76 85L85 76V72.5L76 63.5L72.5 67L77.5 72Z"></path></svg>