<svg width="144" height="144" xmlns="http://www.w3.org/2000/svg" fill="white"><path fill-rule="evenodd" clip-rule="evenodd" d="M77.5073 101.4955C76.521 101.6785 75.5177 101.8135 74.5 101.8975V97H69.5V101.8975C54.8617 100.6895 43.2034 88.9725 42.0875 74.3083H47V69.3083H42.1191C43.4071 54.8238 54.9894 43.2998 69.5 42.1027V47H74.5V42.1027C89.0745 43.3051 100.695 54.9255 101.8975 69.5H97V74.5H101.8975C101.8135 75.5177 101.6785 76.521 101.4955 77.5073C103.169 77.8917 104.762 78.4859 106.246 79.2609C106.74 76.9184 107 74.4895 107 72C107 52.6701 91.33 37 72 37C52.6701 37 37 52.6701 37 72C37 91.33 52.6701 107 72 107C74.4895 107 76.9184 106.74 79.2609 106.246C78.4859 104.762 77.8917 103.169 77.5073 101.4955ZM81.5185 84.3375L66.9558 77.0437L56.8334 56.8328L77.0443 66.9552L84.338 81.518C83.307 82.362 82.3625 83.3065 81.5185 84.3375ZM79.1771 79.1765L74.4037 69.5958L64.8229 64.8224L69.5964 74.4031L79.1771 79.1765Z"></path><circle cx="13" cy="13" r="3"></circle></svg>