<svg width="144" height="144" xmlns="http://www.w3.org/2000/svg" fill="white"><path d="M77.0443 66.9552L87.1665 87.166L66.9557 77.0437L56.8333 56.8328L77.0443 66.9552ZM79.177 79.1765L74.4036 69.5958L64.8229 64.8224L69.5963 74.4031L79.177 79.1765Z"></path><path fill-rule="evenodd" clip-rule="evenodd" d="M101.8975 74.5C100.695 89.0745 89.0745 100.695 74.5 101.8975V97H69.5V101.8975C54.8617 100.6895 43.2034 88.9725 42.0875 74.3083H47V69.3083H42.1191C43.4071 54.8238 54.9894 43.2998 69.5 42.1027V47H74.5V42.1027C89.0745 43.3051 100.695 54.9255 101.8975 69.5H97V74.5H101.8975ZM72 107C91.33 107 107 91.33 107 72C107 52.6701 91.33 37 72 37C52.6701 37 37 52.6701 37 72C37 91.33 52.6701 107 72 107Z"></path></svg>