<svg width="144" height="144" xmlns="http://www.w3.org/2000/svg" fill="white"><path fill-rule="evenodd" clip-rule="evenodd" d="M77.5073 101.4955C76.521 101.6785 75.5177 101.8135 74.5 101.8975V97H69.5V101.8975C54.8617 100.6895 43.2034 88.9725 42.0875 74.3083H47V69.3083H42.1191C43.4071 54.8238 54.9894 43.2998 69.5 42.1027V47H74.5V42.1027C89.0745 43.3051 100.695 54.9255 101.8975 69.5H97V74.5H101.8975C101.8135 75.5177 101.6785 76.521 101.4955 77.5073C103.169 77.8917 104.762 78.4859 106.246 79.2609C106.74 76.9184 107 74.4895 107 72C107 52.6701 91.33 37 72 37C52.6701 37 37 52.6701 37 72C37 91.33 52.6701 107 72 107C74.4895 107 76.9184 106.74 79.2609 106.246C78.4859 104.762 77.8917 103.169 77.5073 101.4955ZM81.5185 84.3375L66.9558 77.0437L56.8334 56.8328L77.0443 66.9552L84.338 81.518C83.307 82.362 82.3625 83.3065 81.5185 84.3375ZM79.1771 79.1765L74.4037 69.5958L64.8229 64.8224L69.5964 74.4031L79.1771 79.1765Z"></path><path fill-rule="evenodd" clip-rule="evenodd" d="M88.6665 84.528C91.133 82.8795 94.0335 82 97 82C100.977 82.005 104.789 83.587 107.601 86.399C110.413 89.211 111.995 93.023 112 97C112 99.9665 111.1205 102.867 109.472 105.3335C107.824 107.8005 105.481 109.723 102.7405 110.858C99.9995 111.9935 96.9835 112.2905 94.0735 111.712C91.164 111.133 88.491 109.7045 86.3935 107.6065C84.2955 105.509 82.867 102.836 82.288 99.9265C81.7095 97.0165 82.0065 94.0005 83.142 91.2595C84.277 88.519 86.1995 86.176 88.6665 84.528ZM97.1575 103.613L106.1065 91.6815L102.1065 88.6815L94.705 98.5495L90.3275 95.0475L87.204 98.9515L93.596 104.065L97.1575 103.613Z"></path></svg>