<svg width="144" height="144" xmlns="http://www.w3.org/2000/svg" fill="white"><path fill-rule="evenodd" clip-rule="evenodd" d="M51.445 42.475C72.2489 28.5763 100.2971 42.4104 101.9318 67.3764C102.6905 78.9632 97.2101 90.0746 87.555 96.525C66.7492 110.4218 38.7019 96.5844 37.0697 71.6177C36.3123 60.0306 41.794 48.9195 51.45 42.47ZM54.22 92.365C58.7428 95.3872 64.0604 97.0002 69.5 97C84.681 96.9835 96.9835 84.681 97 69.5C96.9994 48.3305 74.0823 35.1002 55.7493 45.6855C38.1037 55.8739 37.2791 81.0435 54.22 92.365ZM83.47 52L87 55.535L76.25 66.285C78.7788 71.5351 74.676 77.5539 68.8649 77.1189C63.0537 76.6839 59.8927 70.1213 63.175 65.3062C65.2847 62.2113 69.3405 61.1246 72.715 62.75L83.465 52ZM68.105 71.58C69.7062 72.65 71.8653 71.5855 71.9913 69.6638C72.0498 68.7719 71.6281 67.9166 70.885 67.42C69.2838 66.35 67.1247 67.4145 66.9987 69.3362C66.9402 70.2281 67.3619 71.0834 68.105 71.58ZM89.535 59.335L85.72 63.15C86.55 65.165 86.985 67.32 86.995 69.5C86.9809 72.6333 86.1169 75.7041 84.495 78.385L88.17 82.06C92.7322 75.3001 93.257 66.594 89.54 59.335H89.535ZM75.665 53.21C73.7039 52.4241 71.6126 52.0136 69.5 52C59.835 52 52 59.835 52 69.5C52.0133 72.6334 52.8774 75.7044 54.5 78.385L50.83 82.06C41.184 67.6741 50.7285 48.2408 68.0101 47.0801C71.9746 46.8138 75.939 47.6022 79.5 49.365L75.665 53.21Z"></path></svg>