<svg width="144" height="144" xmlns="http://www.w3.org/2000/svg" fill="white"><path d="M97 49.5C97 42.595 85.805 37 72 37S47 42.595 47 49.5C47 49.7 47.1 49.885 47.12 50.085H47V94.445L47.28 96.23C48.68 102.28 59.145 107 72 107C84.855 107 95.32 102.28 96.72 96.23L97 94.445V50.085H96.88C96.9 49.885 97 49.7 97 49.5ZM72 42.16C84.21 42.16 92 46.98 92 49.5S84.21 56.84 72 56.84S52 52 52 49.5S59.79 42.16 72 42.16ZM92 94.45L91.85 95.105C91.275 97.58 84.155 102 72 102S52.725 97.58 52.15 95.105L52 94.45V56.95C58.0546 60.4916 64.9898 62.2428 72 62C79.0121 62.2367 85.9475 60.4786 92 56.93V94.45Z"></path></svg>