<svg width="144" height="144" xmlns="http://www.w3.org/2000/svg" fill="white"><path fill-rule="evenodd" clip-rule="evenodd" d="M95.75 72C95.7559 89.3205 77.0097 100.1523 62.0067 91.4971C57.8921 89.1235 54.6343 85.5085 52.7 81.17L45.745 83.995C54.9842 105.1645 83.6754 108.3937 97.3891 89.8076C101.1946 84.6501 103.2485 78.4095 103.25 72C103.2511 48.906 78.2518 34.4711 58.2512 46.0171C54.8631 47.9731 51.8902 50.5728 49.5 53.67V44.5H42V64.5L45.75 68.25H63.25V60.75H53.76C62.4143 45.7466 84.065 45.7381 92.7311 60.7346C94.7101 64.1592 95.7513 68.0448 95.75 72Z"></path></svg>