<svg width="144" height="144" xmlns="http://www.w3.org/2000/svg" fill="white"><path d="M68.4667 77L64.0667 81.4C61.7594 72.1111 50.2618 68.8032 43.371 75.4458C41.6882 77.068 40.4968 79.1316 39.9333 81.4L35.5333 77L32 80.5333L37.7333 86.2667L37 87V92H32V97H37V97.2667C37.2567 98.8967 37.7133 100.4867 38.3667 102L32 108.4667L35.5333 112L41.0333 106.5C43.6823 109.8812 47.7058 111.8991 52 112C56.2939 111.8982 60.3171 109.8805 62.9667 106.5L68.4667 112L72 108.4667L65.6333 102C66.2933 100.4533 66.7533 98.83 67 97.1667V96.8333H72V92H67V87L66.2667 86.2667L72 80.5333L68.4667 77ZM52 77C56.1421 77 59.5 80.3579 59.5 84.5H44.5C44.5 80.3579 47.8579 77 52 77ZM62 97C61.4963 102.3002 57.3002 106.4963 52 107C46.6998 106.4963 42.5037 102.3002 42 97V89.5H62V97ZM111.2 64V68.2L77 89.9V84L105.3333 66.1L62 38.6667V70.2C60.4769 69.1301 58.7875 68.3192 57 67.8V34.1L60.8 32L111.2 64Z"></path></svg>