<svg width="144" height="144" xmlns="http://www.w3.org/2000/svg" fill="white"><path fill-rule="evenodd" clip-rule="evenodd" d="M67.835 92C67.8402 103.547 55.3435 110.7696 45.3409 105.0006C42.5972 103.4182 40.4248 101.0078 39.135 98.115L34.495 99.995C40.6457 114.1132 59.7734 116.2787 68.9247 103.8929C78.0761 91.5071 70.3877 73.8594 55.0856 72.1269C48.1336 71.3399 41.2755 74.2419 37 79.78V73.665H32V87L34.5 89.5H46.165V84.5H39.84C45.6073 74.4964 60.0411 74.4875 65.8208 84.484C67.1416 86.7685 67.8364 89.3611 67.835 92Z"></path><path fill-rule="evenodd" clip-rule="evenodd" d="M57 44.05L60.9 42L105.9 72V76.15L82 92.085V86.085L100 74.1L62 48.75V67H57V44.05Z"></path></svg>