<svg width="144" height="144" xmlns="http://www.w3.org/2000/svg" fill="white"><path fill-rule="evenodd" clip-rule="evenodd" d="M100.085 51.22C99.5872 49.655 98.8245 48.187 97.83 46.88L104.6 40.08L101.52 37L94.72 43.77C93.413 42.7743 91.9451 42.01 90.38 41.51C86.8837 40.3481 83.0864 40.4812 79.68 41.885C77.8247 42.6524 76.1404 43.7809 74.725 45.205L67 52.96L88.635 74.6L96.395 66.875C97.83 65.44 98.935 63.785 99.71 61.915C101.1134 58.5085 101.2464 54.7113 100.085 51.215ZM95.64 60.24C95.0968 61.5597 94.2962 62.758 93.285 63.765L88.635 68.415L73.185 52.965L77.835 48.315C78.8401 47.3026 80.0367 46.5003 81.355 45.955C84.055 44.8048 87.1096 44.8174 89.8 45.99C91.12 46.56 92.27 47.345 93.25 48.35C94.25 49.325 95.04 50.48 95.61 51.8C96.7811 54.489 96.7938 57.5414 95.645 60.24ZM71.52 85.21L78.94 77.485L75.86 74.375L68.41 82.13L59.11 72.835L66.565 65.075L63.455 62L56.04 69.725L52.96 66.65L45.205 74.375C43.7757 75.7985 42.6482 77.4957 41.89 79.365C41.1176 81.2167 40.7216 83.2037 40.725 85.21C40.725 86.87 40.975 88.49 41.475 90.06C42 91.61 42.765 93.045 43.77 94.37L37 101.17L40.075 104.245L46.875 97.48C48.2 98.48 49.635 99.245 51.185 99.77C52.755 100.27 54.375 100.52 56.035 100.52C58.065 100.52 60.015 100.135 61.885 99.36C63.775 98.585 65.435 97.48 66.875 96.045L74.6 88.285L71.52 85.21ZM60.21 95.325C58.888 95.8718 57.4706 96.1506 56.04 96.145C54.535 96.145 53.11 95.86 51.765 95.295C50.4692 94.7406 49.2875 93.9506 48.28 92.965C47.2964 91.9569 46.5081 90.7753 45.955 89.48C45.3857 88.1288 45.0965 86.6762 45.105 85.21C45.0938 82.3083 46.2507 79.5242 48.315 77.485L52.965 72.835L68.415 88.285L63.765 92.935C62.7464 93.9549 61.5389 94.7667 60.21 95.325Z"></path></svg>