<svg width="144" height="144" xmlns="http://www.w3.org/2000/svg" fill="white"><path fill-rule="evenodd" clip-rule="evenodd" d="M57 44.05L60.9 42L105.9 72V76.15L77 95.4165V89.413L100 74.1L62 48.75V67H57V44.05Z"></path><path fill-rule="evenodd" clip-rule="evenodd" d="M62.6521 92.618C61.7398 93.516 61.0389 94.515 60.5464 95.616C60.0669 96.7135 59.8258 97.905 59.8258 99.1945V103.5035C59.8258 103.9865 59.7347 104.443 59.5508 104.8705C59.369 105.2935 59.1194 105.664 58.8018 105.9805C58.4844 106.297 58.1125 106.5455 57.6887 106.7265C57.2602 106.9095 56.8025 107 56.3183 107H51.994C51.5099 107 51.0522 106.9095 50.6236 106.7265C50.1998 106.5455 49.828 106.297 49.5105 105.9805C49.193 105.664 48.9433 105.2935 48.7615 104.8705C48.5776 104.443 48.4865 103.9865 48.4865 103.5035V99.1945C48.4865 97.9055 48.24 96.714 47.7495 95.617C47.2684 94.5165 46.5724 93.5155 45.6603 92.618C44.4896 91.463 43.5857 90.173 42.9521 88.75C42.3165 87.322 42 85.776 42 84.114C42 83.0025 42.1438 81.9293 42.4321 80.8953C42.7196 79.8639 43.1283 78.9 43.6583 78.0044C44.1877 77.0986 44.8209 76.2784 45.5578 75.5442C46.2943 74.8103 47.1116 74.1795 48.0091 73.6521C48.9187 73.1244 49.8924 72.7167 50.9271 72.4303C51.9644 72.1433 53.041 72 54.1562 72C55.2713 72 56.348 72.1433 57.3852 72.4303C58.4199 72.7167 59.387 73.1238 60.2857 73.6517C61.1945 74.1791 62.0177 74.81 62.7546 75.5442C63.4914 76.2784 64.1246 77.0986 64.654 78.0043C65.1841 78.8999 65.5927 79.8639 65.8802 80.8953C66.1685 81.9293 66.3123 83.0025 66.3123 84.114C66.3123 85.776 65.9958 87.322 65.3603 88.75C64.7267 90.173 63.8228 91.463 62.6521 92.618ZM57.1352 97.577H51.1772V103.5035C51.1772 103.7215 51.254 103.907 51.4201 104.0725C51.5862 104.238 51.7733 104.3155 51.994 104.3155H56.3183C56.5391 104.3155 56.7262 104.238 56.8923 104.0725C57.0583 103.907 57.1352 103.7215 57.1352 103.5035V97.577Z"></path></svg>