<svg width="144" height="144" xmlns="http://www.w3.org/2000/svg" fill="white"><path fill-rule="evenodd" clip-rule="evenodd" d="M103.25 60.75V40.75H95.75V53.46C90.025 46.665 81.195 42.415 71.55 42.415C55.665 42.415 41.95 53.95 40.75 69.405L40.65 70.75H48.155L48.265 69.62C49.325 58.645 59.275 49.92 71.545 49.92C80.225 49.92 87.765 54.295 91.795 60.75H77.645V68.25H98.46L103.27 63.375V60.75H103.25ZM72 102C79.698 102 84.5093 93.6667 80.6603 87C78.8739 83.906 75.5727 82 72 82C64.302 82 59.4907 90.3333 63.3397 97C65.1261 100.094 68.4273 102 72 102Z"></path></svg>