<svg width="144" height="144" xmlns="http://www.w3.org/2000/svg" fill="white"><path d="M43.5433 74.8667L43.5267 74.6333L43.5433 74.8667ZM67.7567 77.1667L57.6433 67.0033L61.0233 63.6233L71.72 74.3733L82.2633 63.83L85.6433 67.21L75.53 77.3233L85.6433 87.49L82.2633 90.87L71.5667 80.12L61.0233 90.6667L57.6433 87.2867L67.7567 77.1733Z"></path><path fill-rule="evenodd" clip-rule="evenodd" d="M88.4433 48.6767V52H92.9267L102.4033 42.5267L105.7833 45.9067L96.81 54.8767L96.92 55.16C98.8939 60.3921 99.8937 65.9413 99.87 71.5333C99.87 72.65 99.8333 73.7567 99.7567 74.85L99.74 75.1H111.54V79.88H99.14L99.1067 80.0733C98.0967 85.5833 96.1367 90.6067 93.4667 94.8367L93.2667 95.15L104.6767 106.6167L101.2867 109.99L90.3733 99.0233L90.0433 99.39C85.1133 104.9033 78.7267 108.21 71.7667 108.21C64.7 108.21 58.2233 104.8 53.26 99.1333L52.9333 98.7567L42.2367 109.45L38.8567 106.07L50.0767 94.8533L49.88 94.5367C47.3067 90.37 45.4133 85.4533 44.4267 80.07L44.3933 79.88H32V75.1H43.7933L43.7767 74.85C43.7002 73.7461 43.6624 72.6399 43.6633 71.5333C43.6633 65.7233 44.6967 60.2333 46.54 55.3533L46.6467 55.0733L37.44 45.82L40.8333 42.45L50.3333 52H55.09V48.6767C55.09 35.839 68.9872 27.8154 80.105 34.2342C85.2648 37.2132 88.4433 42.7187 88.4433 48.6767ZM59.87 48.6767V52H83.6667V48.6767C83.6667 39.5186 73.7528 33.7948 65.8217 38.3739C62.1408 40.499 59.8733 44.4264 59.8733 48.6767ZM92.5367 57.0833L92.4233 56.7833H51.11L50.9967 57.0833C49.2855 61.7078 48.4206 66.6025 48.4433 71.5333C48.4433 80.7333 51.3167 88.87 55.7233 94.6C60.1233 100.32 65.8433 103.43 71.7667 103.43C77.69 103.43 83.4067 100.32 87.81 94.5967C92.2167 88.87 95.09 80.73 95.09 71.5333C95.09 66.2867 94.1567 61.3867 92.5367 57.0833Z"></path></svg>