<svg width="144" height="144" xmlns="http://www.w3.org/2000/svg" fill="white"><path fill-rule="evenodd" clip-rule="evenodd" d="M60.89 55.37C73.6469 46.7504 90.951 55.1729 92.0374 70.5305C92.5468 77.7328 89.1347 84.6506 83.11 88.63C70.2634 97.1153 53.0486 88.5118 52.1234 73.1436C51.6985 66.086 55.0315 59.3285 60.89 55.37ZM64.36 83.43C73.0651 89.4515 85.0242 83.7914 85.8865 73.2418C86.2994 68.1894 83.8989 63.3195 79.64 60.57C70.7475 54.8289 58.9747 60.8672 58.4491 71.4389C58.2129 76.1892 60.4484 80.7243 64.36 83.43ZM79.5 64.5H64.5V69.5H79.5V64.5ZM79.5 74.5H64.5V79.5H79.5V74.5Z"></path></svg>