<svg width="144" height="144" xmlns="http://www.w3.org/2000/svg" fill="white"><path d="M68.4667 77.0316L64.0667 81.4276C63.3975 78.7359 61.8459 76.3452 59.6591 74.6368C57.4723 72.9282 54.7761 72 52 72C49.224 72 46.5278 72.9282 44.341 74.6368C42.1542 76.3452 40.6026 78.7359 39.9334 81.4276L35.5333 77.0316L32 80.5617L37.7334 86.29L37 87.0225V92.018H32V97.0135H37V97.28C37.255 98.9075 37.7142 100.4965 38.3667 102.009L32 108.47L35.5333 112L41.0334 106.505C42.3419 108.173 44.0039 109.531 45.9001 110.481C47.7962 111.431 49.8794 111.95 52 112C54.1207 111.95 56.2038 111.431 58.1 110.481C59.9961 109.531 61.6581 108.173 62.9667 106.505L68.4667 112L72 108.47L65.6334 102.009C66.294 100.4645 66.7533 98.8415 67 97.18V96.847H72V92.018H67V87.0225L66.2667 86.29L72 80.5617L68.4667 77.0316ZM52 77.0316C53.9891 77.0316 55.8968 77.8211 57.3033 79.2263C58.7098 80.6316 59.5 82.5375 59.5 84.525H44.5C44.5 82.5375 45.2902 80.6316 46.6967 79.2263C48.1032 77.8211 50.0109 77.0316 52 77.0316ZM62 97.0135C61.7558 99.5805 60.6238 101.9825 58.7987 103.806C56.9736 105.6295 54.5695 106.7605 52 107.0045C49.4305 106.7605 47.0264 105.6295 45.2013 103.806C43.3762 101.9825 42.2442 99.5805 42 97.0135V89.5205H62V97.0135Z"></path><path fill-rule="evenodd" clip-rule="evenodd" d="M50.8976 42L46.9976 44.05V67H51.9976V48.75L89.9975 74.1L77 82.7535V88.7485L95.8975 76.15V72L50.8976 42ZM77 98.7485V92.741L104.9975 74.1003L66.9975 48.7503V42.7337L110.8975 72.0003V76.1503L77 98.7485Z"></path></svg>