<svg width="144" height="144" xmlns="http://www.w3.org/2000/svg" fill="white"><path d="M68.465 77.03L64.065 81.43C62.69 75.8864 57.7115 71.9953 52 72C46.2909 72.0025 41.3164 75.8906 39.935 81.43L35.535 77.03L32 80.56L37.735 86.29L37 87.02V92.02H32V97.015H37V97.28C37.255 98.91 37.715 100.495 38.365 102.01L32 108.47L35.535 112L41.035 106.505C43.6851 109.8833 47.7074 111.8991 52 112C56.2922 111.8977 60.314 109.8822 62.965 106.505L68.465 112L72 108.47L65.635 102.01C66.2951 100.4652 66.7539 98.8418 67 97.18V96.845H72V92.02H67V87.02L66.265 86.29L72 80.56L68.465 77.03ZM52 77.03C56.1402 77.03 59.4972 80.3848 59.5 84.525H44.5C44.4972 80.3825 47.8575 77.0245 52 77.03ZM62 97.015C61.4952 102.3121 57.2978 106.5032 52 107C46.7032 106.4971 42.5082 102.3063 42 97.01V89.515H62V97.01Z"></path><path fill-rule="evenodd" clip-rule="evenodd" d="M57 44.05L60.9 42L105.9 72V76.15L77 95.415V89.415L100 74.1L62 48.75V67H57V44.05Z"></path></svg>