<svg width="144" height="144" xmlns="http://www.w3.org/2000/svg" fill="white"><path fill-rule="evenodd" clip-rule="evenodd" d="M37 82V77H63.035C62.5724 78.6344 62.2627 80.3083 62.11 82H37ZM68.285 67C69.8546 65.1006 71.6706 63.4191 73.685 62H37V67H68.285ZM65 97C64.1824 95.4019 63.5242 93.7272 63.035 92H37V97H65ZM107 47V52H37V47H107ZM90.2 97.155C99.9418 97.1535 106.0289 86.6068 101.1567 78.1709C96.2856 69.7368 84.1118 69.7363 79.24 78.17H84.58V82.39H74.73L72.625 80.28V69.03H76.845V74.19C84.7868 63.91 100.8788 66.0822 105.8106 78.1C110.7425 90.1178 100.8153 102.9678 87.9417 101.23C82.0962 100.4409 77.087 96.657 74.73 91.25L78.64 89.66C80.6768 94.2235 85.2076 97.1617 90.205 97.16Z"></path></svg>