<svg width="144" height="144" xmlns="http://www.w3.org/2000/svg" fill="white"><path fill-rule="evenodd" clip-rule="evenodd" d="M40.75 60.75V40.75H48.25V53.46C53.975 46.665 62.805 42.415 72.45 42.415C88.335 42.415 102.05 53.95 103.25 69.405L103.35 70.75H95.85L95.74 69.62C94.68 58.645 84.73 49.92 72.46 49.92C63.78 49.92 56.24 54.295 52.21 60.75H66.36V68.25H45.535L40.73 63.375V60.75H40.745ZM72 102C64.302 102 59.4907 93.6667 63.3397 87C65.1261 83.906 68.4273 82 72 82C79.698 82 84.5093 90.3333 80.6603 97C78.8739 100.094 75.5727 102 72 102Z"></path></svg>