<svg width="144" height="144" xmlns="http://www.w3.org/2000/svg" fill="white"><path fill-rule="evenodd" clip-rule="evenodd" d="M55.4667 36.5367L55.93 36.3467H103.0667L103.5333 36.5367L107.46 40.4667L107.65 40.93V88.0667L107.46 88.5333L103.53 92.46L103.0667 92.65H78.6667V92C78.6698 90.2942 78.0156 88.6527 76.84 87.4167H102.4167V41.5833H56.5833V65.8567C54.8714 65.4336 53.1091 65.2496 51.3467 65.31V40.93L51.5367 40.4633L55.4667 36.54ZM87.2367 68.0433L77.8733 77.3767C77.5647 76.804 77.1739 76.2795 76.7133 75.82L75.3167 74.42L82.77 66.97L70.75 54.6567L73.46 51.88L87.2367 65.6567V68.0433ZM64.0667 81.4L68.4667 77L72 80.5333L66.2667 86.2667L67 87V92H72V96.8333H67V97.1667C66.7533 98.8297 66.294 100.4541 65.6333 102L72 108.4667L68.4667 112L62.9667 106.5C60.3177 109.8812 56.2942 111.8991 52 112C47.7061 111.8982 43.6829 109.8805 41.0333 106.5L35.5333 112L32 108.4667L38.3667 102C37.7141 100.4859 37.255 98.8956 37 97.2667V97H32V92H37V87L37.7333 86.2667L32 80.5333L35.5333 77L39.9333 81.4C42.2406 72.1111 53.7382 68.8032 60.629 75.4458C62.3118 77.068 63.5032 79.1316 64.0667 81.4ZM57.3033 79.1967C53.2209 75.1142 46.2499 76.982 44.7556 82.5587C44.5859 83.1919 44.5 83.8445 44.5 84.5H59.5C59.5 82.5109 58.7099 80.6032 57.3033 79.1967ZM58.8 103.7967C60.6242 101.9719 61.7557 99.5686 62 97V89.5H42V97C42.5037 102.3002 46.6998 106.4963 52 107C54.5698 106.7565 56.9744 105.6249 58.8 103.8Z"></path></svg>