<svg width="144" height="144" xmlns="http://www.w3.org/2000/svg" fill="white"><path fill-rule="evenodd" clip-rule="evenodd" d="M85.535 47H104.5L107 49.5V94.5L104.5 97H39.5L37 94.5V49.5L39.5 47H58.465L62.73 42.73L64.5 42H79.5L81.27 42.73L85.535 47ZM42 92H102V52H84.5L82.73 51.27L78.465 47H65.535L61.27 51.27L59.5 52H42V92ZM49.5 57C47.5755 57 46.3727 59.0833 47.3349 60.75C47.7815 61.5235 48.6068 62 49.5 62C51.4245 62 52.6273 59.9167 51.6651 58.25C51.2185 57.4765 50.3932 57 49.5 57ZM72 62C79.698 62 84.5093 70.3333 80.6603 77C78.8739 80.094 75.5727 82 72 82C64.302 82 59.4907 73.6667 63.3397 67C65.1261 63.906 68.4273 62 72 62ZM72 57C60.453 57 53.2361 69.5 59.0096 79.5C61.6891 84.141 66.641 87 72 87C83.547 87 90.7639 74.5 84.9904 64.5C82.3109 59.859 77.359 57 72 57Z"></path></svg>