<svg width="144" height="144" xmlns="http://www.w3.org/2000/svg" fill="white"><path d="M52 72C52 75.849 47.8333 78.2546 44.5 76.3301C42.953 75.437 42 73.7863 42 72C42 68.151 46.1667 65.7454 49.5 67.6699C51.047 68.563 52 70.2137 52 72ZM77 72C77 75.849 72.8333 78.2546 69.5 76.3301C67.953 75.437 67 73.7863 67 72C67 68.151 71.1667 65.7454 74.5 67.6699C76.047 68.563 77 70.2137 77 72ZM102 72C102 75.849 97.8333 78.2546 94.5 76.3301C92.953 75.437 92 73.7863 92 72C92 68.151 96.1667 65.7454 99.5 67.6699C101.047 68.563 102 70.2137 102 72Z"></path></svg>