<svg width="144" height="144" xmlns="http://www.w3.org/2000/svg" fill="white"><path d="M77.885 82.5255L72.0013 76.6418L66.1174 82.5255L61.4763 77.8846L67.3603 72.0007L61.4763 66.1168L66.1174 61.4757L72.0013 67.3597L77.885 61.476L82.526 66.1171L76.6424 72.0007L82.526 77.8844L77.885 82.5255Z"></path><path d="M92.001 72C92.001 83.0455 83.047 92 72.0012 92C60.9556 92 52.0012 83.0455 52.0012 72C52.0012 60.9543 60.9556 52 72.0012 52C83.047 52 92.001 60.9543 92.001 72ZM87.001 72C87.001 63.7158 80.2855 57 72.0012 57C63.717 57 57.0012 63.7158 57.0012 72C57.0012 80.2843 63.717 87 72.0012 87C80.2855 87 87.001 80.2843 87.001 72Z"></path></svg>