<svg width="144" height="144" xmlns="http://www.w3.org/2000/svg" fill="white"><path fill-rule="evenodd" clip-rule="evenodd" d="M79.06 37H64.94L62.52 49.115L52.24 42.265L42.26 52.24L49.11 62.52L37 64.94V79.06L49.115 81.48L42.265 91.76L52.24 101.74L62.52 94.89L64.94 107H75.355C73.5822 105.5656 72.0364 103.8714 70.77 101.975H69.06L67.62 94.77C67.4872 94.2178 67.3754 93.6607 67.285 93.1L66.705 90.185L62.885 88.605L52.885 95.275L48.725 91.12L55.4 81.115L53.82 77.295L42.03 74.94V69.06L53.82 66.705L55.4 62.885L48.73 52.885L52.885 48.725L62.885 55.4L66.705 53.82L69.06 42.03H74.94L77.295 53.82L81.115 55.4L91.115 48.73L95.275 52.885L88.605 62.89L90.185 66.71L93.095 67.29C93.66 67.38 94.22 67.49 94.77 67.625L101.975 69.065V70.775C103.875 72.045 105.57 73.59 107 75.36V64.94L94.89 62.52L101.74 52.24L91.76 42.26L81.48 49.11L79.06 37ZM72 62C76.1781 61.9984 79.9168 64.5946 81.375 68.51C79.7898 69.1242 78.2799 69.9177 76.875 70.875C76.0058 67.1254 71.4035 65.7229 68.5909 68.3505C65.7783 70.9781 66.8648 75.665 70.5466 76.787C70.6551 76.8201 70.7646 76.8494 70.875 76.875C69.9177 78.2799 69.1242 79.7898 68.51 81.375C61.2931 78.6962 59.6824 69.2095 65.6108 64.2989C67.4072 62.8108 69.6673 61.9976 72 62ZM78.4 75.975C88.6464 67.229 104.5182 72.8547 106.9693 86.1014C108.151 92.4874 105.6989 99.0027 100.6 103.025C90.0233 111.3685 74.3807 105.1336 72.4433 91.8022C71.5789 85.8535 73.828 79.8776 78.4 75.975ZM77 87V92H102V87H77Z"></path></svg>