<svg width="144" height="144" xmlns="http://www.w3.org/2000/svg" fill="white"><path d="M39.3989 39.3985C38.5114 40.2861 38.4307 41.6749 39.1569 42.6536L39.3989 42.934L52.8475 56.3826C46.4409 60.8808 41.6526 67.5993 39.663 75.5476C39.3277 76.8869 40.1417 78.2446 41.481 78.5799C42.8205 78.9149 44.178 78.1012 44.5133 76.7616C46.2782 69.7113 50.6371 63.7978 56.4472 59.9813L62.4793 66.0139C60.1209 68.4189 58.6667 71.7139 58.6667 75.3483C58.6667 82.712 64.6362 88.6815 72 88.6815C75.6347 88.6815 78.9294 87.227 81.3347 84.869L101.0655 104.6005C102.042 105.577 103.6245 105.577 104.601 104.6005C105.4885 103.713 105.5695 102.3245 104.843 101.3455L104.601 101.065L84.2225 80.6846L84.2265 80.6796L80.2264 76.6866L70.66 67.1223L70.6667 67.1196L61.0626 57.5257L61.0667 57.5196L57.2891 53.7512L42.9345 39.3985C41.9582 38.4222 40.3752 38.4222 39.3989 39.3985ZM66.0137 69.5513L77.7974 81.3349C76.2974 82.7875 74.253 83.6815 72 83.6815C67.3977 83.6815 63.6667 79.9506 63.6667 75.3483C63.6667 73.0952 64.5608 71.0509 66.0137 69.5513ZM72 50.3329C68.6657 50.3329 65.4304 50.8265 62.3703 51.7496L66.4937 55.8702C68.2797 55.5173 70.1214 55.3329 72 55.3329C85.077 55.3329 96.3665 64.2671 99.4905 76.7769C99.825 78.1163 101.182 78.9309 102.5215 78.5966C103.8615 78.2619 104.676 76.9049 104.3415 75.5653C100.6645 60.842 87.385 50.3329 72 50.3329ZM72.649 62.0305L85.32 74.6996C84.9805 67.8433 79.4907 62.3584 72.649 62.0305Z"></path></svg>