<svg width="144" height="144" xmlns="http://www.w3.org/2000/svg" fill="white"><path d="M71.9997 62.0158C79.3633 62.0158 85.333 67.9854 85.333 75.3491C85.333 82.713 79.3633 88.6825 71.9997 88.6825C64.6358 88.6825 58.6662 82.713 58.6662 75.3491C58.6662 67.9854 64.6358 62.0158 71.9997 62.0158ZM71.9997 67.0158C67.3973 67.0158 63.6662 70.7467 63.6662 75.3491C63.6662 79.9514 67.3973 83.6825 71.9997 83.6825C76.602 83.6825 80.333 79.9514 80.333 75.3491C80.333 70.7467 76.602 67.0158 71.9997 67.0158ZM71.9997 50.3337C87.378 50.3337 100.6535 60.8338 104.3365 75.5484C104.672 76.8878 103.858 78.2454 102.5185 78.5808C101.179 78.9158 99.8215 78.102 99.4865 76.7624C96.3565 64.2603 85.0705 55.3338 71.9997 55.3338C58.9227 55.3338 47.6332 64.268 44.5091 76.7778C44.1745 78.1171 42.8174 78.9317 41.4779 78.5974C40.1383 78.2628 39.3236 76.9058 39.6581 75.5661C43.335 60.8428 56.6145 50.3337 71.9997 50.3337Z"></path></svg>