<svg width="144" height="144" xmlns="http://www.w3.org/2000/svg" fill="white"><path d="M69.745 82.39C72.045 83.3 74.145 84.51 76.035 86.015C77.925 87.515 79.54 89.265 80.885 91.245C83.6282 95.2403 85.1056 99.9686 85.125 104.815V107H80.75V104.81C80.7689 99.5864 78.688 94.5742 74.975 90.9C73.1708 89.1214 71.0492 87.6968 68.72 86.7C66.2993 85.6629 63.6935 85.1271 61.06 85.125C55.8364 85.1061 50.8242 87.187 47.15 90.9C45.372 92.7047 43.9474 94.8262 42.95 97.155C41.92 99.525 41.4 102.08 41.375 104.81V107H37V104.81C36.9872 99.9603 38.4676 95.2242 41.24 91.245C44.0015 87.261 47.8789 84.182 52.385 82.395C51.3613 81.6916 50.4292 80.8636 49.61 79.93C48.8006 79.011 48.1008 78.0008 47.525 76.92C46.9514 75.8401 46.5147 74.6929 46.225 73.505C45.9296 72.2949 45.7702 71.0555 45.75 69.81C45.75 67.695 46.15 65.71 46.95 63.865C48.5143 60.2096 51.4256 57.2965 55.08 55.73C58.8889 54.1086 63.1916 54.0959 67.01 55.695C70.6663 57.2605 73.5795 60.1737 75.145 63.83C76.4397 66.8745 76.7151 70.2561 75.93 73.47C75.63 74.655 75.19 75.795 74.6 76.89C74.0138 77.9738 73.3149 78.9928 72.515 79.93C71.715 80.865 70.79 81.68 69.745 82.39ZM61.06 80.75C62.565 80.75 63.98 80.465 65.3 79.9C67.9171 78.788 70.0002 76.7031 71.11 74.085C71.705 72.74 72 71.315 72 69.815C72.013 66.9223 70.853 64.1477 68.785 62.125C67.7726 61.1378 66.5925 60.3386 65.3 59.765C63.9663 59.1693 62.5206 58.8659 61.06 58.875C59.56 58.875 58.145 59.16 56.825 59.725C54.1934 60.8474 52.0974 62.9434 50.975 65.575C50.41 66.895 50.125 68.31 50.125 69.815C50.125 71.315 50.41 72.73 50.975 74.05C51.55 75.37 52.325 76.535 53.305 77.535C55.3545 79.606 58.1514 80.7648 61.065 80.75ZM107 37V72H98.25L85.125 85.125V72H80.75V67.625H89.5V74.565L96.44 67.625H102.625V41.375H58.875V49.235C58.1417 49.3277 57.4113 49.4427 56.685 49.58C55.9402 49.7214 55.2092 49.9272 54.5 50.195V37H107Z"></path></svg>