<svg width="144" height="144" xmlns="http://www.w3.org/2000/svg" fill="white"><path fill-rule="evenodd" clip-rule="evenodd" d="M101.25 54.2L84.85 37.7L83.1 37H44.5L42 39.5V67H47V42H77V59.5L79.5 62H97V67H102V56L101.25 54.2ZM82 57V42L97 57H82ZM44.5 72L42 74.5V104.5L44.5 107H99.5L102 104.5V74.5L99.5 72H44.5ZM97 97V102H47V77H97V97ZM57 92H55.4V97H52V82H57.3C61.05 82 62.95 83.8 62.95 87C62.9696 88.3764 62.3848 89.6922 61.35 90.6C60.1109 91.5659 58.5699 92.0618 57 92ZM56.7 84.75H55.4V89.4H56.7C58.5 89.4 59.4 88.6 59.4 87.05C59.4 85.5 58.5 84.75 56.7 84.75ZM77 94.9C78.4933 93.4292 79.2929 91.394 79.2 89.3C79.2 84.3 76.55 82 71.2 82H65.9V97H71.2C73.3363 97.1035 75.4251 96.3472 77 94.9ZM69.25 94.25V84.75H70.9C72.1889 84.6681 73.4546 85.1202 74.4 86C75.2564 86.8993 75.7079 88.1095 75.65 89.35C75.7249 90.668 75.2756 91.9621 74.4 92.95C73.475 93.8351 72.2291 94.3046 70.95 94.25H69.25ZM91.5 91.2H86.65V97H83.25V82H91.95V84.75H86.65V88.45H91.5V91.2Z"></path></svg>