<svg width="144" height="144" xmlns="http://www.w3.org/2000/svg" fill="white"><path fill-rule="evenodd" clip-rule="evenodd" d="M44.5 37H99.5L102 39.5V64.5L101.25 66.25L97 70.55V104.5L94.5 107H44.5L42 104.5V39.5L44.5 37ZM62 42H57V52H62V42ZM62 102H82V70.4L77.75 66.15L77 64.35V42H67V54.5L64.5 57H62V62H57V57H54.5L52 54.5V42H47V102H57V97H62V102ZM62 92V97H67V92H62ZM62 87V92H57V87H62ZM62 82H67V87H62V82ZM62 77V82H57V77H62ZM62 72H67V77H62V72ZM62 67V72H57V67H62ZM62 67H67V62H62V67ZM92.75 67.75L97 63.45V42H82V63.35L86.25 67.6L87 69.35V102H92V69.5L92.75 67.75Z"></path></svg>