<svg width="144" height="144" xmlns="http://www.w3.org/2000/svg" fill="white"><path fill-rule="evenodd" clip-rule="evenodd" d="M70.55 47H104.5L107.05 49.5V99.5L104.55 102H39.55L37.05 99.5V44.5L39.55 42H64.55L66.3 42.75L70.55 47ZM101.95 97V89.45L102 69.45V61.95H70.5L66.2 66.25L64.45 67H42V97H101.95ZM69.45 57H101.95L102 52.05H69.5L67.7 51.3L63.45 47.05H42V62.05H63.4L67.7 57.75L69.45 57ZM80.9 77.35L74.1 70.5L77.8 67.05L88.9 78.15V81.7L77.45 92.75L73.95 89.15L80.95 82.4H74.1C71.5425 82.5152 69.1266 83.6068 67.35 85.45C65.6107 87.1808 64.6535 89.5467 64.7 92H59.7C59.6371 88.2552 61.0989 84.6456 63.75 82C66.3719 79.2364 69.9471 77.5739 73.75 77.35H80.9Z"></path></svg>