<svg width="144" height="144" xmlns="http://www.w3.org/2000/svg" fill="white"><path fill-rule="evenodd" clip-rule="evenodd" d="M84.85 37.7L101.25 54.2L102 56V104.5L99.5 107H44.5L42 104.5V39.5L44.5 37H83.1L84.85 37.7ZM47 42V102H97V57L82 42H47ZM54.3 62.26C54.3 68.695 56.59 71.91 61.17 71.91C63.455 71.91 65.205 71.045 66.42 69.31C67.65 67.57 68.26 65.075 68.26 61.815C68.26 55.27 66.025 52 61.55 52C59.195 52 57.395 52.875 56.15 54.63C54.915 56.38 54.3 58.92 54.3 62.26ZM58.61 62.15C58.61 57.54 59.525 55.235 61.36 55.235C63.08 55.235 63.94 57.475 63.94 61.95S63.06 68.665 61.305 68.665C59.505 68.665 58.605 66.495 58.605 62.15ZM74.545 71.58H86.72V68.22H82.76V52L74.435 53.68V57.115L78.535 56.23V68.22H74.545V71.58ZM67.86 96.58H55.68V93.22H59.67V81.23L55.57 82.115V78.68L63.9 77V93.22H67.86V96.575ZM73.035 86.925C73.035 93.36 75.325 96.575 79.91 96.575C82.195 96.575 83.945 95.71 85.16 93.975C86.385 92.235 87 89.74 87 86.48C87 79.935 84.76 76.665 80.285 76.665C77.935 76.665 76.135 77.54 74.885 79.295C73.655 81.045 73.035 83.585 73.035 86.925ZM77.345 86.815C77.345 82.205 78.265 79.9 80.095 79.9C81.815 79.9 82.675 82.14 82.675 86.615S81.8 93.33 80.045 93.33C78.245 93.33 77.345 91.16 77.345 86.815Z"></path></svg>