<svg width="144" height="144" xmlns="http://www.w3.org/2000/svg" fill="white"><path fill-rule="evenodd" clip-rule="evenodd" d="M42 42H72V59.5L74.5 62H92V67H97V56L96.25 54.2L79.85 37.7L78.1 37H39.5L37 39.5V104.5L39.5 107H57V102H42V42ZM77 42L92 57H77V42ZM104.5 72H64.5L62 74.5V104.5L64.5 107H104.5L107 104.5V74.5L104.5 72ZM102 77V97L93.85 89H90.3L84.5 94.85L73.85 84.2H70.3L67 87.5V77H102ZM88 98.35L92.05 94.3L99.75 102H91.65L88 98.35ZM67 102V94.55L72 89.55L84.6 102H67ZM94.5 84.5C96.4245 84.5 97.6273 82.4167 96.6651 80.75C96.2185 79.9765 95.3932 79.5 94.5 79.5C92.5755 79.5 91.3727 81.5833 92.3349 83.25C92.7815 84.0235 93.6068 84.5 94.5 84.5Z"></path></svg>