<svg width="144" height="144" xmlns="http://www.w3.org/2000/svg" fill="white"><path d="M77.65 107L75 103.15C78.0017 99.2226 77.3851 93.6292 73.6 90.45C70.5372 87.8903 68.4384 84.363 67.65 80.45C59.85 91.6 63.9 97.75 67.65 103.2L64.9 107C54.1016 104.9654 46.4604 95.2751 47 84.3S45.95 73.5 58.4 62.95C58.4 62.95 72.5 49.9 67.6 40.25L71.15 37C82.2347 44.7725 87.4159 58.5493 84.2 71.7C85.3857 70.5431 86.3364 69.1679 87 67.65L91.35 67.3C91.7 67.9 100.55 81.95 95.8 93.8C92.363 100.9792 85.5389 105.9422 77.65 107ZM67.65 72.25L72 74.2C71.53 78.8227 73.2289 83.4022 76.6 86.6C80.9859 89.7953 82.9694 95.3492 81.6 100.6C85.7761 99.1369 89.1722 96.0298 91 92C92.6976 85.9132 91.9625 79.4048 88.95 73.85C87.0147 76.9891 83.3996 78.6787 79.75 78.15L78 74.75C82.4776 65.0672 80.7248 53.6448 73.55 45.75C72.85 56.35 62 66.15 61.65 66.7C51.3 75.5 52 83.65 52 84C51.6024 90.2887 54.6456 96.2986 59.95 99.7C57 92.7 57 84.3 67.8 72.25H67.65Z"></path></svg>