<svg width="144" height="144" xmlns="http://www.w3.org/2000/svg" fill="white"><path fill-rule="evenodd" clip-rule="evenodd" d="M70.5498 47H104.5L107.05 49.5V67H102V61.95H70.4497L66.1498 66.2499L64.3999 67H41.95V69.45V89.45V97H67V102H39.5501L37.0501 99.5V64.5V44.5L39.5501 42H64.5501L66.3 42.7501L70.5498 47ZM69.45 57H101.95L102 52.0501H69.5L67.7001 51.2999L63.4502 47.0501H42V62.0501H63.4002L67.7001 57.7501L69.45 57Z"></path><rect x="8" y="8" width="1" height="6"></rect><rect x="10" y="8" width="1" height="6"></rect><rect x="12.0041" y="8.35193" width="1" height="6" transform="rotate(-20 12.0041 8.35193)"></rect></svg>