<svg width="144" height="144" xmlns="http://www.w3.org/2000/svg" fill="white"><path fill-rule="evenodd" clip-rule="evenodd" d="M70.55 47H104.5L107.05 49.5V72.035C105.4882 70.8556 103.7933 69.8638 102 69.08V61.95H70.45L66.15 66.25L64.4 67H41.95V97H67.5C67.85 98.74 68.385 100.41 69.08 102H39.55L37.05 99.5V44.5L39.55 42H64.55L66.3 42.75L70.55 47ZM69.45 57H101.95L102 52.05H69.5L67.7 51.3L63.45 47.05H42V62.05H63.4L67.7 57.75L69.45 57Z"></path><path fill-rule="evenodd" clip-rule="evenodd" d="M80.89 75.37C93.6469 66.7504 110.951 75.1729 112.0374 90.5305C112.5468 97.7328 109.1347 104.6506 103.11 108.63C90.2634 117.1153 73.0486 108.5118 72.1234 93.1436C71.6985 86.086 75.0315 79.3285 80.89 75.37ZM91.54 100.32L103.475 84.41L99.475 81.41L89.09 95.255L82.585 90.05L79.46 93.95L87.98 100.77L91.545 100.32Z"></path></svg>