<svg width="144" height="144" xmlns="http://www.w3.org/2000/svg" fill="white"><path d="M77.5 54L75 42H69L66.5 54L63 55.5L53 49L48.5 53L55 63L54 66.5L42 69V75L54 77.5L55.5 81.5L49 91.5L53 95.5L63 89L67 90.5L69 102H75L77.5 90L81.5 88.5L91.5 95L95.5 91L89 81L90.5 77L102 75V69L90 66.5L88.5 62.5L95 52.5L91 48.5L81 55L77.5 54ZM79 37L81.5 49L92 42.5L102 52.5L95 63L107 65V79L95 81.5L102 92L92 102L81.5 95L79 107H65L62.5 95L52 101.5L42 91.5L49 81L37 79V65L49 62.5L42.5 52L52.5 42L63 49L65 37H79ZM82 72C82 77.5 77.5 82 72 82S62 77.5 62 72S66.5 62 72 62S82 66.5 82 72ZM72 77C75 77 77 75 77 72S75 67 72 67S67 69 67 72S69 77 72 77Z"></path></svg>