<svg width="144" height="144" xmlns="http://www.w3.org/2000/svg" fill="white"><path d="M99.5 52H91.5C92 50 92 48 92 46C91.5 44.5 91 43 90 41.5C89 40 88 39 86.5 38.5C85 38 83.5 37 82 37C80.5 37 79 37 77.5 38C74 39 71.5 41.5 69.5 44.5C67.5 41.5 65 39 61.5 38C60 37.5 58.5 37 57 37C55.5 37 54 37.5 52.5 38.5C51 39 50 40 49 41.5C48 42.5 47.5 44.5 47 46C47 48 47 50 47.5 52H39.5L37 54.5V99.5L39.5 102H99.5L102 99.5V54.5L99.5 52ZM67 97H42V57H67V97ZM67 52H52V51C51.5 49.5 51.5 48.5 51.5 47C52 46 52 45 53 44.5C53.5 43.5 54.5 43 55.5 42.5C56 42 57 42 58 42S60 42 61 42.5C62.5 43 64 44 65 45.5C66 47 67 48.5 67 50.5V52ZM72 50.5C72 48.5 73 47 74 45.5C75 44 76.5 43 78 42.5C79 42 80 42 81 42C82 42 83 42 84 42.5C85 43 85.5 43.5 86.5 44.5C87 45 87 46 87.5 47C87.5 48.5 87.5 49.5 87 51C87 51.5 87 51.5 86.5 52H72V50.5ZM97 97H72V57H97V97Z"></path></svg>