<svg width="144" height="144" xmlns="http://www.w3.org/2000/svg" fill="white"><path fill-rule="evenodd" clip-rule="evenodd" d="M47 102H67V106.55L67.45 107H44.5L42 104.5V39.5L44.5 37H83.1L84.85 37.7L101.25 54.2L102 56V68.7C100.7054 66.7794 98.9969 65.1734 97 64V62H79.5L77 59.5V42H47V102ZM97 57L82 42V57H97ZM99.5 77V82H104.5L107 84.5V104.5L104.5 107H74.5L72 104.5V84.5L74.5 82H79.5V77C79.5 69.302 87.8333 64.4907 94.5 68.3397C97.594 70.1261 99.5 73.4273 99.5 77ZM85.965 73.465C85.0273 74.4025 84.5003 75.674 84.5 77V82H94.5V77C94.4992 73.151 90.332 70.7463 86.9991 72.6715C86.6212 72.8897 86.2736 73.1565 85.965 73.465ZM77 87V102H102V87H77Z"></path></svg>