<svg width="144" height="144" xmlns="http://www.w3.org/2000/svg" fill="white"><path d="M98.365 70.65C94.1365 66.4472 87.5348 65.7994 82.57 69.1C80.5155 70.4707 78.9131 72.4194 77.965 74.7C77.6733 75.409 77.4555 76.1463 77.315 76.9C66.7849 75.7445 58.4705 67.4301 57.315 56.9C58.0687 56.7595 58.806 56.5417 59.515 56.25C64.18 54.3099 67.2184 49.7523 67.215 44.7C67.2519 42.9852 66.9282 41.2818 66.265 39.7C65.0059 36.6394 62.5756 34.2091 59.515 32.95C57.9332 32.2868 56.2298 31.9631 54.515 32C49.4627 31.9966 44.9051 35.035 42.965 39.7C41.0433 44.3795 42.1065 49.7545 45.665 53.35C47.415 55.065 49.615 56.245 52.015 56.75V82.25C50.4223 82.5609 48.9087 83.1901 47.565 84.1C39.5767 89.4646 40.3913 101.4651 49.0313 105.7009C54.6463 108.4537 61.4316 106.6335 64.915 101.44C66.2844 99.3864 67.0151 96.9733 67.015 94.505C67.0519 92.7902 66.7282 91.0868 66.065 89.505C64.4866 85.6626 61.0891 82.8657 57.015 82.055V70.055C59.5983 73.706 63.0301 76.6745 67.015 78.705C70.2712 80.3722 73.8203 81.391 77.465 81.705C79.3796 91.1351 90.7847 94.9562 97.9941 88.5831C100.6683 86.219 102.2044 82.8244 102.215 79.255C102.0974 75.9971 100.7166 72.9128 98.365 70.655ZM57.365 87.55C58.745 88.135 59.925 89.11 60.765 90.35C63.9661 95.1548 60.7654 101.6231 55.0038 101.993C53.3631 102.0983 51.7332 101.6616 50.365 100.75C49.1225 99.9113 48.1499 98.7303 47.565 97.35C47.01 95.9876 46.8709 94.4914 47.165 93.05C47.7426 90.0632 50.0782 87.7276 53.065 87.15C54.5064 86.8559 56.0026 86.995 57.365 87.55ZM54.515 52C51.469 52.0051 48.7225 50.1675 47.565 47.35C47.01 45.9876 46.8709 44.4914 47.165 43.05C47.7426 40.0632 50.0782 37.7276 53.065 37.15C54.5064 36.8559 56.0026 36.995 57.365 37.55C62.7152 39.72 63.7099 46.868 59.1555 50.4164C57.8298 51.4493 56.1956 52.007 54.515 52ZM94.815 84.8C91.0296 88.5962 84.5991 87.3101 82.565 82.35C82.01 80.9876 81.8709 79.4914 82.165 78.05C82.7426 75.0632 85.0782 72.7276 88.065 72.15C89.5064 71.8559 91.0026 71.995 92.365 72.55C97.3298 74.5802 98.6171 81.0164 94.815 84.8Z"></path></svg>