<svg width="144" height="144" xmlns="http://www.w3.org/2000/svg" fill="white"><path fill-rule="evenodd" clip-rule="evenodd" d="M60.08 56.64C58.7143 58.6983 56.7665 60.3032 54.485 61.25C53.745 61.55 52.195 61.94 52.195 61.94V86.98C55.4216 87.6451 58.2573 89.5524 60.09 92.29C61.455 94.35 62.185 96.765 62.185 99.23C62.225 100.945 61.9 102.65 61.235 104.23C59.2833 108.9679 54.6231 112.0217 49.5 111.92C47.0297 111.928 44.6133 111.1985 42.56 109.825C38.3467 107.0276 36.2473 101.957 37.25 97C37.725 94.57 38.905 92.34 40.65 90.585C42.395 88.87 44.6 87.69 46.995 87.185V61.745C44.6021 61.2315 42.4028 60.053 40.65 58.345C38.9077 56.5896 37.7246 54.3573 37.25 51.93C36.2452 46.9751 38.3404 41.9051 42.55 39.105C44.606 37.7283 47.0256 36.9954 49.5 37C52.8803 36.9453 56.139 38.26 58.535 40.645C60.9292 43.0411 62.2451 46.3084 62.18 49.695C62.19 52.165 61.46 54.585 60.08 56.64ZM56.3 95.945C55.659 94.7479 54.7051 93.7474 53.54 93.05C52.3802 92.3467 51.0463 91.983 49.69 92C44.9602 91.9861 41.4067 96.3132 42.34 100.95C42.9232 103.9329 45.2567 106.2643 48.24 106.845C49.68 107.135 51.17 106.995 52.54 106.445C53.92 105.86 55.1 104.885 55.94 103.645C56.69 102.515 57.115 101.195 57.185 99.845C57.2459 98.4891 56.9402 97.1418 56.3 95.945ZM45.54 55.705C46.775 56.51 48.22 56.955 49.69 56.955C51.045 56.955 52.38 56.58 53.54 55.9C55.904 54.4699 57.3011 51.8655 57.185 49.105C57.1168 47.7491 56.6851 46.4366 55.935 45.305C55.0961 44.0627 53.9151 43.0901 52.535 42.505C51.1726 41.95 49.6764 41.8109 48.235 42.105C45.2528 42.6895 42.922 45.0223 42.34 48.005C42.05 49.445 42.19 50.935 42.74 52.305C43.325 53.685 44.3 54.865 45.54 55.705ZM97.185 87.185C99.585 87.67 101.795 88.86 103.53 90.585C105.86 92.935 107.175 96.12 107.155 99.415C107.165 101.88 106.435 104.3 105.055 106.355C99.7269 114.3631 87.7278 113.6004 83.4566 104.982C82.9664 103.9928 82.6094 102.943 82.395 101.86C81.4158 96.8995 83.5215 91.8375 87.73 89.035C89.065 88.12 90.585 87.495 92.175 87.185V59.445C92.1722 55.3048 88.8152 51.95 84.675 51.95H75.435L81.78 58.3L78.23 61.845L67.585 51.2V47.7L78.235 37.05L81.785 40.605L75.44 46.955H84.69C89.7538 46.9266 94.3277 49.9752 96.25 54.66C96.875 56.17 97.195 57.8 97.185 59.445V87.185ZM99.97 104.73C102.5097 102.2149 102.9101 98.2524 100.925 95.28C100.0852 94.0397 98.9043 93.069 97.525 92.485C96.1626 91.93 94.6664 91.7909 93.225 92.085C90.2421 92.6682 87.9107 95.0017 87.33 97.985C87.0359 99.4264 87.175 100.9226 87.73 102.285C89.7507 107.2549 96.192 108.5442 99.97 104.735Z"></path></svg>