<svg width="144" height="144" xmlns="http://www.w3.org/2000/svg" fill="white"><path fill-rule="evenodd" clip-rule="evenodd" d="M60.0797 56.6385C58.7152 58.695 56.766 60.3031 54.4853 61.2485C53.7446 61.5507 52.1949 61.9405 52.1949 61.9405V86.979C52.9843 87.135 53.7543 87.369 54.495 87.681C56.7757 88.636 58.7152 90.2345 60.0895 92.291C61.454 94.3475 62.185 96.7645 62.185 99.2305C62.2239 100.9455 61.9023 102.6515 61.2395 104.23C60.6158 105.741 59.6996 107.115 58.5398 108.275C57.3897 109.435 56.0057 110.351 54.495 110.9745C52.9161 111.6375 51.2104 111.959 49.4951 111.92C47.0293 111.93 44.6122 111.199 42.5557 109.8245C40.4992 108.46 38.891 106.511 37.9456 104.23C37.0099 101.94 36.7663 99.425 37.2439 96.9985C37.7214 94.5715 38.9008 92.3395 40.6454 90.585C42.39 88.87 44.5927 87.6905 46.9903 87.1835V61.7456C44.6024 61.229 42.3997 60.0595 40.6454 58.3441C38.9008 56.5897 37.7214 54.3578 37.2439 51.9309C36.7565 49.5041 37.0002 46.9895 37.9456 44.6991C38.891 42.4184 40.4992 40.4691 42.5557 39.1046C44.6024 37.7304 47.0195 36.9994 49.4951 36.9994C51.2007 36.9702 52.9064 37.2918 54.4853 37.9448C55.996 38.5686 57.3702 39.4848 58.5301 40.6445C59.6899 41.8044 60.606 43.1884 61.2298 44.6991C61.8926 46.278 62.2142 47.9836 62.1752 49.699C62.185 52.1648 61.454 54.582 60.0797 56.6385ZM56.2981 95.946C55.6549 94.747 54.6997 93.743 53.5399 93.051C52.3801 92.3495 51.0448 91.979 49.69 91.9985C48.2086 91.9985 46.7661 92.4275 45.5381 93.246C44.3003 94.084 43.3256 95.2635 42.7408 96.6475C42.1853 98.012 42.0489 99.503 42.3412 100.9455C42.6239 102.398 43.3354 103.743 44.388 104.7955C45.4406 105.848 46.7759 106.5595 48.2378 106.8425C49.6803 107.1345 51.1715 106.998 52.536 106.4425C53.92 105.858 55.0993 104.883 55.9375 103.6455C56.688 102.515 57.1168 101.199 57.185 99.8445C57.2435 98.4895 56.9414 97.1445 56.2981 95.946ZM45.5381 55.7028C46.7759 56.5118 48.2183 56.9503 49.69 56.9503C51.0448 56.9503 52.3801 56.58 53.5399 55.8977C54.6997 55.196 55.6549 54.2019 56.2981 53.003C56.9414 51.8042 57.2533 50.4592 57.185 49.1045C57.1168 47.7497 56.688 46.4339 55.9375 45.3034C55.0993 44.0656 53.92 43.0909 52.536 42.5061C51.1715 41.9506 49.6803 41.8141 48.2378 42.1065C46.7856 42.3892 45.4406 43.1007 44.388 44.1533C43.3354 45.2059 42.6239 46.5412 42.3412 48.0031C42.0489 49.4456 42.1853 50.9368 42.7408 52.3012C43.3256 53.6853 44.3003 54.8646 45.5381 55.7028ZM97.184 87.184C99.582 87.671 101.794 88.86 103.529 90.5855C105.8585 92.934 107.174 96.1215 107.1545 99.4155C107.1645 101.8815 106.4335 104.2985 105.0595 106.355C103.695 108.4115 101.7455 110.0195 99.465 110.965C97.184 111.92 94.66 112.1735 92.233 111.696C89.806 111.2185 87.574 110.0295 85.82 108.275C84.075 106.5205 82.8765 104.289 82.399 101.862C81.9213 99.435 82.1745 96.9205 83.13 94.63C84.0945 92.369 85.693 90.4195 87.73 89.0355C89.0655 88.1195 90.586 87.4955 92.1745 87.184V69.4455H97.184V87.184ZM99.9715 104.7275C101.1995 103.509 101.96 101.901 102.1355 100.176C102.311 98.4605 101.882 96.7255 100.927 95.283C100.0885 94.0455 98.9095 93.0705 97.5255 92.486C96.161 91.9305 94.6695 91.794 93.227 92.0865C91.775 92.369 90.43 93.0805 89.3775 94.133C88.3245 95.1855 87.613 96.521 87.3305 97.983C87.038 99.4255 87.1745 100.9165 87.73 102.281C88.315 103.665 89.2895 104.8445 90.5275 105.6825C91.97 106.6375 93.695 107.0665 95.42 106.891C97.1355 106.7155 98.7535 105.9555 99.9715 104.7275Z"></path><path fill-rule="evenodd" clip-rule="evenodd" d="M90.438 49.0018L82 57.44L85.5355 60.9755L93.9735 52.5374L102.412 60.9755L105.9475 57.44L97.5095 49.0018L105.9475 40.5636L102.412 37.0281L93.9735 45.4663L85.5355 37.0281L82 40.5636L90.438 49.0018Z"></path></svg>