<svg width="144" height="144" xmlns="http://www.w3.org/2000/svg" fill="white"><path fill-rule="evenodd" clip-rule="evenodd" d="M68.945 96.95L62.595 90.6L65.945 87.1L76.595 97.75V101.25L65.945 111.9L62.395 108.35L68.745 102H59.495C52.5799 102.0278 46.9672 96.4151 46.995 89.5V61.75C44.5994 61.24 42.3975 60.061 40.645 58.35C37.0865 54.7545 36.0233 49.3795 37.945 44.7C39.8851 40.035 44.4427 36.9966 49.495 37C51.2098 36.9631 52.9132 37.2868 54.495 37.95C57.5556 39.2091 59.9859 41.6394 61.245 44.7C61.91 46.285 62.23 47.99 62.195 49.7C62.1962 55.6409 58.0158 60.7618 52.195 61.95V89.45C52.195 93.5921 55.5529 96.95 59.695 96.95H68.945ZM45.545 55.7C50.3498 58.9011 56.8181 55.7004 57.188 49.9388C57.2933 48.2981 56.8566 46.6682 55.945 45.3C55.1063 44.0575 53.9253 43.0849 52.545 42.5C51.1826 41.945 49.6864 41.8059 48.245 42.1C45.2582 42.6776 42.9226 45.0132 42.345 48C42.0509 49.4414 42.19 50.9376 42.745 52.3C43.33 53.685 44.3 54.865 45.545 55.7ZM97.195 87.2C99.595 87.69 101.805 88.875 103.545 90.6C107.7478 94.8285 108.3956 101.4302 105.095 106.395C99.735 114.3864 87.734 113.5787 83.4932 104.9411C80.7372 99.3277 82.5535 92.5413 87.745 89.055C89.09 88.145 90.6 87.515 92.195 87.205V59.45C92.195 55.3079 88.8371 51.95 84.695 51.95H75.445L81.795 58.3L78.245 61.85L67.595 51.2V47.7L78.245 37.05L81.795 40.6L75.445 46.95H84.695C91.6101 46.9222 97.2228 52.5349 97.195 59.45V87.2ZM95.44 106.915C101.0604 106.351 104.0637 100.0114 100.94 95.305C100.1013 94.0625 98.9203 93.0899 97.54 92.505C96.1791 91.951 94.6848 91.8119 93.245 92.105C90.2582 92.6826 87.9226 95.0182 87.345 98.005C87.0509 99.4464 87.19 100.9426 87.745 102.305C89.0071 105.3753 92.1374 107.2506 95.44 106.915Z"></path></svg>