<svg width="144" height="144" xmlns="http://www.w3.org/2000/svg" fill="white"><path d="M54.4853 61.2485C56.766 60.3031 58.7152 58.695 60.0797 56.6385C61.454 54.582 62.185 52.1648 62.1752 49.699C62.2142 47.9836 61.8926 46.278 61.2298 44.6991C60.606 43.1884 59.6899 41.8044 58.5301 40.6445C57.3702 39.4848 55.996 38.5686 54.4853 37.9448C52.9064 37.2918 51.2007 36.9702 49.4951 36.9994C47.0195 36.9994 44.6024 37.7304 42.5557 39.1046C40.4992 40.4691 38.891 42.4184 37.9456 44.6991C37.0002 46.9895 36.7565 49.5041 37.2439 51.9309C37.7214 54.3578 38.9008 56.5897 40.6454 58.3441C42.3997 60.0595 44.6024 61.229 46.9903 61.7456V87.1835C44.5927 87.6905 42.39 88.87 40.6454 90.585C38.9008 92.3395 37.7214 94.5715 37.2439 96.9985C36.7663 99.425 37.0099 101.94 37.9456 104.23C38.891 106.511 40.4992 108.46 42.5557 109.8245C44.6122 111.199 47.0293 111.93 49.4951 111.92C51.2104 111.959 52.9161 111.6375 54.495 110.9745C56.0057 110.351 57.3897 109.435 58.5398 108.275C59.6996 107.115 60.6158 105.741 61.2395 104.23C61.9023 102.6515 62.2239 100.9455 62.185 99.2305C62.185 96.7645 61.454 94.3475 60.0895 92.291C58.7152 90.2345 56.7757 88.636 54.495 87.681C53.7543 87.369 52.9843 87.135 52.1949 86.979V61.9405C52.1949 61.9405 53.7446 61.5507 54.4853 61.2485ZM53.5399 93.051C54.6997 93.743 55.6549 94.747 56.2981 95.946C56.9414 97.1445 57.2435 98.4895 57.185 99.8445C57.1168 101.199 56.688 102.515 55.9375 103.6455C55.0993 104.883 53.92 105.858 52.536 106.4425C51.1715 106.998 49.6803 107.1345 48.2378 106.8425C46.7759 106.5595 45.4406 105.848 44.388 104.7955C43.3354 103.743 42.6239 102.398 42.3412 100.9455C42.0489 99.503 42.1853 98.012 42.7408 96.6475C43.3256 95.2635 44.3003 94.084 45.5381 93.246C46.7661 92.4275 48.2086 91.9985 49.69 91.9985C51.0448 91.979 52.3801 92.3495 53.5399 93.051ZM49.69 56.9503C48.2183 56.9503 46.7759 56.5118 45.5381 55.7028C44.3003 54.8646 43.3256 53.6853 42.7408 52.3012C42.1853 50.9368 42.0489 49.4456 42.3412 48.0031C42.6239 46.5412 43.3354 45.2059 44.388 44.1533C45.4406 43.1007 46.7856 42.3892 48.2378 42.1065C49.6803 41.8141 51.1715 41.9506 52.536 42.5061C53.92 43.0909 55.0993 44.0656 55.9375 45.3034C56.688 46.4339 57.1168 47.7497 57.185 49.1045C57.2533 50.4592 56.9414 51.8042 56.2981 53.003C55.6549 54.2019 54.6997 55.196 53.5399 55.8977C52.3801 56.58 51.0448 56.9503 49.69 56.9503Z"></path><path fill-rule="evenodd" clip-rule="evenodd" d="M107.2715 99.5C107.2715 106.4035 101.675 112 94.7715 112C87.868 112 82.2715 106.4035 82.2715 99.5C82.2715 92.5965 87.868 87 94.7715 87C101.675 87 107.2715 92.5965 107.2715 99.5ZM94.7715 107C98.9135 107 102.2715 103.642 102.2715 99.5C102.2715 95.358 98.9135 92 94.7715 92C90.629 92 87.2715 95.358 87.2715 99.5C87.2715 103.642 90.629 107 94.7715 107Z"></path><circle cx="12.5543" cy="7.75073" r="1"></circle><circle cx="12.5543" cy="3.50146" r="1"></circle></svg>