<svg width="144" height="144" xmlns="http://www.w3.org/2000/svg" fill="white"><path d="M102.1167 49.5233C105.15 53.1633 106.6633 57.41 106.6633 62.2633C106.6633 79.8533 96.6567 85.01 87.2533 86.5267C88.4667 88.65 88.77 91.0767 88.77 93.5033V105.9367C88.77 107.4533 87.86 108.3633 86.6467 108.3633C85.2987 108.3822 84.2011 107.2846 84.22 105.9367V93.5033C84.5438 90.9265 83.6464 88.3463 81.7933 86.5267L83.31 82.5833C92.7133 81.37 102.42 78.3367 102.42 61.96C102.42 58.0167 100.9033 54.3767 98.1733 51.3433L97.5667 48.92C98.7202 46.0135 98.8262 42.7962 97.8667 39.82C96.3533 40.12 93.32 40.73 88.1667 44.37L86.3433 44.67C79.1792 42.8509 71.6741 42.8509 64.51 44.67L62.6867 44.37C57.2333 41.0333 54.2 40.1233 52.68 40.1233C51.77 43.1567 51.77 46.49 52.98 49.2233L52.3767 51.6467C49.3433 54.68 47.8267 58.6233 47.8267 62.2633C47.8267 78.3367 56.9267 81.6733 66.9333 82.8867L68.1467 86.83C66.3267 88.65 65.4167 91.0767 65.72 93.5033V106.24C65.7389 107.588 64.6413 108.6856 63.2933 108.6667C61.9454 108.6856 60.8478 107.588 60.8667 106.24V99.2667C50.86 101.39 46.9167 96.2333 43.8833 92.2933C42.3667 90.4733 41.1533 88.9567 39.6367 88.6533C39.3367 88.35 38.4233 87.1367 38.7267 85.9233C39.03 84.71 40.2433 83.8 41.46 84.4067C44.4933 85.0133 46.31 87.44 48.1267 89.5633C50.86 93.2033 53.59 96.5367 61.7767 94.72V93.5067C61.4767 91.08 62.08 88.6533 63.2933 86.53C54.1933 84.71 43.58 79.5533 43.58 62.2667C43.58 57.4133 45.0967 53.1667 48.13 49.5267C47.22 45.2833 47.5233 40.7333 49.04 37.0933L50.5567 35.88C51.1633 35.5767 55.41 34.6667 64.2 40.1233C71.4678 38.3036 79.0722 38.3036 86.34 40.1233C94.8367 34.36 99.3867 35.2667 99.9933 35.5733L101.51 36.7867C103.0267 41.0333 103.33 45.28 102.1167 49.5233Z"></path></svg>