<svg width="144" height="144" xmlns="http://www.w3.org/2000/svg" fill="white"><path d="M72 32C41.208 32 21.963 65.3333 37.359 92C44.5043 104.376 57.7094 112 72 112C102.792 112 122.037 78.6667 106.641 52C99.4957 39.624 86.2906 32 72 32ZM82.5433 104.61H82.2333C81.7627 104.6366 81.302 104.4677 80.96 104.1433C80.6441 103.8095 80.4759 103.3626 80.4933 102.9033V98.2167C80.5133 96.66 80.5267 95.0833 80.5267 93.4967C80.5212 92.3364 80.3518 91.1828 80.0233 90.07C79.7122 88.9451 79.0852 87.9329 78.2167 87.1533C80.54 86.929 82.8239 86.4012 85.01 85.5833C86.8541 84.8821 88.5221 83.7852 89.8967 82.37C91.2533 80.9467 92.2633 79.2267 92.8467 77.35C93.5563 75.0518 93.8938 72.6548 93.8467 70.25C93.8597 68.5709 93.5659 66.9036 92.98 65.33C92.3846 63.744 91.4843 62.29 90.33 61.05C90.5792 60.4246 90.7602 59.7742 90.87 59.11C90.98 58.4433 91.0367 57.77 91.0367 57.0967C91.0367 56.23 90.9367 55.3633 90.7367 54.52C90.555 53.655 90.3087 52.8049 90 51.9767C89.8821 51.9307 89.7565 51.9081 89.63 51.91H89.2633C88.4967 51.9167 87.7433 52.0433 87.0167 52.28C86.2162 52.5136 85.4332 52.8032 84.6733 53.1467C83.9177 53.4854 83.182 53.8671 82.47 54.29C81.7533 54.7133 81.12 55.12 80.56 55.4967C74.9524 53.9338 69.0242 53.9338 63.4167 55.4967C62.7913 55.0786 62.1555 54.6762 61.51 54.29C60.7879 53.8636 60.0397 53.4828 59.27 53.15C58.5122 52.7952 57.7262 52.5042 56.92 52.28C56.2077 52.0447 55.4635 51.9199 54.7133 51.91H54.3467C54.2213 51.9082 54.0967 51.9309 53.98 51.9767C53.6669 52.806 53.4107 53.6558 53.2133 54.52C53.0333 55.3667 52.9467 56.23 52.9433 57.0967C52.9433 57.77 53 58.4433 53.1133 59.11C53.2233 59.7733 53.4 60.4233 53.6467 61.05C52.4953 62.2916 51.5984 63.7468 51.0067 65.3333C50.4176 66.9064 50.1205 68.5737 50.13 70.2533C50.0834 72.6453 50.4118 75.0297 51.1033 77.32C51.7067 79.1967 52.7133 80.92 54.05 82.3733C55.4333 83.78 57.1 84.8733 58.9367 85.5867C61.1133 86.42 63.3933 86.9533 65.7133 87.1733C65.0656 87.7604 64.5517 88.4801 64.2067 89.2833C63.8784 90.0778 63.6543 90.9114 63.54 91.7633C62.3169 92.3489 60.9793 92.6563 59.6233 92.6633C58.364 92.7137 57.1212 92.3636 56.0733 91.6633C55.0681 90.9184 54.2169 89.9856 53.5667 88.9167C53.2757 88.4677 52.9503 88.0419 52.5933 87.6433C52.2168 87.2241 51.8016 86.8413 51.3533 86.5C50.9115 86.1698 50.4271 85.9007 49.9133 85.7C49.4078 85.4784 48.8619 85.3637 48.31 85.3633C48.1767 85.3667 48.0433 85.38 47.91 85.3967C47.7279 85.3961 47.5465 85.4185 47.37 85.4633C47.2149 85.5039 47.0682 85.5716 46.9367 85.6633C46.8149 85.7304 46.7386 85.8577 46.7367 85.9967C46.765 86.3214 46.9359 86.6169 47.2033 86.8033C47.5133 87.05 47.77 87.24 47.9767 87.3733L48.0767 87.4433C48.52 87.7867 48.9467 88.1567 49.35 88.5533C49.7233 88.88 50.06 89.25 50.35 89.6533C50.65 90.05 50.91 90.4733 51.12 90.9233C51.3633 91.37 51.62 91.8833 51.89 92.4667C52.5167 94.0467 53.63 95.3833 55.07 96.2833C56.58 97.0933 58.2733 97.4967 59.99 97.4533C60.57 97.4533 61.1533 97.42 61.73 97.3533C62.3033 97.26 62.8733 97.1633 63.4467 97.05V102.86C63.4906 103.8528 62.6615 104.6632 61.67 104.5967H61.4633C36.3475 96.483 29.4334 64.2232 49.018 46.5291C68.6026 28.835 99.9974 38.9771 105.5287 64.7849C109.2155 81.9872 99.2844 99.1885 82.5433 104.5967V104.6133Z"></path></svg>