<svg width="144" height="144" xmlns="http://www.w3.org/2000/svg" fill="white"><path fill-rule="evenodd" clip-rule="evenodd" d="M71.88 32C49.856 32.0028 32.0028 49.856 32 71.88C32 89.49 43.5 104.415 59.155 109.8C61.115 110.045 61.845 108.82 61.845 107.84V100.99C50.84 103.44 48.395 95.61 48.395 95.61C46.68 90.96 43.99 89.735 43.99 89.735C40.32 87.29 44.23 87.29 44.23 87.29C48.145 87.535 50.35 91.45 50.35 91.45C54.02 97.565 59.645 95.85 61.85 94.875C62.09 92.185 63.315 90.475 64.295 89.495C55.485 88.515 46.19 85.09 46.19 69.675C46.19 65.275 47.655 61.845 50.35 58.91C50.1 58.175 48.635 54.02 50.84 48.635C50.84 48.635 54.265 47.655 61.845 52.795C65.025 51.815 68.455 51.57 71.88 51.57S78.73 52.06 81.91 52.795C89.495 47.66 92.92 48.635 92.92 48.635C95.12 54.02 93.65 58.175 93.405 59.155C96.0995 62.0904 97.5853 65.9355 97.565 69.92C97.565 85.335 88.265 88.515 79.465 89.495C80.93 90.715 82.155 93.16 82.155 96.83V107.84C82.155 108.82 82.885 110.04 84.845 109.8C101.1072 104.3118 112.0412 89.0433 112 71.88C111.755 49.86 93.9 32 71.88 32Z"></path></svg>