<svg width="144" height="144" xmlns="http://www.w3.org/2000/svg" fill="white"><path fill-rule="evenodd" clip-rule="evenodd" d="M74.5 37C99.5185 37 115.1551 64.0833 102.6458 85.75C96.8403 95.8055 86.1111 102 74.5 102C49.4815 102 33.8449 74.9167 46.3542 53.25C52.1597 43.1945 62.8889 37 74.5 37ZM98.97 57C95.7632 50.765 90.3064 45.9821 83.705 43.62C85.925 47.82 87.53 52.32 88.47 57H98.97ZM101.88 71.975C101.96 71.1524 102.0001 70.3265 102 69.5C101.995 66.9627 101.6366 64.4384 100.935 62H89.225C89.385 63.655 89.5 65.32 89.5 67C89.4897 70.3593 89.1446 73.7092 88.47 77H100.935C101.41 75.355 101.725 73.675 101.885 71.975ZM84.205 71.975L84.235 71.72C84.4056 70.1524 84.4941 68.5769 84.5 67C84.4664 65.3276 84.3396 63.6583 84.12 62H64.88C64.6586 63.6581 64.5317 65.3275 64.5 67C64.5122 70.3665 64.903 73.7209 65.665 77H83.335C83.72 75.34 84.01 73.665 84.205 71.975ZM83.245 57C82.067 51.7118 79.941 46.6806 76.97 42.15C76.15 42.08 75.33 42 74.5 42C73.9792 42.0025 73.4587 42.0276 72.94 42.075L72.03 42.15L72 42.2C69.0446 46.7173 66.929 51.731 65.755 57H83.245ZM60.53 57C61.4891 52.3232 63.1157 47.8087 65.36 43.595C58.7299 45.949 53.2473 50.7432 50.03 57H60.53ZM48.065 62C47.3645 64.4386 47.006 66.9627 47 69.5C47.006 72.0373 47.3645 74.5614 48.065 77H60.53C59.8521 73.7097 59.5071 70.3594 59.5 67C59.5 65.32 59.615 63.655 59.775 62H48.065ZM61.835 82H50.035C53.8639 89.479 60.8937 94.8043 69.13 96.465C65.9299 92.0709 63.4661 87.1854 61.835 82ZM74.5 95.22C77.6972 91.2657 80.1964 86.7949 81.89 82H67.11C68.8037 86.7948 71.3029 91.2656 74.5 95.22ZM87.165 82C85.5338 87.1854 83.07 92.0708 79.87 96.465C88.1057 94.8029 95.135 89.478 98.965 82H87.165Z"></path></svg>