<svg width="144" height="144" xmlns="http://www.w3.org/2000/svg" fill="white"><path fill-rule="evenodd" clip-rule="evenodd" d="M62 61.57L72.3 51.27V47.73L61.575 37L58.04 40.535L58.255 40.75L59.505 42L64.505 47H49.505C39.8825 47 33.8684 57.4167 38.6797 65.75C40.9126 69.6175 45.0392 72 49.505 72H52V67H49.5C43.7265 67 40.1181 60.75 43.0048 55.75C44.3446 53.4295 46.8205 52 49.5 52H64.5L58.035 58.465L61.57 62L62 61.57ZM87 42H73.64L68.64 37H92L95.55 38.45L110.55 53.45L112 57V102L107 107H62L57 102V64.5L62 68.735V102H107V62H87V42ZM92 42V57H107L92 42Z"></path></svg>