<svg width="144" height="144" xmlns="http://www.w3.org/2000/svg" fill="white"><path fill-rule="evenodd" clip-rule="evenodd" d="M42.595 52L47 56.405L43.905 59.5L35.575 51.165V48.075L43.9 39.74L47 42.835L42.835 47H107V52H42.595ZM52 104.73V59.275L54.5 57H64.5L67 59.275V104.725L64.5 107H54.5L52 104.73ZM62 102.455V61.545H57V102.455H62ZM72 94.78V59.22L74.5 57H84.5L87 59.22V94.78L84.5 97H74.5L72 94.78ZM82 92.555V61.45H77V92.56H82ZM92 59.145V84.86L94.5 87H104.5L107 84.86V59.145L104.5 57H94.5L92 59.145ZM102 61.285V82.715H97V61.285H102Z"></path></svg>