<svg width="144" height="144" xmlns="http://www.w3.org/2000/svg" fill="white"><path fill-rule="evenodd" clip-rule="evenodd" d="M39.5 37H49.5V42H42V102H49.5V107H39.5L37 104.5V39.5L39.5 37ZM69.5 67H59.5L57 64.5V54.5L59.5 52H69.5L72 54.5V64.5L69.5 67ZM62 62H67V57H62V62ZM99.5 67H84.5L82 64.5V49.5L84.5 47H99.5L102 49.5V64.5L99.5 67ZM87 62H97V52H87V62ZM69.5 92H59.5L57 89.5V79.5L59.5 77H69.5L72 79.5V89.5L69.5 92ZM62 87H67V82H62V87ZM99.5 97H84.5L82 94.5V79.5L84.5 77H99.5L102 79.5V94.5L99.5 97ZM87 92H97V82H87V92ZM82 82H72V87H82V82ZM82 57H72V62H82V57Z"></path></svg>