<svg width="144" height="144" xmlns="http://www.w3.org/2000/svg" fill="white"><path d="M106.4 55.904C105.9965 54.3249 105.374 52.8101 104.55 51.4039C103.759 49.941 102.7465 48.6085 101.55 47.4537C99.815 45.7243 97.76 44.3491 95.5 43.404C90.951 41.5369 85.849 41.5369 81.3 43.404C79.1638 44.3082 77.2013 45.5771 75.5001 47.154L75.2501 47.4537L72.0001 50.7038L68.75 47.4537L68.5 47.154C66.7988 45.5771 64.8363 44.3082 62.7001 43.404C58.1509 41.5369 53.0492 41.5369 48.5 43.404C46.2399 44.3491 44.1853 45.7243 42.4502 47.4537C41.2526 48.6201 40.2257 49.9501 39.4001 51.4039C38.6129 52.822 38.0081 54.3341 37.6 55.904C37.1761 57.5361 36.9743 59.2179 37.0001 60.904C37.0027 62.4895 37.2042 64.0683 37.6 65.6037C38.0192 67.1539 38.6236 68.6481 39.4001 70.0538C40.2387 71.4988 41.2643 72.8271 42.4502 74.004L72.0001 103.554L101.55 74.004C102.7355 72.8391 103.746 71.5085 104.55 70.0538C105.3645 68.6606 105.987 67.1636 106.4 65.6037C106.796 64.0683 106.9975 62.4895 107 60.904C107.026 59.2179 106.824 57.5361 106.4 55.904Z"></path></svg>