<svg width="144" height="144" xmlns="http://www.w3.org/2000/svg" fill="white"><path d="M106.4 55.9C105.9966 54.3209 105.3738 52.8062 104.55 51.4C103.7587 49.9371 102.7468 48.6049 101.55 47.45C99.8149 45.7207 97.7601 44.3452 95.5 43.4C90.9508 41.5329 85.8492 41.5329 81.3 43.4C79.1638 44.3042 77.2012 45.5731 75.5 47.15L75.25 47.45L72 50.7L68.75 47.45L68.5 47.15C66.7988 45.5731 64.8362 44.3042 62.7 43.4C58.1508 41.5329 53.0492 41.5329 48.5 43.4C46.2399 44.3452 44.1851 45.7207 42.45 47.45C40.0768 49.7592 38.3969 52.6861 37.6 55.9C37.1761 57.5321 36.9743 59.2139 37 60.9C37 62.485 37.2 64.065 37.6 65.6C38.0192 67.1502 38.6235 68.6443 39.4 70.05C40.2386 71.495 41.2641 72.8232 42.45 74L72 103.55L101.55 74C102.735 72.835 103.75 71.5 104.55 70.05C106.174 67.2755 107.0203 64.1147 107 60.9C107.0259 59.2139 106.8241 57.5321 106.4 55.9ZM101.4 64.05C100.8011 66.3346 99.6112 68.4212 97.95 70.1L71.9 96.1L45.85 70.1C45.0011 69.2451 44.2621 68.2877 43.65 67.25C43.074 66.2234 42.6209 65.1326 42.3 64C42.0438 62.8676 41.9097 61.711 41.9 60.55C41.9068 59.3558 42.0409 58.1658 42.3 57C42.6115 55.8642 43.0651 54.7722 43.65 53.75C44.25 52.7 44.99 51.75 45.85 50.9C47.1345 49.6327 48.6435 48.6154 50.3 47.9C53.6381 46.5646 57.3619 46.5646 60.7 47.9C62.35 48.585 63.84 49.59 65.1 50.85L71.9 57.7L78.7 50.85C79.9591 49.5878 81.4541 48.5854 83.1 47.9C86.4381 46.5646 90.1619 46.5646 93.5 47.9C95.155 48.615 96.665 49.635 97.95 50.9C98.82 51.725 99.55 52.685 100.1 53.75C101.2581 55.7923 101.8614 58.1022 101.85 60.45C101.918 61.6581 101.8171 62.8698 101.55 64.05H101.4Z"></path></svg>