<svg width="144" height="144" xmlns="http://www.w3.org/2000/svg" fill="white"><path fill-rule="evenodd" clip-rule="evenodd" d="M99.535 93.62C109.3704 81.0896 109.504 63.4983 99.86 50.82C84.8849 31.1187 54.7514 32.7567 42 53.965V42H37V59.5L39.5 62H57V57H46.055C57.6338 36.9828 86.5398 37.0065 98.0858 57.0426C109.6318 77.0787 95.1583 102.1002 72.0335 102.0813C60.8152 102.0721 50.5368 95.8128 45.38 85.85L40.945 88.16C52.6831 110.7378 83.8272 113.6402 99.535 93.62ZM82.73 88.77L86.27 85.235L72 70.96V52H67V72L67.73 73.77L82.73 88.77Z"></path></svg>