<svg width="144" height="144" xmlns="http://www.w3.org/2000/svg" fill="white"><path fill-rule="evenodd" clip-rule="evenodd" d="M64.16 82H68.275V52H64.16V65.05H51.11V52H47V82H51.115V68.97H64.165V82ZM92.5 82H97L90.6 68.85C91.255 68.56 91.9 68.18 92.545 67.7C93.9008 66.6982 94.9207 65.3087 95.47 63.715C95.79 62.86 95.95 61.895 95.95 60.815C95.9628 59.8707 95.8244 58.9305 95.54 58.03C95.2885 57.2352 94.9176 56.4833 94.44 55.8C94.014 55.1554 93.4912 54.5803 92.89 54.095C91.8166 53.2056 90.5574 52.5683 89.205 52.23C88.6478 52.0857 88.0755 52.0085 87.5 52H75.2V82H79.32V69.59H86.655L92.5 82ZM89.095 65.4C88.626 65.5749 88.1305 65.6679 87.63 65.675H79.315V55.935H87.63C88.7054 55.9651 89.7314 56.3926 90.51 57.135C91.5328 58.0816 92.0916 59.4274 92.04 60.82C92.04 61.66 91.895 62.39 91.605 63.005C91.1163 64.1045 90.212 64.9656 89.09 65.4ZM97 92H47V97H97V92Z"></path></svg>