<svg width="144" height="144" xmlns="http://www.w3.org/2000/svg" fill="white"><path fill-rule="evenodd" clip-rule="evenodd" d="M74.4 52H94.4L96.9 54.5V64.65H99.5L102 67.15V72L99.5 74.5H96.9V89.5L94.4 92H78.8L66.3 105.8L62 104V92H49.5L47 88.8V74.5H44.5L42 72V67.15L44.5 64.65H47V53.8L49.65 52H69.65V46.3C68.0544 45.451 67.0412 43.8069 67 42C67 38.151 71.1667 35.7454 74.5 37.6699C76.047 38.563 77 40.2137 77 42C76.9165 43.7421 75.9312 45.3148 74.4 46.15V52ZM92 72V57H52V86.3L64.5 87H67V97.95L76 87.75L77.75 87H92V72ZM81.4 74.55C79.5278 76.4269 77.1461 77.7133 74.55 78.25V78.2C70.1531 79.0412 65.6245 77.6564 62.45 74.5L58.95 78.05C60.65 79.75 62.675 81.09 64.9 82C67.15 82.94 69.56 83.43 72 83.45C76.8338 83.4205 81.4641 81.5002 84.9 78.1L81.4 74.55ZM64.45 64.5H59.45V69.5H64.45V64.5ZM79.45 64.5H84.45V69.5H79.45V64.5Z"></path></svg>