<svg width="144" height="144" xmlns="http://www.w3.org/2000/svg" fill="white"><path fill-rule="evenodd" clip-rule="evenodd" d="M74.84 37.155C82.7964 37.9506 90.2178 41.525 95.8 47.25C108.3902 60.0399 109.3798 80.2408 98.1 94.2C87.7606 107.0519 69.7293 110.7086 55.2 102.9C48.1429 99.0334 42.6336 92.8532 39.6 85.4C36.5528 77.9085 36.1472 69.6027 38.45 61.85C40.7479 54.1275 45.6398 47.4342 52.3 42.9C58.9042 38.3946 66.8849 36.3604 74.84 37.155ZM77.2 101.4C83.9142 100.0382 89.9435 96.3781 94.25 91.05C103.9022 79.0541 103.0425 61.7313 92.25 50.75C82.3938 40.6889 66.747 39.1305 55.1 47.05C36.5788 59.8121 37.9288 87.5937 57.6 98.5C63.5916 101.7337 70.5287 102.7601 77.2 101.4ZM68.875 62H75.125V57H68.875V62ZM75.125 67V87H68.875V67H75.125Z"></path></svg>