<svg width="144" height="144" xmlns="http://www.w3.org/2000/svg" fill="white"><path fill-rule="evenodd" clip-rule="evenodd" d="M58.4 60.2778L42 67.0278L38.7 65.7278L32 49.5278L36.6 47.6278L40.65 57.3778C43.3688 50.5738 48.3135 44.8922 54.6772 41.2604C61.0409 37.6285 68.4477 36.2609 75.6887 37.3807C82.9295 38.5005 89.5775 42.0416 94.5465 47.4261C99.516 52.8105 102.5135 59.7204 103.05 67.0278H98.05C97.478 60.7842 94.782 54.9256 90.412 50.4297C86.0415 45.9339 80.2619 43.0728 74.0369 42.3239C67.812 41.5751 61.5186 42.9837 56.2069 46.3149C50.8952 49.646 46.8866 54.698 44.85 60.6278L56.45 55.6278L58.4 60.2778ZM102.7 73.6781L109.4 89.828L104.8 92.028L100.7 82.028C97.9595 88.859 92.979 94.555 86.5745 98.182C80.1706 101.809 72.7238 103.151 65.4564 101.9885C58.189 100.8255 51.5327 97.227 46.5799 91.783C41.6272 86.339 38.6723 79.3728 38.2001 72.0281H43.2001V69.5281C43.2141 75.9654 45.49 82.193 49.6301 87.1225C53.7702 92.052 59.511 95.3695 65.8492 96.495C72.1873 97.621 78.7194 96.4835 84.304 93.2815C89.8885 90.0795 94.17 85.0165 96.4 78.9781L85.15 83.628L83.2 79.028L99.45 72.2781L102.7 73.6781Z"></path><circle cx="7.74001" cy="7.53955" r="1"></circle></svg>