<svg width="144" height="144" xmlns="http://www.w3.org/2000/svg" fill="white"><path d="M69.5001 37C63.0723 37 56.7887 38.9061 51.4441 42.4773C46.0995 46.0485 41.9337 51.1243 39.4739 57.0629C37.0141 63.0015 36.3705 69.536 37.6245 75.8404C38.8785 82.1445 41.974 87.936 46.5191 92.481C51.0644 97.026 56.8554 100.1215 63.1598 101.3755C69.4641 102.6295 75.9987 101.986 81.9373 99.526C87.876 97.0665 92.9515 92.9005 96.523 87.556C100.094 82.2115 102 75.9279 102 69.5C102 60.8805 98.576 52.614 92.481 46.5191C86.386 40.4241 78.1196 37 69.5001 37ZM69.5001 97C64.0612 97 58.7442 95.3875 54.2218 92.3655C49.6995 89.344 46.1751 85.0485 44.0936 80.0237C42.0122 74.9987 41.4676 69.4695 42.5287 64.135C43.5898 58.8006 46.209 53.9008 50.055 50.0548C53.9009 46.2089 58.8007 43.5897 64.1352 42.5286C69.4696 41.4675 74.9989 42.0121 80.0238 44.0935C85.049 46.1749 89.344 49.6993 92.3655 54.2217C95.3875 58.7441 97 64.061 97 69.5C97 76.7935 94.1025 83.788 88.9455 88.945C83.788 94.1025 76.7936 97 69.5001 97Z"></path><circle cx="7.50002" cy="7.5" r="1"></circle></svg>