<svg width="144" height="144" xmlns="http://www.w3.org/2000/svg" fill="white"><path fill-rule="evenodd" clip-rule="evenodd" d="M95.662 78.0023L100.4175 79.5466C101.445 76.3828 102 73.0063 102 69.5C102 65.9938 101.445 62.6172 100.4175 59.4535L95.662 60.9977C96.529 63.6688 97 66.5245 97 69.5C97 72.4755 96.529 75.3312 95.662 78.0023ZM94.0105 57.0156L98.464 54.7421C95.348 48.6395 90.3605 43.6518 84.258 40.5362L81.9844 44.9894C87.149 47.6262 91.374 51.851 94.0105 57.0156ZM78.0023 43.3382L79.5466 38.5826C76.3828 37.5553 73.0063 37 69.5 37C65.9938 37 62.6172 37.5553 59.4535 38.5826L60.9977 43.3382C63.6688 42.4707 66.5245 42 69.5 42C72.4755 42 75.3312 42.4707 78.0023 43.3382ZM57.0156 44.9894L54.7421 40.5362C48.6395 43.6518 43.6518 48.6395 40.5362 54.7421L44.9894 57.0156C47.6262 51.851 51.851 47.6262 57.0156 44.9894ZM37 69.5C37 65.9938 37.5553 62.6172 38.5826 59.4535L43.3382 60.9977C42.4707 63.6688 42 66.5245 42 69.5C42 72.4755 42.4707 75.3312 43.3382 78.0023L38.5826 79.5466C37.5553 76.3828 37 73.0063 37 69.5ZM44.9894 81.9844L40.5362 84.258C43.6518 90.3605 48.6395 95.348 54.7421 98.464L57.0156 94.0105C51.851 91.374 47.6262 87.149 44.9894 81.9844ZM60.9977 95.662L59.4535 100.4175C62.6172 101.445 65.9938 102 69.5 102C73.0063 102 76.3828 101.445 79.5466 100.4175L78.0023 95.662C75.3312 96.529 72.4755 97 69.5 97C66.5245 97 63.6688 96.529 60.9977 95.662ZM81.9844 94.0105L84.258 98.464C90.3605 95.348 95.348 90.3605 98.464 84.258L94.0105 81.9844C91.374 87.149 87.149 91.374 81.9844 94.0105ZM69.5001 74.5C72.2615 74.5 74.5001 72.2614 74.5001 69.5C74.5001 66.7386 72.2615 64.5 69.5001 64.5C66.7387 64.5 64.5001 66.7386 64.5001 69.5C64.5001 72.2614 66.7387 74.5 69.5001 74.5Z"></path></svg>