<svg width="144" height="144" xmlns="http://www.w3.org/2000/svg" fill="white"><path d="M77.005 99.965L76.52 101.59H52L52.615 99.965C55.075 99.905 56.7 99.7 57.495 99.35C58.78 98.85 59.735 98.16 60.345 97.285C61.315 95.905 62.315 93.445 63.34 89.9L73.71 53.95C74.59 50.965 75.025 48.71 75.025 47.185C75.0475 46.4956 74.8477 45.8171 74.455 45.25C74.0103 44.679 73.3958 44.2641 72.7 44.065C71.935 43.77 70.43 43.625 68.17 43.625L68.7 42H91.725L91.245 43.625C89.37 43.595 87.975 43.8 87.07 44.24C85.8332 44.7571 84.7772 45.6287 84.035 46.745C83.365 47.83 82.485 50.23 81.4 53.955L71.07 89.905C70.135 93.21 69.67 95.32 69.67 96.23C69.67 96.96 69.84 97.59 70.195 98.12C70.575 98.62 71.16 99.01 71.95 99.305C72.77 99.57 74.455 99.79 77.005 99.965Z"></path></svg>