<svg width="144" height="144" xmlns="http://www.w3.org/2000/svg" fill="white"><path d="M91.55 103.1H52.3L49.8 100.6V67.3H42.75L40.35 65.4L37 52L38.65 49L59.95 42L63.15 43.6C63.4329 44.3635 63.7844 45.0998 64.2 45.8C64.555 46.315 64.96 46.8 65.4 47.25C66.24 48.095 67.245 48.76 68.35 49.2C70.6335 50.1755 73.2165 50.1755 75.5 49.2C76.6065 48.7588 77.6105 48.0951 78.45 47.25C78.9 46.775 79.315 46.275 79.7 45.75L80.45 44.3C80.5476 44.072 80.6311 43.8382 80.7 43.6L83.9 42L105.2 49.1L107 52L103.7 65.3L101.25 67.2H94.05V100.5L91.55 103.1ZM54.8 98.1H89.05V64.8L91.55 62.3H99.15L101.45 53.15L84.45 47.45C84.2881 47.8204 84.0869 48.1724 83.85 48.5C83.3 49.305 82.685 50.06 82 50.75C80.7032 52.0615 79.1559 53.0988 77.45 53.8C73.9021 55.3003 69.8979 55.3003 66.35 53.8C64.7257 53.0579 63.2513 52.0241 62 50.75C61.3061 50.0988 60.7009 49.3591 60.2 48.55L59.55 47.45L42.4 53.15L44.7 62.3H52.3L54.8 64.8V98.1Z"></path></svg>