<svg width="144" height="144" xmlns="http://www.w3.org/2000/svg" fill="white"><path fill-rule="evenodd" clip-rule="evenodd" d="M62 46.92V42H61.55C59.985 42 58.47 42.31 57.005 42.925C55.5469 43.5362 54.2285 44.4379 53.13 45.575C52.061 46.6494 51.2222 47.9305 50.665 49.34V49.345C50.169 50.6834 49.8366 52.0768 49.675 53.495V53.505C49.5328 54.9387 49.4927 56.3806 49.555 57.82C49.615 59.27 49.645 60.72 49.645 62.165C49.645 63.18 49.445 64.13 49.06 65.025V65.03C48.3262 66.7767 46.9602 68.182 45.235 68.965C44.3553 69.3492 43.4049 69.5451 42.445 69.54H42V74.46H42.45C43.425 74.46 44.35 74.66 45.23 75.065L45.235 75.07C46.125 75.46 46.88 75.99 47.51 76.66L47.52 76.67C48.17 77.32 48.685 78.095 49.055 78.995L49.06 79.005C49.45 79.905 49.645 80.845 49.645 81.835C49.645 83.285 49.615 84.735 49.555 86.18C49.495 87.66 49.535 89.105 49.675 90.53V90.535C49.84 91.95 50.17 93.325 50.66 94.655V94.66C51.19 96.025 52.015 97.28 53.13 98.425C54.245 99.575 55.54 100.46 57.005 101.075C58.47 101.69 59.985 102 61.555 102H62V97.08H61.55C60.55 97.08 59.615 96.89 58.735 96.505C57.8862 96.1084 57.113 95.567 56.45 94.905C55.8064 94.2198 55.284 93.4303 54.905 92.57C54.535 91.67 54.355 90.72 54.355 89.705C54.355 88.565 54.37 87.44 54.41 86.345C54.45 85.205 54.45 84.095 54.41 83.02C54.3924 81.9483 54.3005 80.879 54.135 79.82C53.9759 78.7755 53.694 77.7534 53.295 76.775C52.5168 74.8819 51.2441 73.2327 49.61 72C51.2459 70.768 52.5204 69.1187 53.3 67.225C53.7 66.265 53.975 65.26 54.14 64.215C54.305 63.165 54.395 62.1 54.415 61.015C54.455 59.915 54.455 58.805 54.415 57.685C54.375 56.565 54.355 55.435 54.355 54.295C54.3373 51.3662 56.06 48.7064 58.74 47.525C59.6229 47.1202 60.5837 46.9137 61.555 46.92H62ZM82 97.08V102H82.45C84.015 102 85.53 101.69 86.995 101.075C88.46 100.46 89.755 99.575 90.87 98.425C91.985 97.275 92.81 96.025 93.335 94.66V94.655C93.835 93.325 94.16 91.94 94.325 90.505V90.495C94.465 89.095 94.505 87.66 94.445 86.18C94.385 84.73 94.355 83.28 94.355 81.835C94.355 80.82 94.555 79.87 94.94 78.975V78.97C95.673 77.2228 97.0393 75.8172 98.765 75.035C99.6449 74.6514 100.5951 74.4555 101.555 74.46H102V69.54H101.55C100.57 69.54 99.645 69.34 98.765 68.935L98.76 68.93C97.9015 68.5601 97.1274 68.019 96.485 67.34L96.475 67.33C95.8143 66.6644 95.2925 65.8741 94.94 65.005V64.995C94.5493 64.1028 94.3483 63.139 94.35 62.165C94.35 60.715 94.38 59.265 94.44 57.82C94.5024 56.369 94.4623 54.9154 94.32 53.47V53.465C94.1579 52.0572 93.8272 50.6739 93.335 49.345V49.34C92.7763 47.9301 91.9358 46.649 90.865 45.575C89.7664 44.438 88.448 43.5364 86.99 42.925C85.551 42.3138 84.0034 41.9992 82.44 42H82V46.92H82.45C83.45 46.92 84.385 47.11 85.26 47.495C86.13 47.905 86.89 48.435 87.545 49.095C88.18 49.765 88.695 50.545 89.09 51.43C89.46 52.33 89.64 53.28 89.64 54.295C89.64 55.435 89.625 56.555 89.585 57.655C89.545 58.795 89.545 59.905 89.585 60.98C89.605 62.09 89.695 63.155 89.86 64.18C90.025 65.25 90.305 66.26 90.7 67.225C91.4798 69.1186 92.7543 70.7678 94.39 72C92.7543 73.2322 91.4798 74.8814 90.7 76.775C90.304 77.7423 90.022 78.7524 89.86 79.785C89.695 80.835 89.605 81.9 89.585 82.985C89.5446 84.0946 89.5446 85.2054 89.585 86.315C89.625 87.435 89.645 88.565 89.645 89.705C89.6614 92.6334 87.9391 95.2925 85.26 96.475C84.3771 96.8798 83.4163 97.0863 82.445 97.08H82Z"></path></svg>