<svg width="144" height="144" xmlns="http://www.w3.org/2000/svg" fill="white"><path fill-rule="evenodd" clip-rule="evenodd" d="M69.22 101.16C72.4092 103.3149 76.7353 101.2093 77.0068 97.3699C77.1342 95.5693 76.2812 93.8398 74.775 92.845C71.4961 90.8292 67.2646 93.1188 67.1583 96.9663C67.1126 98.6183 67.8862 100.1861 69.225 101.155ZM72 77C68.151 77 65.7454 72.8333 67.6699 69.5C68.563 67.953 70.2137 67 72 67C75.849 67 78.2546 71.1667 76.3301 74.5C75.437 76.047 73.7863 77 72 77ZM72 52C68.151 52 65.7454 47.8333 67.6699 44.5C68.563 42.953 70.2137 42 72 42C75.849 42 78.2546 46.1667 76.3301 49.5C75.437 51.047 73.7863 52 72 52Z"></path></svg>