<svg width="144" height="144" xmlns="http://www.w3.org/2000/svg" fill="white"><path fill-rule="evenodd" clip-rule="evenodd" d="M88.755 37.455C96.9721 39.1297 103.5903 45.2093 105.955 53.255C107.03 56.875 107.19 60.705 106.42 64.405C104.1279 74.8446 94.9229 82.3132 84.235 82.405C82.045 82.405 79.865 82.09 77.77 81.455L73.77 86.145L71.875 87.02H67V94.52L64.5 97.02H57V104.52L54.5 107.02H39.5L37 104.52V92.985L37.73 91.22L62.6 66.35C61.8942 64.0766 61.5566 61.705 61.6 59.325C61.7942 45.1337 74.8477 34.6183 88.755 37.45ZM95.345 73.455C98.486 70.9115 100.6702 67.3769 101.54 63.43L101.56 63.455C104.2507 50.9198 93.1472 39.766 80.6 42.4C72.5832 44.1793 66.8091 51.1907 66.6 59.4C66.55 61.68 66.95 63.94 67.795 66.05L67.245 68.765L42 94.02V102.02H52V94.52L54.5 92.02H62V84.52L64.5 82.02H70.725L75.105 76.94L77.91 76.24C79.9319 77.0301 82.0842 77.4338 84.255 77.43C88.2951 77.399 92.2051 75.9976 95.345 73.455ZM91.155 59.795C93.4116 56.6769 91.4464 52.2852 87.6178 51.8901C85.7065 51.6928 83.8513 52.6082 82.845 54.245C80.8292 57.5239 83.1188 61.7554 86.9663 61.8617C88.6183 61.9074 90.1861 61.1338 91.155 59.795Z"></path></svg>