<svg width="144" height="144" xmlns="http://www.w3.org/2000/svg" fill="white"><path d="M105.15 67L97 47H102V42H77V37H72V42H47V47H52L43.9 67H42V72H42.75C43.53 74.49 45.115 76.65 47.25 78.15C51.5747 81.286 57.4253 81.286 61.75 78.15C63.8868 76.6408 65.4819 74.4848 66.3 72H67V67H64.75L56.4 47H72V87H62L60.05 87.9L50.05 100.45L52 104.5H97L98.95 100.45L88.95 87.9L87 87H77V47H92.65L84.3 67H82V72H82.75C85.7423 81.0644 97.4249 83.4904 103.7788 76.3668C104.9094 75.0993 105.7676 73.6129 106.3 72H107V67H105.15ZM58.1 74.55C56.9973 75.1603 55.7602 75.4867 54.5 75.5C53.2547 75.4935 52.0321 75.1663 50.95 74.55C49.8466 73.9451 48.9169 73.0671 48.25 72H60.75C60.0887 73.0541 59.1788 73.9298 58.1 74.55ZM59.35 67H49.35L54.35 55L59.35 67ZM85.8 92L92 99.5H57L63.2 92H85.8ZM94.7 55.1L99.7 67.1H89.7L94.7 55.1ZM98.1 74.65C97.0068 75.2835 95.7634 75.6117 94.5 75.6C93.2516 75.6177 92.0227 75.2889 90.95 74.65C89.8449 74.0033 88.9173 73.0928 88.25 72H100.75C100.1302 73.1125 99.2125 74.0302 98.1 74.65Z"></path></svg>