<svg width="144" height="144" xmlns="http://www.w3.org/2000/svg" fill="white"><path fill-rule="evenodd" clip-rule="evenodd" d="M72.9268 37.4163L70.1353 37.4359L40.5898 57.6211L40.6076 61.7617L70.1531 81.5764L72.909 81.5956L103.3635 61.7809L103.381 57.6015L72.9268 37.4163ZM46.4599 59.6662L71.5668 42.5134L97.4455 59.666L71.5665 76.504L46.4599 59.6662ZM70.153 94.0765L40.9629 74.5H49.9397L71.5663 89.004L93.858 74.5H103.0265L99.028 77.1016C98.361 77.0344 97.6845 77 97 77C88.12 77 80.592 82.787 77.9811 90.7955L72.9089 94.0955L70.153 94.0765ZM77.0223 97.954L71.5663 101.504L49.9397 87H40.9629L70.153 106.5765L72.9089 106.5955L78.0057 103.2795C77.4483 101.5925 77.1094 99.806 77.0223 97.954Z"></path><path fill-rule="evenodd" clip-rule="evenodd" d="M88.6665 84.528C91.133 82.8795 94.0335 82 97 82C100.977 82.005 104.789 83.587 107.601 86.399C110.413 89.211 111.995 93.023 112 97C112 99.9665 111.1205 102.867 109.472 105.3335C107.824 107.8005 105.481 109.723 102.7405 110.858C99.9995 111.9935 96.9835 112.2905 94.0735 111.712C91.164 111.133 88.491 109.7045 86.3935 107.6065C84.2955 105.509 82.867 102.836 82.288 99.9265C81.7095 97.0165 82.0065 94.0005 83.142 91.2595C84.277 88.519 86.1995 86.176 88.6665 84.528ZM97.1575 103.613L106.1065 91.6815L102.1065 88.6815L94.705 98.5495L90.3275 95.0475L87.204 98.9515L93.596 104.065L97.1575 103.613Z"></path></svg>