<svg width="144" height="144" xmlns="http://www.w3.org/2000/svg" fill="white"><path fill-rule="evenodd" clip-rule="evenodd" d="M72.9268 37.4163L70.1353 37.4359L40.5898 57.6211L40.6076 61.7617L70.1531 81.5764L72.909 81.5956L103.3635 61.7809L103.381 57.6015L72.9268 37.4163ZM46.4599 59.6662L71.5668 42.5134L97.4455 59.666L71.5665 76.504L46.4599 59.6662ZM70.153 94.0765L40.9629 74.5H49.9397L71.5663 89.004L93.858 74.5H103.0265L99.028 77.1016C98.361 77.0344 97.6845 77 97 77C88.12 77 80.592 82.787 77.9811 90.7955L72.9089 94.0955L70.153 94.0765ZM77.0223 97.954L71.5663 101.504L49.9397 87H40.9629L70.153 106.5765L72.9089 106.5955L78.0057 103.2795C77.4483 101.5925 77.1094 99.806 77.0223 97.954Z"></path><circle cx="13" cy="13" r="3"></circle></svg>