<svg width="144" height="144" xmlns="http://www.w3.org/2000/svg" fill="white"><path fill-rule="evenodd" clip-rule="evenodd" d="M90.35 75.29C88.7117 76.8864 87.3872 78.7757 86.445 80.86C85.5404 82.9575 85.084 85.2209 85.105 87.505V95.505C85.0987 98.1147 83.5369 100.4693 81.135 101.49C80.3303 101.8318 79.4642 102.0053 78.59 102H70.56C68.8309 102.0144 67.1691 101.3313 65.95 100.105C64.7329 98.8835 64.0496 97.2294 64.05 95.505V87.505C64.05 85.11 63.59 82.9 62.68 80.86C61.7564 78.7714 60.439 76.8803 58.8 75.29C56.6863 73.2327 54.9798 70.7951 53.77 68.105C52.578 65.3941 51.9748 62.4612 52 59.5C51.9857 55.5083 53.0498 51.5869 55.08 48.15C56.065 46.47 57.24 44.95 58.605 43.58C59.9705 42.2241 61.5008 41.0448 63.16 40.07C64.85 39.09 66.66 38.33 68.58 37.8C70.5342 37.2613 72.5529 36.9921 74.58 37C78.5795 36.9881 82.5091 38.0482 85.96 40.07C89.3183 42.0145 92.1131 44.799 94.07 48.15C96.0988 51.5875 97.1628 55.5085 97.15 59.5C97.15 62.585 96.565 65.455 95.385 68.105C94.1751 70.795 92.4686 73.2327 90.355 75.29ZM80.115 84.5H69.045V95.505C69.045 95.91 69.185 96.255 69.495 96.565C69.7723 96.8562 70.158 97.0191 70.56 97.015H78.59C78.9922 97.0197 79.3781 96.8567 79.655 96.565C79.9469 96.2903 80.1102 95.9058 80.105 95.505V84.5Z"></path></svg>