<svg width="144" height="144" xmlns="http://www.w3.org/2000/svg" fill="white"><path d="M92 77C80.453 77 73.2361 89.5 79.0096 99.5C81.6891 104.141 86.641 107 92 107C103.547 107 110.7639 94.5 104.9904 84.5C102.3109 79.859 97.359 77 92 77ZM98.55 102L92 97L85.5 102L88 94.35L82 90.2H89.35L92 82L94.7 90.2H102L96 94.35L98.55 102Z"></path><path fill-rule="evenodd" clip-rule="evenodd" d="M87.85 72.425C81.3279 73.7835 75.9186 78.3162 73.44 84.5H64.045V95.505C64.045 95.91 64.185 96.255 64.495 96.565C64.7723 96.8562 65.158 97.0191 65.56 97.015H72.625C73.07 98.755 73.74 100.405 74.605 101.925C74.275 101.975 73.935 102 73.59 102H65.56C63.8309 102.0144 62.1691 101.3313 60.95 100.105C59.7329 98.8835 59.0496 97.2294 59.05 95.505V87.505C59.05 85.11 58.59 82.9 57.68 80.86C56.7564 78.7714 55.439 76.8803 53.8 75.29C51.6863 73.2327 49.9798 70.7951 48.77 68.105C47.578 65.3941 46.9748 62.4612 47 59.5C46.9857 55.5083 48.0498 51.5869 50.08 48.15C51.065 46.47 52.24 44.95 53.605 43.58C54.9705 42.2241 56.5008 41.0448 58.16 40.07C59.85 39.09 61.66 38.33 63.58 37.8C65.5342 37.2613 67.5529 36.9921 69.58 37C73.5795 36.9881 77.5091 38.0482 80.96 40.07C84.3183 42.0145 87.1131 44.799 89.07 48.15C91.0988 51.5875 92.1628 55.5085 92.15 59.5C92.15 62.585 91.565 65.455 90.385 68.105C89.7036 69.6339 88.8551 71.0828 87.855 72.425Z"></path></svg>