<svg width="144" height="144" xmlns="http://www.w3.org/2000/svg" fill="white"><path fill-rule="evenodd" clip-rule="evenodd" d="M54 47H69.425C78.8138 47 86.425 54.6112 86.425 64V65.025C86.4112 74.4041 78.8041 82 69.425 82H67V77H69.425C76.0232 76.9863 81.3725 71.6481 81.4 65.05V64C81.4001 57.3921 76.0579 52.0275 69.45 52H54C54 42.7624 56 48.9889 48 53.6077C44.2872 55.7513 42 59.7128 42 64V65.025C42.0155 70.8636 46.241 75.8391 52 76.8V81.8C43.4944 80.7926 37.0665 73.6148 37 65.05V64C37.0138 54.6169 44.6169 47.0138 54 47ZM92 67.2V62.2C100.5244 63.2098 106.9586 70.4161 107 79V80.025C106.9725 89.3886 99.3886 96.9725 90.025 97H74.575C65.2154 96.9863 57.6275 89.4096 57.6 80.05V79C57.6 69.6209 65.1959 62.0138 74.575 62H77V67H74.575C67.9573 67.0138 62.6 72.3823 62.6 79V80.025C62.6138 86.6329 67.9671 91.9862 74.575 92H90.025C96.6232 91.9863 101.9725 86.6481 102 80.05V79C101.9967 73.152 97.7683 68.1625 92 67.2Z"></path></svg>