<svg width="144" height="144" xmlns="http://www.w3.org/2000/svg" fill="white"><path fill-rule="evenodd" clip-rule="evenodd" d="M43.435 43.63L45.46 42H48.845V57H45.305V45.96L43.435 47.365V43.63ZM57 47H107V52H57V47ZM57 67H107V72H57V67ZM107 87H57V92H107V87ZM50.71 70.13L50.855 69.935L51.18 69.485C51.707 68.7464 51.9806 67.8571 51.96 66.95C51.96 66.35 51.86 65.75 51.675 65.18C51.2903 63.9757 50.3883 63.0058 49.215 62.535C48.498 62.2441 47.7285 62.1045 46.955 62.125C46.1693 62.1038 45.3882 62.2522 44.665 62.56C43.5314 63.0492 42.6602 63.9986 42.27 65.17C42.0951 65.6907 42.004 66.2358 42 66.785V67.035H46.05V66.785C46.0525 66.5071 46.1321 66.2353 46.28 66C46.3532 65.8895 46.4507 65.7971 46.565 65.73C46.8353 65.5928 47.1547 65.5928 47.425 65.73C47.5393 65.8082 47.6349 65.9106 47.705 66.03C47.7808 66.1545 47.8334 66.2917 47.86 66.435C47.9649 66.9248 47.9015 67.4357 47.68 67.885C47.5057 68.2045 47.305 68.5089 47.08 68.795L42.08 74.485L42.02 74.55V77.25H51.96V73.75H47.46L50.71 70.13ZM50.525 89.215C50.755 89.375 50.955 89.565 51.125 89.785C51.7177 90.5751 52.0133 91.5487 51.96 92.535C51.96 93.07 51.875 93.6 51.71 94.105C51.3291 95.2703 50.4299 96.1935 49.275 96.605C48.5074 96.8879 47.6928 97.022 46.875 97C46.3 97 45.725 96.92 45.17 96.755C44.7112 96.617 44.2761 96.4096 43.88 96.14C43.5286 95.8988 43.2209 95.5995 42.97 95.255C42.7409 94.9437 42.5464 94.6084 42.39 94.255C42.146 93.6627 42.0138 93.0304 42 92.39V92.145H46.07V92.39C46.07 92.525 46.085 92.665 46.115 92.8C46.1405 92.9319 46.1915 93.0576 46.265 93.17C46.3283 93.2789 46.4199 93.3688 46.53 93.43C46.7752 93.5499 47.0588 93.5644 47.315 93.47C47.4213 93.426 47.5169 93.3595 47.595 93.275C47.689 93.165 47.7603 93.0376 47.805 92.9C47.8654 92.6956 47.894 92.4831 47.89 92.27C47.9002 91.994 47.863 91.7184 47.78 91.455C47.7283 91.3031 47.6409 91.166 47.525 91.055C47.4383 90.9829 47.3353 90.9331 47.225 90.91C47.0977 90.8891 46.969 90.8774 46.84 90.875H46.035V87.65H46.875C46.9921 87.6485 47.1083 87.63 47.22 87.595C47.3398 87.5636 47.4509 87.5055 47.545 87.425C47.6505 87.334 47.7328 87.2192 47.785 87.09C47.8634 86.8983 47.8992 86.6919 47.89 86.485C47.8939 86.3149 47.8668 86.1454 47.81 85.985C47.7282 85.7572 47.5511 85.5764 47.325 85.49C47.071 85.3955 46.7895 85.4081 46.545 85.525C46.4338 85.5905 46.3395 85.6813 46.27 85.79C46.1426 86.0305 46.074 86.2978 46.07 86.57V86.815H42V86.57C42.0244 85.5943 42.3376 84.6477 42.9 83.85C43.146 83.4936 43.4483 83.1795 43.795 82.92C44.1908 82.6257 44.6338 82.4008 45.105 82.255C45.675 82.075 46.275 81.99 46.875 82C47.455 81.995 48.03 82.05 48.595 82.18C49.055 82.285 49.495 82.455 49.91 82.68C50.5925 83.0351 51.1507 83.5897 51.51 84.27C51.8019 84.8019 51.9565 85.3983 51.96 86.005C52.0005 86.9558 51.7049 87.8904 51.125 88.645C50.9542 88.8636 50.752 89.0557 50.525 89.215Z"></path></svg>