<svg width="144" height="144" xmlns="http://www.w3.org/2000/svg" fill="white"><path fill-rule="evenodd" clip-rule="evenodd" d="M77.7833 37.6467L82.5933 35.3333L109.3567 56.4267V61.0533L82.5933 81.2933L77.7833 78.98V69.7267H75.8167C62.2833 69.66 53.45 70.0733 40.45 86.9367L35.3367 85.2933C35.2889 82.7581 35.5929 80.2284 36.24 77.7767C37.6732 68.8825 42.3232 60.8246 49.3067 55.1333C56.3503 49.3886 65.2281 46.3745 74.3133 46.6433H77.78V37.6433ZM83.7967 64.0367V73.29L102.7167 59.02L83.89 43.87V52.75H74.3567C65.7699 52.3317 57.3951 55.4984 51.2333 61.4933C47.5413 65.3946 44.8021 70.0972 43.23 75.2333C54.4 64.5233 63.8633 64.0367 75.89 64.0367H83.8ZM58.3067 83.69C67.3816 77.3688 79.8963 83.242 80.8332 94.2617C81.2849 99.5747 78.7568 104.7008 74.2667 107.5767C64.9536 113.5415 52.6759 107.1878 52.1667 96.1401C51.9395 91.211 54.2578 86.5103 58.3067 83.69ZM61.49 102.7833C66.9882 106.5076 74.4562 102.8833 74.9324 96.2595C75.156 93.15 73.6844 90.1618 71.0833 88.4433C65.5426 84.7826 58.1168 88.4927 57.7169 95.1215C57.5335 98.1625 58.9676 101.0748 61.49 102.7833Z"></path></svg>