<svg width="144" height="144" xmlns="http://www.w3.org/2000/svg" fill="white"><path fill-rule="evenodd" clip-rule="evenodd" d="M86.16 45.44C82.4257 41.7046 77.3814 39.5735 72.1 39.5H71.9C60.9173 39.6506 52.0506 48.5173 51.9 59.5C51.835 63.25 52.89 66.935 54.93 70.085L70.67 102H73.335L89.07 70.085C91.115 66.935 92.17 63.25 92.1 59.5C92.0265 54.2186 89.8954 49.1743 86.16 45.44ZM71.625 44.5L72.035 44.55L72.405 44.5C80.5606 44.8552 87.0169 51.5222 87.11 59.685C87.1483 62.4751 86.3336 65.2104 84.775 67.525L84.675 67.695L84.59 67.87L72 93.395L59.415 67.895L59.33 67.7L59.23 67.53C57.6714 65.2154 56.8567 62.4801 56.895 59.69C56.9835 51.5168 63.4535 44.8425 71.62 44.5ZM74.685 55.345C71.4846 53.205 67.1676 55.332 66.9145 59.1737C66.797 60.9566 67.6397 62.6668 69.125 63.66C72.3254 65.8 76.6424 63.673 76.8955 59.8313C77.013 58.0484 76.1703 56.3382 74.685 55.345ZM66.35 51.185C72.6477 46.758 81.3761 50.8087 82.0611 58.4761C82.3944 62.207 80.6148 65.8113 77.45 67.815C70.9459 71.9328 62.4232 67.4656 62.1091 59.774C61.9703 56.3762 63.5679 53.1407 66.35 51.185Z"></path></svg>