<svg width="144" height="144" xmlns="http://www.w3.org/2000/svg" fill="white"><path fill-rule="evenodd" clip-rule="evenodd" d="M42 65.85L103.65 48.7L107 51.35V94.35L103.65 97L73.205 89.025C71.2609 97.1084 61.2954 100.0559 55.267 94.3306C52.3554 91.5653 51.2183 87.4129 52.315 83.55L42 80.85L39.9 78.2V68.5L42 65.85ZM57.03 84.785C56.9196 85.1799 56.8526 85.5856 56.83 85.995C56.822 90.4983 61.692 93.3216 65.596 91.0768C66.8784 90.3394 67.8339 89.1436 68.27 87.73L57.03 84.785ZM44.9 76.1L102 91.15V54.5L44.9 70.6V76.1Z"></path></svg>