<svg width="144" height="144" xmlns="http://www.w3.org/2000/svg" fill="white"><path d="M84.325 93.8C79.7007 96.4798 74.3974 97.7583 69.06 97.48C56.1145 98.4488 45.3179 87.716 46.21 74.765C45.6712 59.5165 57.9071 46.8721 73.165 46.91C85.05 46.91 95.23 53.785 95.23 66.94C95.23 77.85 88.77 85.24 80.73 85.24C77.35 85.24 75.23 83.87 75.1 80.655C73.1758 83.6104 69.8445 85.3425 66.32 85.22C61.475 85.22 58.175 81.995 58.175 75.605C58.175 66.79 63.915 58.605 71.275 58.605C74.472 58.195 77.4943 60.1647 78.41 63.255L79.465 59.21H83.965L80 75.23C78.87 79.81 79.35 81.305 81.71 81.305C86.63 81.305 90.875 75.255 90.875 67.18C90.875 56.84 83.65 50.855 72.825 50.855C59.61 50.855 50.955 61.515 50.915 74.785C50.0443 85.3264 58.7967 94.1524 69.345 93.37C74.21 93.57 79.045 92.475 83.345 90.2L84.325 93.8ZM63.085 75.195C63.085 79.135 64.62 81.225 67.65 81.225C71.44 81.225 74.55 78.225 76.065 72.07C77.68 65.73 76.25 62.5 71.7 62.5C66.5 62.5 63.085 69.195 63.085 75.195Z"></path></svg>