<svg width="144" height="144" xmlns="http://www.w3.org/2000/svg" fill="white"><path fill-rule="evenodd" clip-rule="evenodd" d="M84.5 55.23L73.77 44.5H70.235L59.5 55.23L63.035 58.765L68.5 53.305V58.4H68.4V60.68L68.525 60.685L68.555 62.28C68.575 63.215 68.655 64.175 68.805 65.15C68.955 66.125 69.15 67.1 69.39 68.08C69.63 69.055 69.96 70.1 70.39 71.215C71.165 73.11 72.105 74.825 73.215 76.37C74.32 77.915 75.515 79.36 76.79 80.705C78.065 82.055 79.33 83.38 80.59 84.69C81.84 86 82.98 87.395 83.995 88.88C85.01 90.365 85.835 91.985 86.465 93.745C87.09 95.5 87.405 97.52 87.405 99.81V104.23H94.5V99.81C94.4959 97.4689 94.2173 95.1363 93.67 92.86C93.1954 90.9432 92.4779 89.095 91.535 87.36C90.6684 85.7753 89.6574 84.274 88.515 82.875C87.405 81.525 86.25 80.24 85.05 79.005C83.85 77.775 82.695 76.545 81.585 75.315C80.4783 74.0868 79.4686 72.7745 78.565 71.39C77.6426 69.9701 76.9145 68.4331 76.4 66.82C75.8408 64.9898 75.5709 63.0835 75.6 61.17V58.4H75.595V53.4L80.965 58.77L84.5 55.23ZM67.21 80.705C67.7768 80.1067 68.3254 79.4914 68.855 78.86C67.6175 77.0606 66.5781 75.1328 65.755 73.11L65.72 73C65.5532 72.5648 65.3949 72.1263 65.245 71.685C64.395 72.965 63.45 74.175 62.42 75.315C61.31 76.545 60.155 77.775 58.955 79.005C57.755 80.24 56.605 81.525 55.49 82.875C54.385 84.225 53.375 85.715 52.47 87.355C51.5265 89.0932 50.8091 90.9449 50.335 92.865C49.7883 95.1397 49.5097 97.4705 49.505 99.81V104.23H56.605V99.81C56.605 97.525 56.915 95.5 57.545 93.745C58.17 91.985 58.995 90.365 60.01 88.88C61.025 87.395 62.16 86 63.42 84.69C64.675 83.38 65.94 82.055 67.22 80.705Z"></path></svg>