<svg width="144" height="144" xmlns="http://www.w3.org/2000/svg" fill="white"><path d="M107 60.3L72.9 47H71.1L37 60.3V92H42V67L53.55 71.5C50.9986 75.1333 49.6203 79.4604 49.6 83.9C49.55 84.45 49.55 85 49.6 85.55V86.1L51 88.1L70.9 97H72.95L92.65 87.95L94.05 85.95V83.75C94.0217 79.3348 92.6625 75.0307 90.15 71.4L107 64.85V60.3ZM89.4 83.7V84.05L72 92L54.5 84C54.4766 83.9014 54.4766 83.7986 54.5 83.7C54.5272 79.8463 55.8478 76.1135 58.25 73.1L71.15 78.1H72.95L85.75 73.1C88.1302 76.119 89.4169 79.8556 89.4 83.7ZM72 73.25L44.6 62.6L72 52L99.4 62.7L72 73.25Z"></path></svg>