<svg width="144" height="144" xmlns="http://www.w3.org/2000/svg" fill="white"><path fill-rule="evenodd" clip-rule="evenodd" d="M83.16 85.535L74.5 94.2V77H69.5V94.2L60.84 85.535L57.305 89.07L70.23 102H73.77L86.695 89.07L83.16 85.535ZM57.305 49.93L60.84 53.465L69.5 44.8V62H74.5V44.8L83.16 53.465L86.695 49.93L73.77 37H70.23L57.305 49.93ZM55.965 58.34L47.3 67H64.5V72H47.3L55.965 80.66L52.43 84.195L39.5 71.27V67.73L52.43 54.805L55.965 58.34ZM79.5 67H96.7L88.035 58.34L91.57 54.805L104.5 67.73V71.27L91.57 84.195L88.035 80.66L96.7 72H79.5V67Z"></path></svg>