<svg width="144" height="144" xmlns="http://www.w3.org/2000/svg" fill="white"><path fill-rule="evenodd" clip-rule="evenodd" d="M43.665 59.53C53.2663 53.1137 66.213 59.4973 66.969 71.0204C67.3199 76.3683 64.791 81.4972 60.335 84.475C50.7317 90.8913 37.7839 84.5056 37.0288 72.9808C36.6784 67.6321 39.2081 62.5028 43.665 59.525ZM57.05 63.415C50.5007 59.473 42.1401 64.0992 42.0009 71.742C41.9991 71.843 41.9988 71.944 42 72.045C42.02 73.81 42.51 75.535 43.415 77.05L57.05 63.415ZM46.95 80.585C53.4993 84.527 61.8599 79.9008 61.9991 72.258C62.0009 72.157 62.0012 72.056 62 71.955C61.9809 70.1906 61.4925 68.4632 60.585 66.95L46.95 80.585ZM102 57V66.92C102 68.3007 100.8807 69.42 99.5 69.42H78.835L87 61.255L83.465 57.72L72.86 68.325L70.745 70.44V73.28L83.465 86L87 82.465L78.95 74.42H99.5C103.6421 74.42 107 71.0621 107 66.92V57H102Z"></path></svg>