<svg width="144" height="144" xmlns="http://www.w3.org/2000/svg" fill="white"><path d="M37 57H32V52H37V57ZM37 67H32V62H37V67ZM37 77H32V72H37V77ZM37 87H32V82H37V87ZM37 97H32V92H37V97ZM37 102V107H32V102H37ZM37 107H42V112H37V107ZM47 107H52V112H47V107ZM37 37H32V32H37V37ZM47 37H42V32H47V37ZM52 32H57V37H52V32ZM67 37H62V32H67V37ZM77 37H72V32H77V37ZM87 37H82V32H87V37ZM87 42V37H92V42H87ZM92 52H87V47H92V52ZM37 47H32V42H37V47Z"></path><path fill-rule="evenodd" clip-rule="evenodd" d="M57 62L62 57H97L102 62V107L97 112H62L57 107V62ZM62 62V107H97V62H62Z"></path><path d="M107 67H112V77H107V67ZM107 82H112V92H107V82ZM107 97H112V107H107V97ZM67 72H92V77H67Z"></path></svg>