<svg width="144" height="144" xmlns="http://www.w3.org/2000/svg" fill="white"><path fill-rule="evenodd" clip-rule="evenodd" d="M101.315 60.365C101.88 58.965 103.715 53.405 100.745 45.88C100.745 45.88 96.15 44.44 85.695 51.57C81.32 50.345 76.635 50.17 72 50.17C67.36 50.17 62.68 50.345 58.305 51.57C47.85 44.395 43.255 45.88 43.255 45.88C40.28 53.405 42.12 58.965 42.69 60.365C39.14 64.165 37 69.065 37 75.015C37 97.55 51.57 102.625 71.91 102.625C92.26 102.625 107 97.55 107 75.02C107 69.07 104.855 64.17 101.315 60.365ZM72 98.34C57.56 98.34 45.84 97.68 45.84 83.68C45.84 80.355 47.5 77.205 50.3 74.625C54.98 70.34 62.985 72.615 72 72.615C81.055 72.615 88.975 70.34 93.7 74.625C96.545 77.205 98.165 80.315 98.165 83.68C98.165 97.635 86.435 98.335 72 98.335ZM61.02 76.415C58.13 76.415 55.77 79.915 55.77 84.2C55.77 88.49 58.13 92.03 61.02 92.03C63.905 92.03 66.27 88.53 66.27 84.2C66.27 79.87 63.905 76.415 61.02 76.415ZM82.98 76.415C80.095 76.415 77.73 79.87 77.73 84.2S80.095 92.03 82.98 92.03C85.87 92.03 88.23 88.53 88.23 84.2C88.23 79.87 85.915 76.415 82.98 76.415Z"></path></svg>