<svg width="144" height="144" xmlns="http://www.w3.org/2000/svg" fill="white"><path fill-rule="evenodd" clip-rule="evenodd" d="M47 37H102L107 42V68.5C105.4264 67.7305 103.7374 67.2238 102 67V42H77V96.4L71.4 102H47L42 97V42L47 37ZM47 97H72V42H47V97ZM98.895 72.01C96.798 72.0875 94.7533 72.6855 92.945 73.75H92.795C86.6938 77.4321 84.8791 85.4495 88.8 91.4L77 103.15L80.55 106.7L92.3 94.9C93.925 96 95.8 96.69 97.75 96.9C99.6747 97.1338 101.6274 96.9111 103.45 96.25C105.3436 95.613 107.0578 94.533 108.45 93.1C109.8001 91.6874 110.7942 89.9734 111.35 88.1C111.8902 86.2328 112.0097 84.269 111.7 82.35C110.9956 78.4409 108.4961 75.0896 104.95 73.3C103.0697 72.3751 100.989 71.9319 98.895 72.01ZM100.095 91.97C98.3714 92.1408 96.6418 91.7097 95.2 90.75C93.9575 89.9113 92.9849 88.7303 92.4 87.35C91.845 85.9876 91.7059 84.4914 92 83.05C92.5776 80.0632 94.9132 77.7276 97.9 77.15C99.3414 76.8559 100.8376 76.995 102.2 77.55C103.58 78.135 104.76 79.105 105.6 80.35C108.735 85.0581 105.7286 91.4099 100.1 91.97Z"></path></svg>