<svg width="144" height="144" xmlns="http://www.w3.org/2000/svg" fill="white"><path fill-rule="evenodd" clip-rule="evenodd" d="M77.555 55.315C71.2288 59.7012 62.5268 55.5942 61.8913 47.9224C61.5861 44.2373 63.3394 40.6845 66.45 38.685C72.8733 34.4423 81.4807 38.7441 81.9433 46.4282C82.1558 49.957 80.4892 53.3358 77.56 55.315ZM74.78 42.845C71.6555 40.5973 67.2694 42.5748 66.8851 46.4046C66.6946 48.3022 67.6003 50.143 69.22 51.15C72.5096 53.1483 76.7289 50.8362 76.8147 46.9881C76.851 45.3597 76.0918 43.8156 74.78 42.85ZM87.83 42.995C90.8047 40.9941 94.7814 41.3886 97.305 43.935C101.0796 47.74 99.8096 54.1552 94.87 56.235C92.0673 57.4068 88.8339 56.7621 86.695 54.605C83.3448 51.2376 83.8935 45.6511 87.835 43ZM90.23 51.045C91.5925 52.4018 93.9129 51.7748 94.4066 49.9164C94.6358 49.0539 94.3874 48.1347 93.755 47.505C93.2894 47.0368 92.6601 46.7679 92 46.755C90.6122 46.7522 89.4889 47.8823 89.5 49.27C89.5016 49.9359 89.7636 50.5747 90.23 51.05ZM47.95 94.435H57V99.46H47.95C46.3657 99.4457 44.8518 98.8038 43.74 97.675C42.624 96.5421 41.9989 95.0153 42 93.425V84.375C40.6397 84.3295 39.3571 83.7298 38.45 82.715C37.4862 81.7387 36.9625 80.4114 37 79.04V68.13C37.015 65.77 37.95 63.515 39.6 61.84C41.245 60.185 43.47 59.24 45.8 59.225H55C53.7591 60.7029 52.8243 62.4127 52.25 64.255H45.8C44.7852 64.2841 43.8196 64.6989 43.1 65.415C42.3931 66.1418 41.9984 67.1161 42 68.13V79.29H47V93.42C46.9766 93.6953 47.0669 93.9681 47.25 94.175C47.451 94.3303 47.6961 94.4179 47.95 94.425ZM84.45 61.845C82.7976 60.1765 80.5483 59.2354 78.2 59.23H65.8C63.4691 59.2486 61.2402 60.1887 59.6 61.845C57.95 63.52 57.015 65.775 57 68.135V84.025C56.9929 85.3894 57.5123 86.7039 58.45 87.695C59.3582 88.7083 60.6401 89.3078 62 89.355V100.97C61.9905 102.5712 62.6205 104.11 63.75 105.245C64.65 106.085 65.785 106.63 67 106.805H77C79.9124 106.4227 82.0684 103.9066 82 100.97V89.35C83.3603 89.3045 84.6429 88.7048 85.55 87.69C86.513 86.7152 87.0367 85.3898 87 84.02V68.13C87.0035 65.7809 86.0883 63.5235 84.45 61.84ZM82 84.27H77V100.97C76.9952 101.2335 76.8875 101.4848 76.7 101.67C76.527 101.8748 76.2676 101.986 76 101.97H67.95C67.4085 101.9448 66.9752 101.5115 66.95 100.97V84.27H62V68.13C62 67.115 62.395 66.14 63.1 65.415C63.8196 64.6989 64.7852 64.2841 65.8 64.255H78.2C79.7479 64.2823 81.1323 65.2248 81.725 66.655C81.9154 67.123 82.0089 67.6248 82 68.13V84.27ZM96.05 99.455H87V94.43H96C96.2539 94.4229 96.499 94.3353 96.7 94.18C96.9037 93.9809 97.0128 93.7045 97 93.42V79.29H102V68.13C102.0016 67.1161 101.6069 66.1418 100.9 65.415C100.1804 64.6989 99.2148 64.2841 98.2 64.255H91.75C91.176 62.4126 90.2412 60.7027 89 59.225H98.2C100.5304 59.2463 102.7582 60.186 104.4 61.84C106.05 63.515 106.985 65.77 107 68.13V79.04C107 80.405 106.485 81.715 105.555 82.705C104.625 83.7 103.355 84.295 102 84.37V93.42C102 95.015 101.375 96.54 100.26 97.67C99.1482 98.7988 97.6343 99.4407 96.05 99.455ZM52 41.725C48.9564 41.7215 46.2149 43.5649 45.07 46.385C43.9153 49.2023 44.5571 52.437 46.7 54.6C50.7569 58.6917 57.7218 56.8573 59.2369 51.2981C59.4169 50.6373 59.5055 49.9549 59.5 49.27C59.5 47.27 58.71 45.35 57.3 43.935C55.8977 42.5225 53.9903 41.7272 52 41.725ZM52 51.785C50.6122 51.7878 49.4889 50.6577 49.5 49.27C49.5027 47.888 50.618 46.766 52 46.755C53.3764 46.7792 54.484 47.8935 54.5 49.27C54.4973 50.652 53.382 51.774 52 51.785Z"></path></svg>