<svg width="144" height="144" xmlns="http://www.w3.org/2000/svg" fill="white"><path d="M104.7 91.055L99 75.455V75.155L74.45 50.605V44.405C74.4414 43.4132 74.2551 42.431 73.9 41.505C73.1141 39.6656 71.6171 38.2227 69.75 37.505C68.8289 37.1376 67.841 36.9673 66.85 37.005C62.7516 36.977 59.422 40.3066 59.45 44.405V60.705L44.15 75.705C41.2794 78.6553 41.2794 83.3547 44.15 86.305L62.3 104.455C63 105.16 63.835 105.72 64.75 106.105C66.5791 106.8393 68.6209 106.8393 70.45 106.105C71.3673 105.7217 72.1999 105.1609 72.9 104.455L97.55 79.855L94.25 90.855C94.1004 91.6144 94.1004 92.3956 94.25 93.155C94.415 93.915 94.74 94.635 95.2 95.255C95.69 95.86 96.28 96.37 96.95 96.755C97.65 97.105 98.42 97.305 99.2 97.355C100.0249 97.4057 100.8495 97.251 101.6 96.905C102.3467 96.5674 103.0118 96.0729 103.55 95.455C104.0978 94.8271 104.4763 94.0699 104.65 93.255C104.81 92.53 104.825 91.785 104.7 91.055ZM64.7 44.405C64.6267 44.0757 64.6267 43.7343 64.7 43.405C64.8407 43.0841 65.0448 42.795 65.3 42.555C65.571 42.3408 65.875 42.172 66.2 42.055C66.5461 41.9807 66.9039 41.9807 67.25 42.055C67.8568 42.1019 68.4257 42.3686 68.85 42.805C69.2429 43.2644 69.4561 43.8505 69.45 44.455V50.755L64.45 55.755L64.7 44.405ZM69.7 101.155C69.4887 101.4081 69.212 101.5984 68.9 101.705C68.2949 101.9724 67.6051 101.9724 67 101.705C66.6881 101.5982 66.4114 101.408 66.2 101.155L48.05 83.055C47.064 82.0771 47.064 80.4829 48.05 79.505L69.8 57.755V72.005C69.0296 72.7111 68.5937 73.71 68.6 74.755C68.3337 77.6294 71.2789 79.7143 73.9014 78.5077C76.5239 77.3011 76.8568 73.7081 74.5006 72.0402C74.4839 72.0283 74.467 72.0166 74.45 72.005V57.855L93.7 77.205L69.7 101.155Z"></path></svg>