<svg width="144" height="144" xmlns="http://www.w3.org/2000/svg" fill="white"><path d="M72 42C75.849 42 78.2546 46.1667 76.3301 49.5C75.437 51.047 73.7863 52 72 52C68.151 52 65.7454 47.8333 67.6699 44.5C68.563 42.953 70.2137 42 72 42ZM72 37C64.302 37 59.4907 45.3333 63.3397 52C65.1261 55.094 68.4273 57 72 57C79.698 57 84.5093 48.6667 80.6603 42C78.8739 38.906 75.5727 37 72 37ZM78.15 59.45H65.85C60.9623 59.45 57 63.4123 57 68.3V81.5C56.8863 84.3907 59.1116 86.8385 62 87V98.65C62 101.9637 64.6863 104.65 68 104.65H76C79.3934 104.6519 82.1131 101.8415 82 98.45V87C84.8884 86.8385 87.1137 84.3907 87 81.5V68.3C87 63.4123 83.0377 59.45 78.15 59.45ZM62 82V68.3C61.9717 66.1621 63.7121 64.4217 65.85 64.45H78.15C80.2879 64.4217 82.0283 66.1621 82 68.3V82H77V98.55C77 99.1023 76.5523 99.55 76 99.55H68C67.4477 99.55 67 99.1023 67 98.55V82H62Z"></path></svg>