<svg width="144" height="144" xmlns="http://www.w3.org/2000/svg" fill="white"><path fill-rule="evenodd" clip-rule="evenodd" d="M97 82H92V92H82V97H92V107H97V97H107V92H97V82ZM74.78 42.845C71.5796 40.705 67.2626 42.832 67.0095 46.6737C66.892 48.4566 67.7347 50.1668 69.22 51.16C72.4204 53.3 76.7374 51.173 76.9905 47.3313C77.108 45.5484 76.2653 43.8382 74.78 42.845ZM66.445 38.685C72.7712 34.2988 81.4732 38.4058 82.1087 46.0776C82.4139 49.7627 80.6606 53.3155 77.55 55.315C71.0459 59.4328 62.5232 54.9656 62.2091 47.274C62.0703 43.8762 63.6679 40.6407 66.45 38.685ZM65.85 59.45H78.15C83.0377 59.45 87 63.4123 87 68.3V72H82V68.3C82.0283 66.1621 80.2879 64.4217 78.15 64.45H65.85C63.7121 64.4217 61.9717 66.1621 62 68.3V82H67V98.55C67 99.1023 67.4477 99.55 68 99.55H72V104.65H68C64.6863 104.65 62 101.9637 62 98.65V87C59.1116 86.8385 56.8863 84.3907 57 81.5V68.3C57 63.4123 60.9623 59.45 65.85 59.45Z"></path></svg>