<svg width="144" height="144" xmlns="http://www.w3.org/2000/svg" fill="white"><path fill-rule="evenodd" clip-rule="evenodd" d="M82 62H101.5C99.5115 52.2044 91.7955 44.4885 82 42.5001V62ZM82 37.4148C94.5625 39.5224 104.4775 49.4375 106.585 62C106.858 63.6261 107 65.2964 107 67H77V37C78.7036 37 80.374 37.142 82 37.4148ZM67 72.0002L72 77.0002H96.5C94.1835 88.4115 84.0945 97 72 97C58.1929 97 47 85.807 47 72C47 59.9052 55.5888 49.8165 67 47.5001V72.0002ZM72 102C86.865 102 99.2045 91.1885 101.585 77.0002C101.858 75.3741 102 73.7037 102 72.0002H72V42C70.2964 42 68.626 42.142 67 42.4148C52.8114 44.7952 42 57.135 42 72C42 88.5685 55.4315 102 72 102Z"></path></svg>