<svg width="144" height="144" xmlns="http://www.w3.org/2000/svg" fill="white"><path d="M102 57V92H100.61C98.58 92 96.72 91.57 95.025 90.71C93.3016 89.825 91.8047 88.5556 90.65 87H76.35C75.6434 88.5038 74.7239 89.8981 73.62 91.14C72.5398 92.3523 71.3041 93.4165 69.945 94.305C68.595 95.19 67.12 95.855 65.535 96.295C63.9305 96.7407 62.2751 96.9776 60.61 97H58.11V77H42L37 74.5L42 72H58.11V52H60.61C62.305 52 63.93 52.235 65.495 52.7C67.055 53.17 68.53 53.835 69.91 54.7C72.7216 56.4544 74.9598 58.9916 76.35 62H90.645C91.8084 60.4628 93.3039 59.2083 95.02 58.33C96.71 57.47 98.57 57.03 100.605 57H102ZM98.11 62.43C97.5415 62.6105 97.0024 62.8733 96.51 63.21C95.6372 63.8163 94.9042 64.6022 94.36 65.515L93.425 67H72.915L72.33 65.32C71.6225 63.2945 70.3968 61.4896 68.775 60.085C67.135 58.655 64.135 57.45 62 57V92C64.135 91.56 67.135 90.35 68.775 88.915C70.415 87.48 71.6 85.735 72.325 83.68L72.92 82H93.43L94.33 83.485C94.615 83.955 94.94 84.37 95.305 84.735C95.67 85.1 96.07 85.45 96.515 85.785C96.955 86.13 97.49 86.385 98.115 86.57V62.43Z"></path></svg>