<svg width="144" height="144" xmlns="http://www.w3.org/2000/svg" fill="white"><path d="M52 42H87V43.39C87 45.42 86.57 47.28 85.71 48.975C84.85 50.67 83.61 52.125 82 53.35V67.65C83.535 68.375 84.915 69.29 86.14 70.38C87.365 71.475 88.42 72.7 89.305 74.055C90.19 75.405 90.855 76.88 91.295 78.465C91.74 80.055 91.975 81.695 92 83.39V85.89H72V102L69.5 107L67 102V85.89H47V83.39C47 81.695 47.235 80.07 47.7 78.505C48.17 76.945 48.835 75.47 49.7 74.09C51.4544 71.2784 53.9916 69.0402 57 67.65V53.35C55.4629 52.1865 54.2084 50.691 53.33 48.975C52.4602 47.2414 52.0049 45.3295 52 43.39V42ZM57.43 45.89C57.64 46.515 57.9 47.05 58.21 47.49C58.8167 48.3625 59.6025 49.0954 60.515 49.64L62 50.575V71.085L60.32 71.67C58.265 72.4 56.52 73.585 55.085 75.225C53.655 76.865 52.45 79.865 52 82H87C86.56 79.865 85.35 76.865 83.915 75.225C82.5099 73.6049 80.705 72.3809 78.68 71.675L77 71.08V50.575L78.485 49.675C78.955 49.39 79.37 49.065 79.735 48.7C80.1129 48.3218 80.4638 47.9175 80.785 47.49C81.1435 47.0099 81.4096 46.4673 81.57 45.89H57.43Z"></path></svg>