<svg width="144" height="144" xmlns="http://www.w3.org/2000/svg" fill="white"><path fill-rule="evenodd" clip-rule="evenodd" d="M52 42H87V43.39C87 45.42 86.57 47.28 85.71 48.975C84.85 50.67 83.61 52.125 82 53.35V67.65C83.535 68.375 84.915 69.29 86.14 70.38C87.1462 71.2754 88.0515 72.278 88.84 73.37C87.2814 73.9049 85.7806 74.595 84.36 75.43L84.325 75.45L84.175 75.54C82.7389 73.7641 80.8359 72.4239 78.68 71.67L77 71.085V50.575L78.485 49.675C78.955 49.39 79.37 49.065 79.735 48.7C80.1129 48.3218 80.4638 47.9175 80.785 47.49C81.1435 47.0099 81.4096 46.4673 81.57 45.89H57.43C57.64 46.515 57.9 47.05 58.21 47.49C58.8167 48.3625 59.6025 49.0954 60.515 49.64L62 50.575V71.085L60.32 71.67C58.265 72.4 56.52 73.585 55.085 75.225C53.655 76.865 52.45 79.865 52 82H77.01C76.0917 83.2209 75.2867 84.5229 74.605 85.89H72V102L69.5 107L67 102V85.89H47V83.39C47 81.695 47.235 80.07 47.7 78.505C48.17 76.945 48.835 75.47 49.7 74.09C51.4544 71.2784 53.9916 69.0402 57 67.65V53.35C55.4629 52.1865 54.2084 50.691 53.33 48.975C52.4602 47.2414 52.0049 45.3295 52 43.39V42ZM89.425 84.05C90.549 83.3888 91.7563 82.881 93.015 82.54C94.295 82.18 95.625 82 97 82S99.705 82.18 100.985 82.54C103.4878 83.2261 105.7658 84.5591 107.59 86.405C109.4384 88.23 110.7733 90.5099 111.46 93.015C111.82 94.295 112 95.625 112 97S111.82 99.705 111.46 100.985C110.7755 103.494 109.4405 105.7777 107.59 107.605C105.7583 109.4422 103.4832 110.7752 100.985 111.475C99.705 111.825 98.375 112 97 112S94.295 111.825 93.015 111.475C90.5136 110.7726 88.2342 109.4401 86.395 107.605C84.5617 105.7652 83.231 103.4859 82.53 100.985C82.175 99.6865 81.9967 98.3461 82 97C82 95.625 82.175 94.295 82.525 93.015C83.293 90.2702 84.824 87.7995 86.94 85.89C87.71 85.19 88.54 84.58 89.425 84.05Z"></path></svg>