<svg width="144" height="144" xmlns="http://www.w3.org/2000/svg" fill="white"><path d="M74.5679 87H69.5728L65.4907 76.2041H49.1627L45.3223 87H40.3003L55.0709 48.4893H59.7437L74.5679 87ZM64.0137 72.149L57.9712 55.7403C57.7743 55.2031 57.5774 54.3438 57.3804 53.1621H57.273C57.094 54.2543 56.8881 55.1136 56.6553 55.7403L50.6666 72.149H64.0137Z"></path><path d="M79.9863 87V48.4893H90.9435C94.2735 48.4893 96.914 49.3038 98.8655 50.9331C100.817 52.5624 101.793 54.6839 101.793 57.2979C101.793 59.4821 101.202 61.3799 100.0205 62.9912C98.839 64.6026 97.2095 65.7484 95.1325 66.4287V66.5361C97.729 66.8405 99.8055 67.8252 101.363 69.4903C102.921 71.1374 103.6995 73.2858 103.6995 75.9356C103.6995 79.2298 102.518 81.8974 100.1545 83.9385C97.7915 85.9795 94.8105 87 91.212 87H79.9863ZM84.498 52.5713V65.0053H89.117C91.588 65.0053 93.5305 64.4146 94.945 63.2329C96.359 62.0334 97.0665 60.3504 97.0665 58.1841C97.0665 54.4422 94.6045 52.5713 89.681 52.5713H84.498ZM84.498 69.0606V82.918H90.621C93.271 82.918 95.3205 82.2915 96.771 81.0381C98.239 79.7849 98.973 78.0661 98.973 75.8819C98.973 71.3343 95.8755 69.0606 89.681 69.0606H84.498Z"></path></svg>