<svg width="144" height="144" xmlns="http://www.w3.org/2000/svg" fill="white"><path fill-rule="evenodd" clip-rule="evenodd" d="M69.5 37C44.4815 37 28.8449 64.0833 41.3542 85.75C47.1597 95.8055 57.8889 102 69.5 102C94.5185 102 110.1551 74.9167 97.6458 53.25C91.8403 43.1945 81.1111 37 69.5 37ZM69.5 97C48.3305 97 35.0995 74.0833 45.6843 55.75C50.5967 47.2415 59.6752 42 69.5 42C90.6695 42 103.9005 64.9167 93.3157 83.25C88.4033 91.7585 79.3248 97 69.5 97ZM77.25 54.9C76.3862 54.0005 75.3485 53.286 74.2 52.8C72.755 52.2214 71.2057 51.949 69.65 52C68.14 51.9726 66.6411 52.2621 65.25 52.85C64.055 53.35 63 54.12 62.15 55.1C61.322 56.0006 60.6767 57.0534 60.25 58.2C59.8533 59.3647 59.6014 60.5738 59.5 61.8H65.65C65.7078 60.1803 66.6924 58.7384 68.18 58.095C68.6631 57.9047 69.1816 57.8211 69.7 57.85C70.1472 57.7789 70.6028 57.7789 71.05 57.85C71.4608 58.0054 71.8353 58.2436 72.15 58.55C72.4974 58.8506 72.7711 59.2269 72.95 59.65C73.1548 60.1232 73.2571 60.6344 73.25 61.15C73.25 62.015 73.065 62.865 72.7 63.65C72.3369 64.4644 71.8841 65.2359 71.35 65.95L69.6 68.05C69 68.7 68.4 69.4 67.85 70.1C67.3167 70.7968 66.8638 71.5516 66.5 72.35C66.1531 73.1369 65.9825 73.9902 66 74.85V78.15H72V75.7C72.0169 74.9667 72.2053 74.2475 72.55 73.6C72.9609 72.8802 73.4291 72.1947 73.95 71.55L75.75 69.35C76.4053 68.593 77.0067 67.791 77.55 66.95C78.1246 66.0924 78.5946 65.1692 78.95 64.2C79.3146 63.1725 79.5007 62.0902 79.5 61C79.5089 59.8641 79.3402 58.7338 79 57.65C78.6224 56.6176 78.0254 55.6793 77.25 54.9ZM66 81.15H71.85V87H66V81.15Z"></path></svg>