<svg width="144" height="144" xmlns="http://www.w3.org/2000/svg" fill="white"><path fill-rule="evenodd" clip-rule="evenodd" d="M67.8 49.5C55.65 57.3 49.75 65.35 49.75 78.8C50.55 78.55 51.25 78.55 51.95 78.55C58.3 78.55 64.45 82.85 64.45 90.6C64.45 98.65 59.3 103.65 51.95 103.65C42.45 103.65 37 96.05 37 82.4C37 63.4 45.75 49.75 62.1 40.3L67.8 49.5ZM102.8 49.5C90.65 57.3 84.75 65.35 84.75 78.8C85.55 78.55 86.25 78.55 86.95 78.55C93.3 78.55 99.45 82.85 99.45 90.6C99.45 98.65 94.3 103.65 86.95 103.65C77.5 103.65 72.05 96.05 72.05 82.4C72.05 63.4 80.8 49.75 97.15 40.3L102.85 49.5H102.8Z"></path></svg>