<svg width="144" height="144" xmlns="http://www.w3.org/2000/svg" fill="white"><path fill-rule="evenodd" clip-rule="evenodd" d="M46.99 59.9C47.0412 52.6213 49.9502 45.6541 55.09 40.5L51.54 37C38.8173 49.616 38.8173 70.184 51.54 82.8L55.09 79.3C49.9502 74.1459 47.0412 67.1787 46.99 59.9ZM52.29 59.9C52.2639 65.8569 54.6438 71.5721 58.89 75.75L62.44 72.2C60.7966 70.6188 59.5023 68.7113 58.64 66.6C56.8483 62.3304 56.8483 57.5196 58.64 53.25C59.4894 51.1173 60.785 49.1909 62.44 47.6L58.89 44.05C54.6628 48.2407 52.2864 53.9476 52.29 59.9ZM90.54 75.95L86.99 72.4C88.64 70.8 89.94 68.88 90.79 66.75C92.5823 62.4805 92.5823 57.6695 90.79 53.4C89.9406 51.2673 88.645 49.3409 86.99 47.75L90.54 44.25C99.3355 52.9864 99.3355 67.2136 90.54 75.95ZM97.34 37L93.79 40.55C104.5971 51.1866 104.5971 68.6134 93.79 79.25L97.34 82.8C110.0627 70.184 110.0627 49.616 97.34 37ZM81.965 59.15C82.1355 60.8758 81.7026 62.6074 80.74 64.05C80.3249 64.4726 79.8732 64.8574 79.39 65.2L96.59 103.85L91.99 105.85L88.14 97.2H60.44L56.59 105.85L51.99 103.85L69.19 65.2C67.0708 63.0518 66.4233 59.8533 67.54 57.05C68.1249 55.6697 69.0975 54.4887 70.34 53.65C75.0489 50.5093 81.4069 53.5174 81.965 59.15ZM73.99 57.45C73.516 57.5617 73.0829 57.8042 72.74 58.15C72.4713 58.4674 72.2827 58.8446 72.19 59.25C72.0405 59.7218 72.0405 60.2282 72.19 60.7C72.39 61.15 72.7 61.55 73.09 61.85C73.5112 62.109 73.9955 62.2474 74.49 62.25C75.8595 62.2234 76.9634 61.1195 76.99 59.75C76.9874 59.2555 76.849 58.7712 76.59 58.35C76.2897 57.9568 75.8938 57.647 75.44 57.45C74.9682 57.3005 74.4618 57.3005 73.99 57.45ZM75.14 67.7H73.79L69.44 77.4H79.44L75.14 67.7ZM86.14 92.4L81.69 82.4H67.29L62.84 92.4H86.14Z"></path></svg>