<svg width="144" height="144" xmlns="http://www.w3.org/2000/svg" fill="white"><path fill-rule="evenodd" clip-rule="evenodd" d="M92 69.5C92 70.345 91.95 71.18 91.865 72H96.89C98.8118 50.9179 77.1908 35.6612 57.9723 44.538C38.7538 53.4147 36.3516 79.7673 53.6483 91.9727C58.9871 95.74 65.4929 97.4832 72 96.89V91.865C54.7867 93.7895 41.9451 76.3584 48.8851 60.489C55.825 44.6197 77.3416 42.214 87.6149 56.1589C90.4625 60.0242 91.9991 64.699 92 69.5ZM59.5 67C63.349 67 65.7546 62.8333 63.8301 59.5C62.937 57.953 61.2863 57 59.5 57C55.651 57 53.2454 61.1667 55.1699 64.5C56.063 66.047 57.7137 67 59.5 67ZM69.5 79.5C73.06 79.5 76.275 78.01 78.55 75.62L82.085 79.16C78.7909 82.5776 74.2467 84.5057 69.5 84.5C64.6574 84.5059 60.0302 82.4993 56.725 78.96L60.26 75.42C62.6267 78.0224 65.9824 79.5041 69.5 79.5ZM79.5 67C83.349 67 85.7546 62.8333 83.8301 59.5C82.937 57.953 81.2863 57 79.5 57C75.651 57 73.2454 61.1667 75.1699 64.5C76.063 66.047 77.7137 67 79.5 67ZM92 82H97V92H107V97H97V107H92V97H82V92H92V82Z"></path></svg>