<svg width="144" height="144" xmlns="http://www.w3.org/2000/svg" fill="white"><path d="M72.0012 77C74.7627 77 77.0012 74.7614 77.0012 72C77.0012 69.2386 74.7627 67 72.0012 67C69.2398 67 67.0012 69.2386 67.0012 72C67.0012 74.7614 69.2398 77 72.0012 77Z"></path><path d="M92.001 72C92.001 83.0455 83.047 92 72.0012 92C60.9556 92 52.0012 83.0455 52.0012 72C52.0012 60.9543 60.9556 52 72.0012 52C83.047 52 92.001 60.9543 92.001 72ZM87.001 72C87.001 63.7158 80.2855 57 72.0012 57C63.717 57 57.0012 63.7158 57.0012 72C57.0012 80.2843 63.717 87 72.0012 87C80.2855 87 87.001 80.2843 87.001 72Z"></path></svg>