<svg width="144" height="144" xmlns="http://www.w3.org/2000/svg" fill="white"><path d="M72 82C79.698 82 84.5093 73.6667 80.6603 67C78.8739 63.906 75.5727 62 72 62C64.302 62 59.4907 70.3333 63.3397 77C65.1261 80.094 68.4273 82 72 82Z"></path><path fill-rule="evenodd" clip-rule="evenodd" d="M75 37C83 37.5 90.5 41.5 96 47C102.5 54 106 62.5 106 72.5C106 80.5 103 88 98 94.5C93 100.5 86 105 78 106.5C70 108 62 107 55 103C48 99 42.5 93 39.5 85.5C36.5 78 36 69.5 38.5 62C41 54 45.5 47.5 52.5 43C59 38.5 67 36.5 75 37ZM77.5 101.5C84 100 90 96.5 94.5 91C98.5 85.5 101 79 100.5 72C100.5 64 97.5 56 92 50.5C87 45.5 81 42.5 74 42C67.5 41.5 60.5 43 55 47C49.5 51 45.5 56.5 43.5 63.5C41.5 70 41.5 77 44.5 83.5C47.5 90 52 95 58 98.5C64 102 71 103 77.5 101.5Z"></path></svg>