<svg width="144" height="144" xmlns="http://www.w3.org/2000/svg" fill="white"><path fill-rule="evenodd" clip-rule="evenodd" d="M102 47H47C44.2386 47 42 49.2386 42 52V87C42 89.7614 44.2386 92 47 92H102C104.7614 92 107 89.7614 107 87V52C107 49.2386 104.7614 47 102 47ZM102 87H47V52H102V87ZM87 57H82V62H87V57ZM82 67H77V72H82V67ZM92 57H97V62H92V57ZM97 77H92V82H97V77ZM62 77H87V82H62V77ZM97 67H87V72H97V67ZM72 57H77V62H72V57ZM72 67H67V72H72V67ZM52 77H57V82H52V77ZM52 57H57V62H52V57ZM67 57H62V62H67V57ZM52 67H62V72H52V67Z"></path></svg>