<svg width="144" height="144" xmlns="http://www.w3.org/2000/svg" fill="white"><path fill-rule="evenodd" clip-rule="evenodd" d="M69.0167 47.2033L57.5833 58.6267L53.8033 54.8933L60.7033 47.96H44.7033C38.5449 47.96 34.6959 54.6267 37.7751 59.96C40.8543 65.2933 48.5523 65.2933 51.6315 59.96C52.3337 58.7438 44.7033 65.3643 44.7033 63.96H47.67V69.2933H44.7367C34.4842 68.8066 28.6033 57.4038 34.1511 48.7683C36.483 45.1384 40.4272 42.8613 44.7367 42.6567H60.7367L53.8 35.7667L57.5833 32L69.0167 43.44V47.2067ZM87.4 112H55.4L52.7333 109.3333V66.7067L55.4 64.04H87.4L90.0667 66.7067V109.3333L87.4 112ZM58.0667 106.6667H84.7333V69.3733H58.0667V106.6667ZM76.7333 37.34H108.7333L111.4 40.0067V82.6267L108.7333 85.2933H95.4V79.96H106.0667V42.6667H79.4V58.6233H74.0667V40.0033L76.7333 37.3367ZM79.4 74.6267H63.4V79.96H79.4V74.6267ZM63.4 85.2933H79.4V90.6267H63.4V85.2933ZM79.4 95.96H63.4V101.2933H79.4V95.96ZM84.7333 47.96H100.7333V53.2933H84.7333V47.96ZM100.7333 69.2933H95.4V74.6267H100.7333V69.2933ZM89.6067 58.7067V58.6267H100.7333V63.96H94.86L89.6067 58.7067Z"></path></svg>