<svg width="144" height="144" xmlns="http://www.w3.org/2000/svg" fill="white"><path fill-rule="evenodd" clip-rule="evenodd" d="M36.48 39.0833H104.1867L106.7933 41.6867V70.35C105.1801 69.1386 103.4317 68.1184 101.5833 67.31V44.2933H39.0833V91.1667H65.1267C65.1259 96.8017 66.9529 102.2849 70.3333 106.7933H49.5V101.5833H65.1267V96.3733H36.48L33.8733 93.7733V41.6833L36.48 39.08ZM91.1667 70.3333C75.1292 70.3333 65.1057 87.6944 73.1245 101.5833C76.846 108.0292 83.7236 112 91.1667 112C107.2042 112 117.2276 94.6389 109.2089 80.75C105.4873 74.3041 98.6097 70.3333 91.1667 70.3333ZM91.1667 106.7933C91.1667 118.824 93.7714 110.7149 83.3525 104.6995C72.9336 98.6842 72.9336 83.6458 83.3525 77.6305C85.7283 76.2588 88.4233 75.5367 91.1667 75.5367C99.798 75.5367 91.1667 98.162 91.1667 106.7933ZM99.8433 96.3533L92.6667 89.1767L99.8433 82L102 84.1533L96.98 89.1767L102 94.1967L99.8433 96.3533ZM82 89.4867L87.02 94.51L82 99.53L84.1567 101.6867L91.3333 94.51L84.1567 87.3333L82 89.4867Z"></path></svg>