<svg width="144" height="144" xmlns="http://www.w3.org/2000/svg" fill="white"><path fill-rule="evenodd" clip-rule="evenodd" d="M48.105 50.695L59.41 62.04L70.5 50.92L67 47.42L61.94 52.455L61.9 44.455C61.8906 43.0487 62.995 41.8868 64.4 41.825H72V37H64.4C60.2978 37.0055 56.9806 40.3428 57 44.445V52.5L51.635 47.165L48.105 50.695ZM81.455 59.665H81.505C82.42 61.22 83.76 62 85.535 62C87.5 62 89.065 61.16 90.235 59.485C91.415 57.81 92 55.585 92 52.82C92 50.265 91.5 48.255 90.495 46.785C89.49 45.31 88.055 44.575 86.195 44.575C84.17 44.575 82.605 45.545 81.505 47.48H81.455V37H77V61.595H81.45V59.665ZM81.38 54.36V52.66C81.38 51.42 81.67 50.42 82.255 49.655C82.7633 48.93 83.5946 48.5003 84.48 48.505C85.3637 48.4715 86.1968 48.9167 86.66 49.67C87.18 50.44 87.435 51.51 87.435 52.885C87.435 54.535 87.155 55.82 86.59 56.725C86.1183 57.5767 85.2133 58.0966 84.24 58.075C83.4228 58.0842 82.6538 57.6894 82.185 57.02C81.629 56.2474 81.3474 55.3111 81.385 54.36ZM77 95.845C75.72 96.615 73.875 97 71.46 97C68.645 97 66.36 96.11 64.615 94.335C62.87 92.56 62 90.27 62 87.465C62 84.225 62.93 81.675 64.8 79.815C66.67 77.935 69.175 77 72.3 77C74.465 77 76.03 77.3 77 77.895V82.885C75.8763 81.9863 74.4789 81.4993 73.04 81.505C71.415 81.505 70.125 82.005 69.17 82.995C68.22 83.975 67.755 85.335 67.755 87.075C67.755 88.765 68.205 90.09 69.115 91.06C70.025 92.015 71.27 92.495 72.86 92.495C74.27 92.495 75.65 92.035 77 91.115V95.845ZM52 67L47 72V102L52 107H87L92 102V72L87 67H52ZM52 72H87V102H52V72Z"></path></svg>