<svg width="144" height="144" xmlns="http://www.w3.org/2000/svg" fill="white"><path fill-rule="evenodd" clip-rule="evenodd" d="M90 45.385C90.735 43.835 91.78 43.06 93.13 43.06C94.37 43.06 95.33 43.65 95.995 44.825C96.665 46.005 97 47.61 97 49.655C97 51.87 96.61 53.645 95.825 54.99C95.045 56.33 94 57 92.69 57C91.505 57 90.61 56.375 90.005 55.13H89.965V56.68H87V37H89.965V45.385H90.005ZM89.92 50.885C89.8906 51.6316 90.0763 52.3709 90.455 53.015C90.81 53.58 91.27 53.86 91.825 53.86C92.505 53.86 93.025 53.5 93.395 52.78C93.77 52.055 93.96 51.03 93.96 49.705C93.96 48.605 93.785 47.755 93.44 47.135C93.105 46.515 92.62 46.2 91.99 46.2C91.39 46.2 90.895 46.51 90.505 47.125C90.0864 47.8533 89.8835 48.6857 89.92 49.525V50.885ZM52.6 70.475L42 59.84L45.31 56.53L50.34 61.53V53.98C50.3234 50.1358 53.4307 47.0083 57.275 47H69V51.525H57.275C55.9592 51.5841 54.9256 52.6729 54.935 53.99L54.97 61.49L59.715 56.77L62.995 60.05L52.595 70.475ZM78.78 56.65H82V48.1C82 44.04 80.425 42 77.28 42C76.605 42 75.855 42.12 75.03 42.365C74.3459 42.5467 73.6922 42.8281 73.09 43.2V46.525C74.275 45.51 75.525 45.005 76.84 45.005C78.145 45.005 78.8 45.785 78.8 47.35L75.8 47.865C73.27 48.295 72 49.895 72 52.67C72 53.985 72.305 55.035 72.915 55.825C73.5204 56.6034 74.4647 57.0412 75.45 57C76.9 57 77.995 56.2 78.735 54.6H78.78V56.65ZM78.8 49.875V50.84C78.8291 51.6111 78.6195 52.3724 78.2 53.02C77.8593 53.5537 77.2682 53.8748 76.635 53.87C76.2151 53.8874 75.8102 53.7126 75.535 53.395C75.2597 53.0417 75.118 52.6026 75.135 52.155C75.135 51.045 75.685 50.4 76.795 50.21L78.795 49.875ZM67 96.65H63.78V94.6H63.735C62.995 96.2 61.9 97 60.45 97C59.4647 97.0412 58.5204 96.6034 57.915 95.825C57.305 95.035 57 93.985 57 92.675C57 89.895 58.27 88.295 60.8 87.865L63.8 87.35C63.8 85.785 63.15 85 61.84 85C60.525 85 59.275 85.51 58.09 86.525V83.2C58.565 82.885 59.21 82.605 60.03 82.365C60.855 82.12 61.605 82 62.28 82C65.43 82 67 84.035 67 88.1V96.65ZM63.8 90.84V89.875L61.8 90.215C60.69 90.4 60.135 91.045 60.135 92.155C60.135 92.655 60.27 93.07 60.535 93.395C60.8102 93.7126 61.2151 93.8874 61.635 93.87C62.2664 93.8731 62.8553 93.5522 63.195 93.02C63.595 92.44 63.795 91.72 63.795 90.84ZM78.31 97C79.915 97 81.15 96.71 82 96.135V92.585C81.2223 93.2301 80.2501 93.5946 79.24 93.62C78.2854 93.6669 77.3626 93.2701 76.74 92.545C76.14 91.82 75.835 90.82 75.835 89.555C75.835 88.255 76.15 87.235 76.78 86.495C77.4238 85.7478 78.3746 85.3369 79.36 85.38C80.33 85.38 81.21 85.725 82 86.415V82.67C81.355 82.22 80.31 82 78.87 82C76.785 82 75.115 82.7 73.865 84.11C72.62 85.51 72 87.42 72 89.85C72 91.95 72.58 93.67 73.745 95C74.905 96.335 76.43 97 78.31 97ZM42 77L47 72H92L97 77V102L92 107H47L42 102V77ZM47 77V102H92V77H47ZM62 67L67 62H102L107 67V92L102 97V67H62Z"></path></svg>