<svg width="144" height="144" xmlns="http://www.w3.org/2000/svg" fill="white"><path d="M102 52C102.0154 44.302 93.6916 39.4741 87.0173 43.3098C80.343 47.1455 80.3238 56.768 86.9828 60.6303C87.8157 61.1134 88.7141 61.4737 89.65 61.7V67C89.6662 67.9335 89.1396 68.7917 88.3 69.2L74.45 76.4L60.65 69.4C59.7505 68.9525 59.2153 68.0011 59.3 67V61.7C66.7536 59.7755 69.3287 50.504 63.9353 45.0112C58.5418 39.5185 49.2249 41.9242 47.1647 49.3414C45.6676 54.7315 48.8834 60.3014 54.3 61.7V67C54.3059 69.8244 55.8877 72.4094 58.4 73.7L72 80.7V87.3C64.5464 89.2245 61.9713 98.496 67.3647 103.9888C72.7582 109.4815 82.0751 107.0758 84.1353 99.6586C85.6324 94.2685 82.4166 88.6986 77 87.3V80.7L90.5 73.9C93.0947 72.5957 94.695 69.9025 94.6 67V61.6C98.946 60.4299 101.9747 56.5006 102 52ZM52 52C52 48.151 56.1667 45.7454 59.5 47.6699C61.047 48.563 62 50.2137 62 52C62 55.849 57.8333 58.2546 54.5 56.3301C52.953 55.437 52 53.7863 52 52ZM79.35 97C79.35 100.849 75.1833 103.2546 71.85 101.3301C70.303 100.437 69.35 98.7863 69.35 97C69.35 93.151 73.5167 90.7454 76.85 92.6699C78.397 93.563 79.35 95.2137 79.35 97ZM92 57C88.151 57 85.7454 52.8333 87.6699 49.5C88.563 47.953 90.2137 47 92 47C95.849 47 98.2546 51.1667 96.3301 54.5C95.437 56.047 93.7863 57 92 57Z"></path></svg>