<svg width="144" height="144" xmlns="http://www.w3.org/2000/svg" fill="white"><path fill-rule="evenodd" clip-rule="evenodd" d="M102 82V39.5L99.5 37H50.7C49.5533 37.0127 48.4183 37.2329 47.35 37.65C45.1746 38.6167 43.4804 40.4191 42.65 42.65C42.241 43.6335 42.0205 44.6851 42 45.75V93.25C41.988 94.3991 42.2091 95.5388 42.65 96.6C43.535 98.735 45.225 100.44 47.35 101.35C48.4183 101.7671 49.5533 101.9873 50.7 102H52V97H50.7C50.2011 97.0016 49.7073 96.8994 49.25 96.7C48.3448 96.3245 47.6255 95.6052 47.25 94.7C47.0902 94.233 47.0059 93.7435 47 93.25V90.75C47.0059 90.2565 47.0902 89.767 47.25 89.3C47.6255 88.3948 48.3448 87.6755 49.25 87.3C49.7011 87.1033 50.1878 87.0012 50.68 87H97V97H77V102H99.5L102 99.5V82ZM52 82V42H97V82H52ZM57 47H62V52H57V47ZM57 57H62V62H57V57ZM62 67H57V72H62V67ZM64.5 99.45L58.4 107H57V92H72V107H70.6L64.5 99.45Z"></path></svg>