<svg width="144" height="144" xmlns="http://www.w3.org/2000/svg" fill="white"><path fill-rule="evenodd" clip-rule="evenodd" d="M97 39.5V47H92V42H47V82H97V99.5L94.5 102H72V97H92V87H45.675C45.1845 87.0019 44.6996 87.104 44.25 87.3C43.3448 87.6755 42.6255 88.3948 42.25 89.3C42.0902 89.767 42.0059 90.2565 42 90.75V93.25C42.0059 93.7435 42.0902 94.233 42.25 94.7C42.6255 95.6052 43.3448 96.3245 44.25 96.7C44.705 96.9 45.2 97 45.7 97H47V102H45.7C44.5533 101.9873 43.4183 101.7671 42.35 101.35C40.2228 100.4417 38.5358 98.7367 37.65 96.6C37.2091 95.5388 36.988 94.3991 37 93.25V45.75C37.0205 44.6851 37.241 43.6335 37.65 42.65C38.4804 40.4191 40.1746 38.6167 42.35 37.65C43.4183 37.2329 44.5533 37.0127 45.7 37H94.5L97 39.5ZM42 82.85V45.74V82.85ZM57 47H52V52H57V47ZM57 57H52V62H57V57ZM52 67H57V72H52V67ZM92.35 48.95L88.85 52.5L98.45 62.1H67V67.1H98.95L88.85 77.25L92.35 80.75L106.5 66.65V63.1L92.35 48.95ZM59.5 99.45L53.4 107H52V92H67V107H65.6L59.5 99.45Z"></path></svg>