<svg width="144" height="144" xmlns="http://www.w3.org/2000/svg" fill="white"><path fill-rule="evenodd" clip-rule="evenodd" d="M99.5 37H50.7C45.8755 36.9999 41.9723 40.9256 42 45.75V93.25C41.9723 98.0744 45.8755 102.0001 50.7 102H67V97H50.7C48.6369 97.0002 46.9721 95.313 47 93.25V90.75C46.9721 88.687 48.6369 86.9998 50.7 87H67V82H52V42H97V82H82V87H97V97H82V102H99.5L102 99.5V39.5L99.5 37ZM47 45.65C46.9996 45.6833 46.9996 45.7167 47 45.75V82.85V45.65ZM62 47H57V52H62V47ZM58.9 75.25L62.45 78.75L72.05 69.15V107H77.05V68.64L87.2 78.75L90.7 75.25L76.6 61.1H73.05L58.9 75.25ZM57 57H62V62H57V57Z"></path></svg>