<svg width="144" height="144" xmlns="http://www.w3.org/2000/svg" fill="white"><path fill-rule="evenodd" clip-rule="evenodd" d="M97 82H52V42H72V37H50.7C49.5533 37.0127 48.4183 37.2329 47.35 37.65C46.2647 38.1223 45.293 38.8213 44.5 39.7C43.6897 40.5478 43.0603 41.5514 42.65 42.65C42.2387 43.6328 42.0181 44.6848 42 45.75V93.25C41.9848 96.7824 44.0951 99.9774 47.35 101.35C48.4183 101.7671 49.5533 101.9873 50.7 102H52V97H50.7C50.2011 97.0016 49.7073 96.8994 49.25 96.7C48.3566 96.3071 47.6429 95.5934 47.25 94.7C47.1742 94.2196 47.1742 93.7304 47.25 93.25V90.75C47.1742 90.2696 47.1742 89.7804 47.25 89.3C47.6429 88.4066 48.3566 87.6929 49.25 87.3C49.7073 87.1006 50.2011 86.9984 50.7 87H97V97H77V102H99.5L102 99.5V77H97V82ZM62 47H57V52H62V47ZM57 57H62V62H57V57ZM57 67H62V72H57V67ZM58.4 107H57V92H72V107H70.6L64.5 99.45L58.4 107ZM82 37H104.5L107 39.5V69.5L104.5 72H92V77H87V72H82C79.2386 72 77 69.7614 77 67V42C77 39.2386 79.2386 37 82 37ZM84.5 67H87V62H84.5C82.5755 62 81.3727 64.0833 82.3349 65.75C82.7815 66.5235 83.6068 67 84.5 67ZM92 67H102V62H92V67ZM87 57H102V42H87V57Z"></path></svg>