<svg width="144" height="144" xmlns="http://www.w3.org/2000/svg" fill="white"><path fill-rule="evenodd" clip-rule="evenodd" d="M50.7 37H99.5L102 39.5V99.5L99.5 102H82V97H97V87H82V82H97V42H52V82H67V87H50.7C48.6369 86.9998 46.9721 88.687 47 90.75V93.25C46.9721 95.313 48.6369 97.0002 50.7 97H67V102H50.7C45.8755 102.0001 41.9723 98.0744 42 93.25V45.75C41.9723 40.9256 45.8755 36.9999 50.7 37ZM58.7 61.15L62.25 64.65L72 54.9V62.15L58.9 75.25L62.45 78.75L72.05 69.15V107H77.05V68.64L87.2 78.75L90.7 75.25L77 61.5V54.69L87 64.65L90.5 61.15L76.4 47H72.85L58.7 61.15Z"></path></svg>