<svg width="144" height="144" xmlns="http://www.w3.org/2000/svg" fill="white"><path fill-rule="evenodd" clip-rule="evenodd" d="M104.455 37C86.465 37.02 71.185 46.915 60.28 57H39.5L37 59.5V74.5L37.735 76.27L42.69 81.225L42.695 81.27L62.695 101.27L62.74 101.275L67.735 106.27L69.5 107H84.5L87 104.5V83.73C97.095 72.84 106.98 57.565 106.96 39.5L104.455 37ZM42 62H55.215C51.1789 66.2373 47.4605 70.7662 44.09 75.55L42 73.47V62ZM70.5 102L68.4 99.885C73.1935 96.5334 77.731 92.8298 81.975 88.805V102H70.5ZM64.785 96.28L47.68 79.185C52.64 72 73.895 43.775 101.89 42.08C100.26 70.14 71.955 91.345 64.785 96.28ZM52 107V102H42V92H37V107H52ZM85.74 68.665C88.9462 63.8614 85.7501 57.3884 79.987 57.0135C77.3123 56.8395 74.748 58.1057 73.26 60.335C70.0538 65.1366 73.2478 71.6085 79.0093 71.9843C81.6831 72.1588 84.247 70.8934 85.735 68.665Z"></path></svg>