<svg width="144" height="144" xmlns="http://www.w3.org/2000/svg" fill="white"><path fill-rule="evenodd" clip-rule="evenodd" d="M70.55 47H104.5L107.05 49.5V99.5L104.55 102H75.715C76.9892 100.4582 78.0908 98.7816 79 97H101.95V89.45L102 69.45V61.95H70.45L70.365 62.035C68.9784 61.054 67.5037 60.2037 65.96 59.495L67.7 57.75L69.45 57H101.95L102 52.05H69.5L67.7 51.3L63.45 47.05H42V60C40.2371 60.8987 38.5773 61.9868 37.05 63.245V44.5L39.55 42H64.55L66.3 42.75L70.55 47Z"></path><path d="M62 84.5C62 90.2735 55.75 93.8819 50.75 90.9952C48.4295 89.6554 47 87.1795 47 84.5C47 78.7265 53.25 75.1181 58.25 78.0048C60.5705 79.3446 62 81.8205 62 84.5Z"></path><path fill-rule="evenodd" clip-rule="evenodd" d="M72 84.5C72 97.9715 57.4167 106.3912 45.75 99.6554C40.3355 96.5294 37 90.7521 37 84.5C37 71.0285 51.5833 62.6088 63.25 69.3446C68.6645 72.4706 72 78.2479 72 84.5ZM54.5 97C64.1225 97 70.1366 86.5833 65.3253 78.25C63.0924 74.3825 58.9658 72 54.5 72C44.8775 72 38.8634 82.4167 43.6747 90.75C45.9076 94.6175 50.0342 97 54.5 97Z"></path></svg>