<svg width="144" height="144" xmlns="http://www.w3.org/2000/svg" fill="white"><path fill-rule="evenodd" clip-rule="evenodd" d="M37 63.285V44.5L39.5 42H64.5L66.25 42.75L70.55 47H99.5L102 49.5V62H107.65L110.05 65.15L96.9 100.15L94.5 102H75.715C76.9892 100.4582 78.0908 98.7816 79 97H92.65L104.5 67H75.715C74.6291 65.685 73.424 64.4731 72.115 63.38L72.75 62.75L74.5 62H97V52H69.5L67.75 51.25L63.45 47H42L42.05 59.97C40.245 60.89 38.55 62.005 37 63.285Z"></path><path d="M62 84.5C62 90.2735 55.75 93.8819 50.75 90.9952C48.4295 89.6554 47 87.1795 47 84.5C47 78.7265 53.25 75.1181 58.25 78.0048C60.5705 79.3446 62 81.8205 62 84.5Z"></path><path fill-rule="evenodd" clip-rule="evenodd" d="M72 84.5C72 97.9715 57.4167 106.3912 45.75 99.6554C40.3355 96.5294 37 90.7521 37 84.5C37 71.0285 51.5833 62.6088 63.25 69.3446C68.6645 72.4706 72 78.2479 72 84.5ZM54.5 97C64.1225 97 70.1366 86.5833 65.3253 78.25C63.0924 74.3825 58.9658 72 54.5 72C44.8775 72 38.8634 82.4167 43.6747 90.75C45.9076 94.6175 50.0342 97 54.5 97Z"></path></svg>