<svg width="144" height="144" xmlns="http://www.w3.org/2000/svg" fill="white"><path fill-rule="evenodd" clip-rule="evenodd" d="M57 44.05L60.9 42L105.9 72V76.15L77 95.4165V89.413L100 74.1L62 48.75V67H57V44.05Z"></path><path fill-rule="evenodd" clip-rule="evenodd" d="M56.3614 71.0402C52.1107 70.7745 47.8358 71.8335 44.3429 74.2466C40.5823 76.669 38.1778 80.1635 36.8524 84.399C35.5066 88.444 35.7849 92.9915 37.3823 96.985C38.9931 101.012 41.9421 104.22 45.6687 106.3495C49.4488 108.5095 53.7493 109.035 58.0034 108.2375C62.3099 107.43 66.0563 105.014 68.7222 101.815L68.7459 101.784C71.3879 98.349 73.007 94.34 73.007 90.0265C73.007 84.7015 71.1349 80.1524 67.6732 76.4244L67.6471 76.3982C64.7222 73.4734 60.7028 71.3115 56.3614 71.0402ZM46.753 77.9141C49.3135 76.0519 52.6131 75.3302 55.7156 75.5689L55.7211 75.5693C59.0025 75.8037 61.8235 77.2035 64.206 79.586C66.7844 82.1645 68.2201 85.9535 68.2201 89.773V89.809L68.2227 89.8445C68.4545 93.0895 67.304 96.146 65.3879 98.7895C63.258 101.3825 60.4228 103.0355 57.3409 103.7465C54.2943 104.45 51.0081 103.9815 48.1888 102.337C45.3313 100.6705 43.1893 98.295 41.7523 95.181C40.3526 92.1485 40.3396 88.861 41.2936 85.76L41.2992 85.741C42.2498 82.4135 44.1424 79.8126 46.753 77.9141ZM54.5255 87.062L48.4596 80.7435L45.2716 83.9315L51.3658 90.2795L45.2716 96.628L48.4596 99.816L54.5255 93.497L60.5915 99.816L63.7795 96.628L57.6852 90.2795L63.7795 83.9315L60.5915 80.7435L54.5255 87.062Z"></path></svg>