<svg width="144" height="144" xmlns="http://www.w3.org/2000/svg" fill="white"><path fill-rule="evenodd" clip-rule="evenodd" d="M87.2 38.65L95.55 47L97 50.55V52.2H94.5L92 54.7V50.55L83.65 42.2H82V62.2H52V42.2H42V92.2H57L54.5 97.2H42L37 92.2V42.2L42 37.2H83.65L87.2 38.65ZM67 57H77V42H67V57ZM99.5 57L107 64.5L106.9 67.95L79.4 95.45L78.75 96.05L76.9 97.9L76.4 98.35L61.4 105.85L58.05 102.5L65.55 87.5L66 87L67.85 85.15L68.45 84.5L95.95 57H99.5ZM68.4 93.2L65.8 98.2L71 95.8L68.4 93.2ZM71.85 88.05L75.8 92L101.55 66.25L97.6 62.3L71.85 88.05Z"></path></svg>