<svg width="144" height="144" xmlns="http://www.w3.org/2000/svg" fill="white"><path fill-rule="evenodd" clip-rule="evenodd" d="M60.69 48.59C53.9467 55.3358 52.1896 65.6003 56.305 74.205C57.7591 77.2352 59.8764 79.8993 62.5 82C62.152 83.6435 61.9844 85.3201 62 87V87.85C61.2 87.3 60.4 86.75 59.65 86.15L40.75 104.5L37 101.2L56 82.75C41.9759 66.8921 50.3775 41.7994 71.1229 37.5831C88.1504 34.1225 104.0797 47.1244 104.1 64.5C104.1 65.84 104 67.175 103.8 68.5C102.3642 67.1959 100.7879 66.0556 99.1 65.1V64.5C99.1001 47.1795 80.3502 36.354 65.3502 45.0141C63.6472 45.9973 62.0805 47.1995 60.69 48.59ZM75.89 70.37C88.6469 61.7504 105.951 70.1729 107.0374 85.5305C107.5468 92.7328 104.1347 99.6506 98.11 103.63C85.2634 112.1153 68.0486 103.5118 67.1234 88.1436C66.6985 81.086 70.0315 74.3285 75.89 70.37ZM76.39 97.605C79.2036 100.4195 83.0203 102.0005 87 102C90.1152 102.009 93.1559 101.0478 95.7 99.25L74.75 78.3C72.9522 80.8441 71.991 83.8848 72 87C72.0008 90.9779 73.5818 94.7926 76.395 97.605ZM78.3 74.755L99.25 95.7C101.0478 93.1559 102.009 90.1152 102 87C102 78.7157 95.2843 72 87 72C83.8848 71.991 80.8441 72.9522 78.3 74.75Z"></path></svg>