<svg width="144" height="144" xmlns="http://www.w3.org/2000/svg" fill="white"><path d="M82.8333 32C61.6638 31.9894 48.4215 54.8995 58.9971 73.2381C59.9218 74.8416 61.006 76.3477 62.2333 77.7333L35.3333 108.2667L39.0667 111.6L65.9 81.2C82.5764 94.2443 107.1201 84.3442 110.0785 63.3798C112.4153 46.8209 99.5563 32.0262 82.8333 32.0333V32ZM82.8333 82C65.5128 82 54.6875 63.25 63.3478 48.25C67.367 41.2885 74.7949 37 82.8333 37C100.1538 37 110.9792 55.75 102.3189 70.75C98.2997 77.7115 90.8718 82 82.8333 82Z"></path></svg>