<svg width="144" height="144" xmlns="http://www.w3.org/2000/svg" fill="white"><path fill-rule="evenodd" clip-rule="evenodd" d="M39.5 42H104.5L107 44.5V77H102V62H42V97H77V102H39.5L37 99.5V44.5L39.5 42ZM42 57H102V47H42V57ZM67 92V86.53C66.1504 86.2212 65.3579 85.7734 64.655 85.205L59.93 87.9L57.43 83.6L62.115 80.865C61.955 79.9604 61.955 79.0346 62.115 78.13L57.43 75.4L59.93 71.1L64.655 73.8C65.41 73.2 66.195 72.755 67 72.47V67H72V72.47C72.8561 72.7645 73.651 73.2136 74.345 73.795L79.07 71.1L81.57 75.4L76.885 78.135C77.0445 79.038 77.0445 79.962 76.885 80.865L81.57 83.6L79.07 87.9L74.345 85.2C73.6342 85.7581 72.8438 86.2064 72 86.53V92H67ZM65.75 79.5C65.75 80.54 66.115 81.425 66.845 82.155C67.5408 82.871 68.5018 83.2673 69.5 83.25C70.4982 83.2673 71.4592 82.871 72.155 82.155C72.871 81.4592 73.2673 80.4982 73.25 79.5C73.2673 78.5018 72.871 77.5408 72.155 76.845C71.4592 76.129 70.4982 75.7327 69.5 75.75C68.5018 75.7327 67.5408 76.129 66.845 76.845C66.129 77.5408 65.7327 78.5018 65.75 79.5ZM92.42 107V101.53C91.5704 101.2211 90.778 100.7734 90.075 100.205L85.35 102.9L82.85 98.6L87.54 95.865C87.3802 94.9603 87.3802 94.0347 87.54 93.13L82.85 90.4L85.35 86.1L90.075 88.8C90.83 88.2 91.615 87.755 92.425 87.47V82H97.425V87.47C98.2791 87.7657 99.0721 88.2147 99.765 88.795L104.49 86.1L106.99 90.4L102.305 93.135C102.4653 94.0379 102.4653 94.9621 102.305 95.865L106.99 98.6L104.49 102.9L99.765 100.2C99.0543 100.7582 98.2638 101.2065 97.42 101.53V107H92.42ZM91.17 94.5C91.17 95.54 91.535 96.425 92.265 97.155C92.9608 97.871 93.9218 98.2673 94.92 98.25C95.9182 98.2673 96.8792 97.871 97.575 97.155C98.2928 96.46 98.691 95.499 98.675 94.5C98.691 93.501 98.2928 92.54 97.575 91.845C96.8804 91.1303 95.9215 90.7341 94.925 90.75C93.925 90.7313 92.962 91.1278 92.265 91.845C91.549 92.5408 91.1527 93.5018 91.17 94.5Z"></path></svg>