<svg width="144" height="144" xmlns="http://www.w3.org/2000/svg" fill="white"><path fill-rule="evenodd" clip-rule="evenodd" d="M44.5 57L42 54.5V39.5L44.5 37H99.5L102 39.5V54.5L99.5 57H44.5ZM82 42H77V47H72V42H67V47H62V42H57V47H52V42H47V52H97V42H87V47H82V42ZM44.5 82L42 79.5V64.5L44.5 62H99.5L102 64.5V79.5L99.5 82H44.5ZM62 67H57V72H52V67H47V77H97V67H87V72H82V67H77V72H72V67H67V72H62V67ZM99.5 107L102 104.5V89.5L99.5 87H44.5L42 89.5V104.5L44.5 107H99.5ZM47 102V92H52V97H57V92H62V97H67V92H72V97H77V92H82V97H87V92H97V102H47Z"></path></svg>