<svg width="144" height="144" xmlns="http://www.w3.org/2000/svg" fill="white"><path d="M62 47H82V52H62V47ZM62 77H82V82H62V77ZM62 87H82V92H62V87ZM107.7 112H36.3L42.55 87H52V42C51.9959 41.3415 52.1287 40.6894 52.39 40.085C52.65 39.485 53.005 38.955 53.445 38.485C53.8947 38.0107 54.4401 37.6375 55.045 37.39C55.6643 37.1314 56.3289 36.9988 57 37H87C87.6585 36.9959 88.3106 37.1287 88.915 37.39C89.515 37.65 90.045 38.005 90.515 38.445C90.9893 38.8947 91.3625 39.4401 91.61 40.045C91.87 40.67 92 41.325 92 42V87H101.45L107.7 112ZM57 97H87V42H57V97ZM101.3 107L97.55 92H92V102H52V92H46.45L42.7 107H101.3Z"></path></svg>