<svg width="144" height="144" xmlns="http://www.w3.org/2000/svg" fill="white"><path fill-rule="evenodd" clip-rule="evenodd" d="M98.1667 61.1667L112 63.9333V80.0667L98.1667 82.8333L106 94.5667L94.5667 106L82.8333 98.1667L80.0667 112H63.9333L61.1667 98.1667L49.4333 106L38 94.5667L45.8333 82.8333L32 80.0667V63.9333L45.8333 61.1667L38 49.4333L49.4333 38L61.1667 45.8333L63.9333 32H80.0667L82.8333 45.8333L94.5667 38L106 49.4333L98.1667 61.1667ZM92.9333 78.0667L106.2667 75.3667V68.7L92.9333 66L91.1333 61.6667L98.7667 50.2333L94 45.4667L82.5667 53.1L78.2333 51.3L75.5333 37.9667H68.8667L66.1667 51.3L61.8333 53.1L50.4 45.4667L45.6333 50.2333L53.2667 61.6667L51.4667 66L38.1333 68.7V75.3667L51.4667 78.0667L53.2667 82.4L45.6333 93.8333L50.4 98.6L61.8333 90.9667L66.1667 92.7667L68.8667 106.1H75.5333L78.2333 92.7667L82.5667 90.9667L94 98.6L98.7667 93.8333L91.1333 82.4L92.9333 78.0667ZM65.6467 62.4933C67.5273 61.2368 69.7383 60.5663 72 60.5667C78.3069 60.585 83.415 65.6931 83.4333 72C83.4325 80.8014 73.9042 86.3014 66.2824 81.8999C58.9469 77.6639 58.6042 67.2004 65.6467 62.4933ZM68.8333 76.74C69.77 77.3667 70.8733 77.7 72 77.7C75.1557 77.7186 77.7186 75.1557 77.7 72C77.6996 67.6121 72.9493 64.8702 69.1495 67.0645C65.4922 69.1766 65.3217 74.3937 68.8333 76.74Z"></path></svg>