<svg width="144" height="144" xmlns="http://www.w3.org/2000/svg" fill="white"><path fill-rule="evenodd" clip-rule="evenodd" d="M73.23 105.565C70.6714 104.0575 68.1618 102.4683 65.705 100.8C63.2 99.1 60.79 97.265 58.485 95.3C56.195 93.325 54.045 91.2 52.045 88.93C50.045 86.655 48.28 84.18 46.795 81.54C45.3009 78.8704 44.1262 76.0342 43.295 73.09C42.424 69.9682 41.9882 66.741 42 63.5V47.5L44.5 45C46.165 45 47.78 44.945 49.35 44.82C50.83 44.705 52.305 44.49 53.76 44.18C55.18 43.87 56.57 43.44 57.92 42.9C59.34 42.31 60.705 41.595 62 40.765C63.8357 39.5585 65.8274 38.608 67.92 37.94C71.1662 37.002 74.5739 36.7601 77.92 37.23C80.0716 37.5297 82.1604 38.1765 84.105 39.145C85.1 39.63 86.065 40.165 87.005 40.755C88.305 41.59 89.68 42.305 91.11 42.895C92.46 43.44 93.845 43.865 95.265 44.175C96.72 44.485 98.2 44.705 99.685 44.82C101.24 44.94 102.855 44.995 104.52 44.995L107.02 47.495V63.495C107.037 66.737 106.6063 69.9658 105.74 73.09C104.9086 76.0341 103.7339 78.8703 102.24 81.54C100.7506 84.1785 98.9911 86.6551 96.99 88.93C94.99 91.19 92.845 93.315 90.56 95.28C88.2533 97.2496 85.836 99.0859 83.32 100.78C80.8535 102.4513 78.3357 104.0454 75.77 105.56H73.23ZM47 49.95V63.5C46.98 66.275 47.35 69.05 48.1 71.725C48.8199 74.2926 49.8438 76.7651 51.15 79.09C52.465 81.425 54.025 83.615 55.8 85.63C57.65 87.715 59.63 89.68 61.74 91.5C63.9 93.34 66.155 95.06 68.5 96.65C70.5 97.985 72.5 99.265 74.5 100.495C76.5 99.285 78.5 98.005 80.5 96.655C82.85 95.06 85.115 93.34 87.275 91.5C89.38 89.68 91.36 87.72 93.205 85.64C94.9758 83.6257 96.534 81.4341 97.855 79.1C99.16 76.775 100.185 74.3 100.905 71.735C101.655 69.05 102.02 66.285 102.005 63.5V49.95C101.21 49.95 100.44 49.89 99.68 49.835L99.285 49.805C97.5742 49.6701 95.874 49.4246 94.195 49.07C90.6882 48.3041 87.3438 46.9264 84.315 45C83.5363 44.5073 82.7318 44.0567 81.905 43.65C80.4201 42.9199 78.8286 42.4305 77.19 42.2C74.5853 41.8183 71.929 41.999 69.4 42.73C67.74 43.27 66.155 44.03 64.7 44.99C63.14 45.99 61.5 46.85 59.785 47.555C58.163 48.2022 56.4908 48.7156 54.785 49.09C53.11 49.44 51.41 49.69 49.7 49.82C48.83 49.87 47.925 49.92 47 49.95ZM77.325 71.45C82.6733 69.2753 83.6618 62.1265 79.1043 58.5821C74.5468 55.0377 67.8615 57.756 67.0707 63.4751C66.6008 66.8736 68.4968 70.1577 71.675 71.45L69.5 84.5H79.5L77.325 71.45Z"></path></svg>