<svg width="144" height="144" xmlns="http://www.w3.org/2000/svg" fill="white"><path fill-rule="evenodd" clip-rule="evenodd" d="M52.555 42.9C74.8337 27.748 105.1605 42.3954 107.1432 69.2654C108.0784 81.94 102.0695 94.1256 91.445 101.1C69.0438 116.0707 38.8368 101.1774 37.0724 74.292C36.2535 61.8145 42.1536 49.8479 52.55 42.9ZM55.335 96.945C74.4704 109.8744 100.4265 97.2406 102.056 74.2042C102.8202 63.4007 97.7021 53.0241 88.665 47.055C69.3951 34.327 43.5729 47.2323 42.185 70.2846C41.5477 80.871 46.5473 91.0073 55.335 96.945ZM64.5 67C64.5 70.849 60.3333 73.2546 57 71.3301C55.453 70.437 54.5 68.7863 54.5 67C54.5 63.151 58.6667 60.7454 62 62.6699C63.547 63.563 64.5 65.2137 64.5 67ZM89.5 67C89.5 70.849 85.3333 73.2546 82 71.3301C80.453 70.437 79.5 68.7863 79.5 67C79.5 63.151 83.6667 60.7454 87 62.6699C88.547 63.563 89.5 65.2137 89.5 67ZM72 87C66.4639 87.0136 61.3704 83.9767 58.75 79.1L54.4 81.5C61.7194 95.0449 80.9567 95.587 89.0273 82.4758C89.3813 81.9007 89.7059 81.308 90 80.7L85.5 78.55C82.9904 83.7203 77.7472 87.0022 72 87Z"></path></svg>