<svg width="144" height="144" xmlns="http://www.w3.org/2000/svg" fill="white"><path d="M102.0233 59.4067C102.0686 49.8151 91.7136 43.7714 83.3844 48.528C82.9574 48.7718 82.5452 49.0408 82.15 49.3333C74.4463 55.0433 75.8127 66.9516 84.6096 70.7683C85.0636 70.9653 85.5291 71.135 86.0033 71.2767C84.3357 74.6698 80.8907 76.8261 77.11 76.8433H67.1433C63.4553 76.8559 59.9038 78.2402 57.18 80.7267V56.6667C66.5756 54.7499 70.3729 43.3808 64.0151 36.2024C57.6573 29.0239 45.9127 31.4199 42.8749 40.5152C40.5064 47.6065 44.8745 55.1722 52.2 56.6667V87.0567C42.6829 88.8747 38.7027 100.3136 45.0357 107.6466C51.3688 114.9797 63.2652 112.7072 66.4493 103.5561C68.794 96.8175 65.0744 89.4793 58.2533 87.3867C59.925 83.9986 63.3687 81.8469 67.1467 81.83H77.1133C83.4851 81.799 89.1367 77.732 91.19 71.7C97.3668 70.8897 101.9946 65.6397 102.0233 59.41ZM47.2167 44.46C47.2167 38.707 53.4444 35.1114 58.4267 37.9879C60.7389 39.3229 62.1633 41.79 62.1633 44.46C62.1633 50.213 55.9356 53.8086 50.9533 50.9321C48.6411 49.5971 47.2167 47.13 47.2167 44.46ZM62.1633 99.2633C62.1633 105.0163 55.9356 108.6119 50.9533 105.7354C48.6411 104.4004 47.2167 101.9333 47.2167 99.2633C47.2167 93.5104 53.4444 89.9147 58.4267 92.7912C60.7389 94.1262 62.1633 96.5934 62.1633 99.2633ZM89.5667 66.88C83.8124 66.88 80.216 60.6508 83.0931 55.6675C85.9703 50.6842 93.1631 50.6842 96.0402 55.6675C96.6963 56.8038 89.5667 50.6179 89.5667 51.93C89.5667 56.0583 93.695 66.88 89.5667 66.88Z"></path></svg>