<svg width="144" height="144" xmlns="http://www.w3.org/2000/svg" fill="white"><path fill-rule="evenodd" clip-rule="evenodd" d="M59.79 45.21C59.5853 45.1899 59.3803 45.1732 59.175 45.16C58.3497 41.873 55.3839 39.5764 51.995 39.6V46.135C44.2933 49.196 38.6623 55.9446 37.03 64.07V66.02C39.325 70.2 46.56 71.67 47.8 71.92C47.935 71.95 48 71.965 47.975 71.965C35.88 73.565 37.025 83.21 37.025 83.21C37.2091 85.8339 39.3947 87.8665 42.025 87.86C43.385 87.765 44.715 87.46 45.975 86.96H56.275C55.3822 88.5063 54.7726 90.1995 54.475 91.96H52.875C46.6254 92.9018 42.009 98.2798 42.025 104.6C41.8471 105.8166 42.7477 106.9251 43.975 107H77.36C88.9085 107.5863 98.2439 97.7068 97.005 86.21C96.8709 82.4217 95.5602 78.7692 93.255 75.76L92.705 75.06C90.555 72.31 89.305 70.515 89.955 68.615C90.605 66.715 91.78 66.615 91.78 66.615S92.705 66.465 94.055 67.065C95.155 67.705 96.355 68.165 97.605 68.415C101.1968 69.0968 104.7873 67.2251 106.285 63.89C106.76 62.85 107 61.715 107 60.57C107.03 56.98 105.35 53.295 103.375 50.13C101.4029 46.9666 98.7481 44.2844 95.605 42.28C91.5656 40.1215 86.9076 39.4154 82.41 40.28C79.2251 40.8402 76.3009 42.3986 74.06 44.73C72.2733 46.6777 70.9427 48.9989 70.165 51.525C69.249 50.1643 68.1822 48.9113 66.985 47.79V46.995C67.0105 42.978 63.8062 39.6846 59.79 39.6V45.21ZM86.31 88.905C86.865 92.61 87.41 98.01 81.975 101.115C80.495 101.63 78.935 101.915 77.36 101.95H48.075C48.0666 99.3375 50.0709 97.159 52.675 96.95H59.07V94.455C58.9632 89.7006 62.5932 85.6928 67.335 85.33L64.205 80.895C63.025 81.23 61.89 81.66 61.32 82.06H45.275C44.8174 82.0953 44.37 82.214 43.955 82.41C43.265 82.685 42.585 82.955 41.975 82.56C40.975 81.91 42.525 76.96 47.025 76.96H52.025C54.475 76.96 54.875 74.26 54.875 74.26L56.275 68.615C51.0604 69.3644 45.7939 67.6459 42.025 63.965C43.6635 56.502 50.0939 51.0587 57.725 50.675L58.14 50.685C59.44 50.725 60.315 50.755 62.02 51.525C66.67 53.625 72.765 63.87 72.765 63.87L73.065 64.32H73.915V63.97C73.615 61.755 73.815 56.65 74.495 54.52C75.18 52.4 76.33 50.45 77.86 48.82C79.6225 47.0603 81.8988 45.9064 84.36 45.525C87.5328 44.8486 90.8437 45.3648 93.66 46.975C95.96 48.395 97.91 50.325 99.355 52.61C100.8 54.895 101.735 56.79 102.03 59.48C102.025 59.58 102.03 59.715 102.04 59.885C102.075 60.6 102.14 61.835 101.4 62.62C100.765 63.295 99.16 63.77 98.05 63.52C97.2579 63.3383 96.4989 63.0347 95.8 62.62C94.0973 61.5543 92.0041 61.3154 90.105 61.97C87.7835 62.7186 86.0088 64.6066 85.405 66.97C84.3858 71.004 85.6071 75.2748 88.605 78.16L89.155 78.86C90.89 81.03 91.885 83.69 92.005 86.46C92.0887 88.9247 91.5631 91.3719 90.475 93.585C90.2795 91.2474 89.4801 89.0007 88.155 87.065L86.305 88.905ZM53.2 57C51.2755 57 50.0727 59.0833 51.0349 60.75C51.4815 61.5235 52.3068 62 53.2 62C55.1245 62 56.3273 59.9167 55.3651 58.25C54.9185 57.4765 54.0932 57 53.2 57Z"></path></svg>