<svg width="144" height="144" xmlns="http://www.w3.org/2000/svg" fill="white"><path d="M88.7 80.55H92.25L105.6 67.2V63.65L98.9 57H95.4L86.3 66.05H61.3V59.8L70.6 50.55V47L60.6 37H57L37 57V60.55L47 70.55H50.55L56.25 64.8V93.75L58.75 96.25H82V98.85L88.65 105.55H92.2L105.55 92.2V88.65L98.85 82H95.35L86.05 91.25H61.05V71.25H82V73.65L88.7 80.55ZM97.15 62.3L100.3 65.45L90.3 75.45L87.15 72.3L97.15 62.3ZM97.15 87.3L100.3 90.45L90.3 100.45L87.15 97.3L97.15 87.3ZM48.75 65.25L42.3 58.75L58.75 42.3L65.25 48.75L48.75 65.25Z"></path></svg>