<svg width="144" height="144" xmlns="http://www.w3.org/2000/svg" fill="white"><path fill-rule="evenodd" clip-rule="evenodd" d="M72 37.015C52.67 37.015 37 52.685 37 72.015V74.165C37.45 81.715 46.55 83.115 52 77.665C57.3801 72.8837 65.9185 75.7195 67.3692 82.7694C67.9638 85.659 67.1598 88.6598 65.2 90.865C59.7 96.665 61.25 106.215 69.2 106.865H72.2C99.143 106.865 115.9824 77.6983 102.5109 54.365C96.2587 43.536 84.7043 36.865 72.2 36.865L72 37.015ZM72 102.015H69.4C68.7376 101.9942 68.1024 101.7471 67.6 101.315C67.2026 100.9034 66.9409 100.3799 66.85 99.815C66.5267 97.838 67.1785 95.8266 68.6 94.415C74.0108 88.8462 74.0108 79.9838 68.6 74.415C62.9953 68.807 53.9047 68.807 48.3 74.415C47.1891 75.7134 45.4919 76.3545 43.8 76.115C43.3797 76.0347 42.9951 75.8249 42.7 75.515C42.3565 75.112 42.1779 74.5941 42.2 74.065V72.215C42.2 49.121 67.2 34.6872 87.2 46.2342C107.2 57.7812 107.2 86.6488 87.2 98.1958C82.6394 100.8288 77.4661 102.215 72.2 102.215L72 102.015ZM77 51.985C77 55.834 72.8333 58.2396 69.5 56.3151C67.953 55.422 67 53.7713 67 51.985C67 48.136 71.1667 45.7304 74.5 47.6549C76.047 48.548 77 50.1987 77 51.985ZM92 87.02C92 90.869 87.8333 93.2746 84.5 91.3501C82.953 90.457 82 88.8063 82 87.02C82 83.171 86.1667 80.7654 89.5 82.6899C91.047 83.583 92 85.2337 92 87.02ZM57 62.02C60.849 62.02 63.2546 57.8533 61.3301 54.52C60.437 52.973 58.7863 52.02 57 52.02C53.151 52.02 50.7454 56.1867 52.6699 59.52C53.563 61.067 55.2137 62.02 57 62.02ZM92 57.02C92 60.869 87.8333 63.2746 84.5 61.3501C82.953 60.457 82 58.8063 82 57.02C82 53.171 86.1667 50.7654 89.5 52.6899C91.047 53.583 92 55.2337 92 57.02ZM97 72C97 75.849 92.8333 78.2546 89.5 76.3301C87.953 75.437 87 73.7863 87 72C87 68.151 91.1667 65.7454 94.5 67.6699C96.047 68.563 97 70.2137 97 72Z"></path></svg>