<svg width="144" height="144" xmlns="http://www.w3.org/2000/svg" fill="white"><path fill-rule="evenodd" clip-rule="evenodd" d="M68.115 86.665C69.745 87.625 71.61 88.115 73.5 88.075C76.9258 88.1431 80.1805 86.5807 82.27 83.865C84.5463 80.8261 85.7016 77.0935 85.54 73.3C85.7063 69.9312 84.6873 66.6106 82.66 63.915C80.6713 61.4677 77.6402 60.108 74.49 60.25C71.6908 60.2341 68.9823 61.2424 66.875 63.085V49.375H61.92V87.5H66.895V85.78C67.275 86.11 67.685 86.405 68.115 86.665ZM71.25 65.5C72.18 65.105 73.19 64.935 74.2 65C75.9522 64.9438 77.6226 65.7418 78.68 67.14C79.965 68.955 80.59 71.15 80.465 73.365C80.5992 75.9875 79.899 78.5852 78.465 80.785C77.4015 82.3934 75.593 83.3504 73.665 83.325C71.8059 83.4081 70.0101 82.6408 68.785 81.24C67.5082 79.798 66.8256 77.9254 66.875 76V73C66.8155 70.9167 67.5137 68.8826 68.84 67.275C69.49 66.505 70.32 65.895 71.25 65.5ZM48.445 60.375C46.8504 60.3967 45.2693 60.6701 43.76 61.185C42.3208 61.6147 40.9673 62.2914 39.76 63.185L39.26 63.57V69.57L41.375 67.775C43.2288 66.0239 45.6566 65.0073 48.205 64.915C49.4736 64.7997 50.7153 65.3294 51.51 66.325C52.26 67.485 52.66 68.84 52.665 70.22L46.5 71.125C43.9716 71.3891 41.5762 72.3886 39.61 74C36.3491 77.1928 36.2998 82.4264 39.5 85.68C41.2034 87.2396 43.4579 88.0564 45.765 87.95C47.7349 87.9656 49.6638 87.3871 51.3 86.29C51.81 85.95 52.285 85.565 52.73 85.145V87.365H57.435V70.575C57.6068 67.8711 56.7714 65.1994 55.09 63.075C53.387 61.2312 50.9514 60.2415 48.445 60.375ZM52.73 75.58C52.83 77.67 52.13 79.725 50.775 81.32C49.5795 82.7027 47.8273 83.477 46 83.43C44.8939 83.5154 43.7994 83.1554 42.96 82.43C41.6036 80.8646 41.6036 78.5404 42.96 76.975C44.365 76.105 45.96 75.59 47.61 75.475L52.71 74.735L52.73 75.58ZM94.295 87.165C95.83 87.815 97.495 88.13 99.16 88.075C101.635 88.135 104.075 87.505 106.21 86.25L106.825 85.875L106.89 85.84V80.075L104.66 81.675C103.08 82.795 101.18 83.375 99.24 83.32C97.2283 83.3999 95.2931 82.5431 94 81C92.571 79.1225 91.8616 76.7954 92 74.44C91.8673 71.9364 92.6751 69.4736 94.265 67.535C95.6854 65.8534 97.8003 64.9185 100 65C101.7183 64.992 103.403 65.4761 104.855 66.395L107.005 67.72V61.85L106.155 61.485C104.312 60.6714 102.3196 60.2508 100.305 60.25C96.6495 60.1475 93.1299 61.6382 90.66 64.335C88.1294 67.1339 86.7896 70.8091 86.925 74.58C86.785 78.115 87.975 81.58 90.275 84.275C91.385 85.52 92.76 86.505 94.295 87.165Z"></path></svg>