<svg width="144" height="144" xmlns="http://www.w3.org/2000/svg" fill="white"><path d="M46.035 106.875C43.652 106.8416 41.3858 105.8375 39.76 104.095C38.1938 102.669 37.2226 100.7052 37.04 98.595C36.8285 96.4133 37.458 94.2331 38.8 92.5C44.84 86.15 56.735 74.25 65.39 65.775C63.5474 60.7947 63.633 55.3055 65.63 50.385C67.2724 46.2925 70.1922 42.8395 73.955 40.54C79.952 36.5665 87.5499 35.8895 94.155 38.74L97.24 40.08L82.91 54.835L89.185 61.13L103.905 46.745L105.24 49.84C107.5167 55.1098 107.5887 61.0717 105.44 66.395C104.3834 69.0007 102.814 71.3675 100.825 73.355C99.6977 74.4575 98.4518 75.4318 97.11 76.26C91.4827 80.019 84.3931 80.8484 78.05 78.49C72.56 84.05 58.85 97.85 51.45 104.76C49.9651 106.1078 48.0353 106.8608 46.03 106.875ZM85.725 41.64C82.4355 41.6318 79.2176 42.6012 76.48 44.425C75.415 45.075 74.42 45.845 73.525 46.715C68.6384 51.6395 67.3284 59.083 70.24 65.38L70.915 66.865L69.75 68C61.06 76.485 48.405 89.1 42.325 95.52C41.2022 97.1891 41.484 99.4308 42.985 100.77C43.4011 101.2348 43.9082 101.6092 44.475 101.87C44.975 102.09 45.52 102.215 46.07 102.23C46.9044 102.2088 47.7033 101.8875 48.32 101.325C56.185 93.98 71.38 78.63 75.84 74.125L76.99 72.965L78.46 73.64C83.6856 76.075 89.8051 75.593 94.585 72.37C95.6544 71.7106 96.6457 70.9323 97.54 70.05C100.6695 66.9299 102.4074 62.6789 102.36 58.26C102.36 57.185 102.255 56.11 102.04 55.05L89.15 67.625L76.395 54.89L88.97 41.94C87.8993 41.7324 86.8106 41.6319 85.72 41.64Z"></path></svg>