<svg width="144" height="144" xmlns="http://www.w3.org/2000/svg" fill="white"><path d="M89.48 52C80.7805 51.9886 73.4014 58.3867 72.18 67H56.68C54.7555 59.5464 45.484 56.9713 39.9912 62.3647C34.4985 67.7582 36.9042 77.0751 44.3214 79.1353C49.7115 80.6324 55.2814 77.4166 56.68 72H72.18C74.1045 85.3333 89.7411 91.5833 100.3258 83.25C110.9106 74.9166 108.5049 58.25 95.9957 53.25C93.9234 52.4217 91.7117 51.9974 89.48 52ZM89.48 82C79.8575 82 73.8434 71.5833 78.6547 63.25C80.8876 59.3825 85.0142 57 89.48 57C99.1025 57 105.1166 67.4167 100.3053 75.75C98.0724 79.6175 93.9458 82 89.48 82Z"></path></svg>