<svg width="144" height="144" xmlns="http://www.w3.org/2000/svg" fill="white"><path fill-rule="evenodd" clip-rule="evenodd" d="M52 42H92V62C93.705 62.175 95.385 62.56 97 63.15V37H47V79.4L52 70.65V42ZM62.7 82L57 72L52 80.75L48.45 87L37 107H77L65.55 87L62.7 82ZM45.6 102L54.2 87L57 82L59.8 87L68.4 102H45.6ZM79.78 69.95C90.8682 62.2993 106.0805 69.5209 107.1621 82.9489C107.6792 89.3685 104.6284 95.5533 99.22 99.05C87.907 106.3642 72.9185 98.6889 72.2407 85.2344C71.9356 79.1774 74.7883 73.3943 79.78 69.95ZM82.555 94.895C90.5065 100.314 101.3425 95.0931 102.0597 85.4974C102.3987 80.9629 100.2485 76.602 96.445 74.11C88.3962 68.8365 77.657 74.2536 77.1144 83.8608C76.8671 88.2385 78.9317 92.4257 82.555 94.895Z"></path></svg>