<svg width="144" height="144" xmlns="http://www.w3.org/2000/svg" fill="white"><path fill-rule="evenodd" clip-rule="evenodd" d="M87 62H82V59.5C82 58.1193 80.8807 57 79.5 57H74.395V84.5C74.395 85.8807 75.5143 87 76.895 87H79.395V92H64.395V87H66.895C68.2757 87 69.395 85.8807 69.395 84.5V57H64.5C63.1193 57 62 58.1193 62 59.5V62H57V52H87V62ZM101.57 72.24L94.26 64.93L97.795 61.395L106.875 70.475V74.01L98.035 82.845L94.5 79.31L101.57 72.24ZM49.74 79.31L42.43 72L49.5 64.93L45.965 61.395L37.125 70.23V73.77L46.205 82.845L49.74 79.31Z"></path></svg>