<svg width="144" height="144" xmlns="http://www.w3.org/2000/svg" fill="white"><path fill-rule="evenodd" clip-rule="evenodd" d="M62 46.92V42H61.55C59.985 42 58.47 42.31 57.005 42.925C55.5469 43.5362 54.2285 44.4379 53.13 45.575C52.061 46.6494 51.2222 47.9305 50.665 49.34V49.345C50.169 50.6834 49.8366 52.0768 49.675 53.495V53.505C49.5328 54.9387 49.4927 56.3806 49.555 57.82C49.615 59.27 49.645 60.72 49.645 62.165C49.645 63.18 49.445 64.13 49.06 65.025V65.03C48.3262 66.7767 46.9602 68.182 45.235 68.965C44.3553 69.3492 43.4049 69.5451 42.445 69.54H42V74.46H42.45C43.425 74.46 44.35 74.66 45.23 75.065L45.235 75.07C46.125 75.46 46.88 75.99 47.51 76.66L47.52 76.67C48.17 77.32 48.685 78.095 49.055 78.995L49.06 79.005C49.45 79.905 49.645 80.845 49.645 81.835C49.645 83.285 49.615 84.735 49.555 86.18C49.495 87.66 49.535 89.105 49.675 90.53V90.535C49.84 91.95 50.17 93.325 50.66 94.655V94.66C51.19 96.025 52.015 97.28 53.13 98.425C54.245 99.575 55.54 100.46 57.005 101.075C58.47 101.69 59.985 102 61.555 102H62V97.08H61.55C60.555 97.08 59.615 96.89 58.74 96.505C57.8912 96.1084 57.118 95.567 56.455 94.905C55.8114 94.2198 55.289 93.4303 54.91 92.57C54.54 91.67 54.36 90.72 54.36 89.705C54.36 88.565 54.375 87.44 54.415 86.345C54.455 85.205 54.455 84.095 54.415 83.02C54.3974 81.9483 54.3055 80.879 54.14 79.82C53.9809 78.7755 53.699 77.7534 53.3 76.775C52.5204 74.8813 51.2459 73.232 49.61 72C51.2459 70.768 52.5204 69.1187 53.3 67.225C53.7 66.265 53.975 65.26 54.14 64.215C54.305 63.165 54.395 62.1 54.415 61.015C54.455 59.915 54.455 58.805 54.415 57.685C54.375 56.565 54.355 55.435 54.355 54.295C54.3373 51.3662 56.06 48.7064 58.74 47.525C59.6229 47.1202 60.5837 46.9137 61.555 46.92H62ZM82 97.08V102H82.45C84.015 102 85.53 101.69 86.995 101.075C88.46 100.46 89.755 99.575 90.87 98.425C91.985 97.275 92.81 96.025 93.335 94.66V94.655C93.835 93.325 94.16 91.94 94.325 90.505V90.495C94.465 89.095 94.505 87.66 94.445 86.18C94.385 84.73 94.355 83.28 94.355 81.835C94.355 80.82 94.555 79.87 94.94 78.975V78.97C95.6738 77.2233 97.0398 75.818 98.765 75.035C99.645 74.65 100.575 74.46 101.555 74.46H102V69.54H101.55C100.575 69.54 99.65 69.34 98.77 68.935L98.765 68.93C97.9065 68.5601 97.1324 68.019 96.49 67.34L96.48 67.33C95.8192 66.6645 95.2974 65.8741 94.945 65.005L94.94 64.995C94.551 64.1024 94.3518 63.1387 94.355 62.165C94.355 60.715 94.385 59.265 94.445 57.82C94.5071 56.369 94.467 54.9154 94.325 53.47V53.465C94.1627 52.0572 93.832 50.674 93.34 49.345V49.34C92.7813 47.9301 91.9408 46.649 90.87 45.575C89.7715 44.4379 88.4531 43.5362 86.995 42.925C85.556 42.3138 84.0084 41.9992 82.445 42H82V46.92H82.45C83.45 46.92 84.38 47.11 85.26 47.495C86.13 47.905 86.89 48.435 87.545 49.095C88.18 49.765 88.695 50.545 89.09 51.43C89.46 52.33 89.64 53.28 89.64 54.295C89.64 55.435 89.625 56.555 89.585 57.655C89.545 58.795 89.545 59.905 89.585 60.98C89.605 62.09 89.695 63.155 89.86 64.18C90.025 65.25 90.305 66.26 90.7 67.225C91.4792 69.119 92.7538 70.7683 94.39 72C92.7538 73.2317 91.4792 74.881 90.7 76.775C90.3044 77.7424 90.0225 78.7525 89.86 79.785C89.695 80.835 89.605 81.9 89.585 82.985C89.545 84.085 89.545 85.195 89.585 86.315C89.625 87.435 89.645 88.565 89.645 89.705C89.6532 91.6391 88.8986 93.4985 87.545 94.88C86.8923 95.5529 86.1167 96.0943 85.26 96.475C84.3771 96.8798 83.4163 97.0863 82.445 97.08H82Z"></path></svg>