<svg width="144" height="144" xmlns="http://www.w3.org/2000/svg" fill="white"><path fill-rule="evenodd" clip-rule="evenodd" d="M42 57H52V52H39.5L37 54.5V94.5L39.5 97H52V92H42V57ZM104.5 52H92V57H102V92H92V97H104.5L107 94.5V54.5L104.5 52ZM90.8 64.85L92 67V79.55L90.5 81.8L68 91.8H65.7L53.2 84.3L52 82.15V69.65L53.5 67.35L76 57.35H78.3L90.8 64.85ZM57 80.55L64.5 85.05V78.4L57 73.9V80.55ZM59.9 69.8L67.15 74.15L84.1 66.65L76.85 62.3L59.9 69.8ZM69.65 85.65L87.15 77.85V70.85L69.65 78.6V85.65Z"></path></svg>