<svg width="144" height="144" xmlns="http://www.w3.org/2000/svg" fill="white"><path fill-rule="evenodd" clip-rule="evenodd" d="M42 42L37 47V92L42 97H102L107 92V47L102 42H42ZM42 92V47H102V92H42ZM58.78 76.65H62V68.1C62 64.04 60.425 62 57.28 62C56.605 62 55.855 62.12 55.03 62.365C54.3459 62.5467 53.6922 62.8281 53.09 63.2V66.525C54.275 65.51 55.525 65.005 56.84 65.005C58.145 65.005 58.8 65.785 58.8 67.35L55.8 67.865C53.27 68.295 52 69.895 52 72.67C52 73.985 52.305 75.035 52.915 75.825C53.5204 76.6034 54.4647 77.0412 55.45 77C56.9 77 57.995 76.2 58.735 74.6H58.78V76.65ZM58.8 69.875V70.84C58.8291 71.6111 58.6195 72.3724 58.2 73.02C57.8593 73.5537 57.2682 73.8748 56.635 73.87C56.2151 73.8874 55.8102 73.7126 55.535 73.395C55.2597 73.0417 55.118 72.6026 55.135 72.155C55.135 71.045 55.685 70.4 56.795 70.21L58.795 69.875ZM70 75.13H69.965V76.68H67V57H69.965V65.385H70.005C70.735 63.835 71.78 63.06 73.13 63.06C74.37 63.06 75.33 63.65 75.995 64.825C76.665 66.005 77 67.61 77 69.655C77 71.87 76.61 73.645 75.825 74.99C75.05 76.33 74 77 72.69 77C71.505 77 70.61 76.375 70.005 75.13ZM69.92 69.525V70.885C69.8906 71.6316 70.0763 72.3709 70.455 73.015C70.81 73.58 71.27 73.86 71.825 73.86C72.5 73.86 73.025 73.5 73.395 72.78C73.77 72.055 73.96 71.03 73.96 69.705C73.96 68.605 73.785 67.755 73.44 67.135C73.105 66.515 72.62 66.2 71.99 66.2C71.39 66.2 70.895 66.51 70.5 67.125C70.0834 67.854 69.8823 68.6862 69.92 69.525ZM88.31 77C89.915 77 91.145 76.71 92 76.135V72.585C91.2223 73.2301 90.2501 73.5946 89.24 73.62C88.2854 73.6669 87.3626 73.2701 86.74 72.545C86.14 71.82 85.835 70.82 85.835 69.555C85.835 68.255 86.15 67.235 86.78 66.495C87.4238 65.7478 88.3746 65.3369 89.36 65.38C90.33 65.38 91.21 65.725 92 66.415V62.67C91.355 62.22 90.31 62 88.87 62C86.785 62 85.115 62.7 83.865 64.11C82.62 65.51 82 67.42 82 69.85C82 71.95 82.58 73.67 83.745 75C84.905 76.335 86.43 77 88.31 77Z"></path></svg>