<svg width="144" height="144" xmlns="http://www.w3.org/2000/svg" fill="white"><path fill-rule="evenodd" clip-rule="evenodd" d="M46.365 37.5C48.04 38.18 49.375 39.49 50.09 41.15C50.45 42 50.635 42.91 50.625 43.835C50.6442 46.1234 49.4941 48.2634 47.575 49.51C46.4571 50.2441 45.1474 50.6319 43.81 50.625C40.0389 50.6445 36.9777 47.5811 37 43.81C36.9862 41.0701 38.6241 38.5916 41.15 37.53C42.8164 36.8328 44.6907 36.822 46.365 37.5ZM44.875 46.325C45.8735 45.8926 46.5239 44.913 46.535 43.825C46.549 41.7158 44.2745 40.3824 42.4409 41.4248C40.6072 42.4673 40.5897 45.1038 42.4093 46.1706C43.1601 46.6107 44.0752 46.668 44.875 46.325ZM64.15 37.545L37.55 64.15L40.98 67.585L67.58 40.985L64.15 37.55ZM89.5 77H94.5V89.5H107V94.5H94.5V107H89.5V94.5H77V89.5H89.5V77ZM60.84 79.625L64.375 83.16L55.535 92L64.375 100.84L60.84 104.375L52 95.535L43.16 104.375L39.625 100.84L48.465 92L39.625 83.16L43.16 79.625L52 88.465L60.84 79.625ZM67.59 58.65C66.5306 56.1222 64.0507 54.4835 61.31 54.5C58.5701 54.4862 56.0916 56.1241 55.03 58.65C53.1169 63.1487 56.4264 68.138 61.315 68.125C66.211 68.1527 69.5262 63.147 67.59 58.65ZM63.825 62.375C63.5466 63.0254 63.0294 63.5443 62.38 63.825C61.3556 64.2568 60.1716 64.0256 59.385 63.24C59.1345 62.9934 58.9356 62.6993 58.8 62.375C57.9685 60.4533 59.529 58.3521 61.609 58.5928C61.8748 58.6236 62.1346 58.6934 62.38 58.8C62.7018 58.9381 62.9951 59.1347 63.245 59.38C64.0264 60.1691 64.2553 61.3513 63.825 62.375ZM102 47H82V52H102V47Z"></path></svg>