<svg width="144" height="144" xmlns="http://www.w3.org/2000/svg" fill="white"><path fill-rule="evenodd" clip-rule="evenodd" d="M59.34 50.435L55.555 46.905C74.8701 34.2456 100.6462 47.2427 101.952 70.2998C101.9634 70.4997 101.9727 70.6998 101.98 70.9L107.95 65L111.7 68.8L101.25 79.15L97.45 79.1L87 68.55L90.8 64.75L96.98 71C96.2301 52.1274 75.6268 40.8706 59.34 50.435ZM82.09 94.88L86.01 98.53C66.5444 108.8097 43.0045 95.3216 42.03 73.33L35.9 79.5L32 75.65L42.45 65.3L46.25 65.35L56.7 75.95L52.9 79.75L47.065 73.85C48.3379 91.0787 66.2848 101.8545 82.09 94.88Z"></path><path d="M37.615 46.745L41.025 43.085L100.6 98.64L97.19 102.3Z"></path></svg>