<svg width="144" height="144" xmlns="http://www.w3.org/2000/svg" fill="white"><path fill-rule="evenodd" clip-rule="evenodd" d="M42.03 73.335L35.9 79.5L32 75.65L42.45 65.3L46.25 65.35L56.7 75.95L52.9 79.75L47.065 73.85C48.4766 93.0432 70.1361 103.5108 86.052 92.6917C89.4079 90.4105 92.158 87.3468 94.065 83.765L98.13 86.75C86.7833 106.8643 57.9172 107.1526 46.1711 87.2689C43.6693 83.034 42.2472 78.2489 42.03 73.335ZM96.98 71.005L90.8 64.75L87 68.55L97.45 79.1L101.25 79.15L111.7 68.8L107.95 65L101.98 70.9C101.1407 47.8212 75.6327 34.3056 56.0655 46.5718C52.1467 49.0284 48.849 52.3579 46.43 56.3L50.48 59.27C60.2749 42.7041 84.3299 42.9537 93.7789 59.7193C95.7252 63.1726 96.8224 67.0392 96.98 71Z"></path></svg>