<svg width="144" height="144" xmlns="http://www.w3.org/2000/svg" fill="white"><path fill-rule="evenodd" clip-rule="evenodd" d="M98 42H72.085L70.32 42.73L37 76.05V79.585L62.915 105.5H66.45L77.525 94.425C91.526 101.8118 108.5633 92.74 110.25 77C110.385 76.17 110.47 75.34 110.505 74.5C110.4978 66.9893 106.7475 59.9763 100.505 55.8V44.5L98.005 42ZM95.5 53.295C93.0916 52.4409 90.5554 52.003 88 52C86.0755 52 84.8727 54.0833 85.8349 55.75C86.2815 56.5235 87.1068 57 88 57C90.5944 57.0004 93.1562 57.5777 95.5 58.69V69.38L75.875 89C75.4097 89.2406 75.0306 89.6197 74.79 90.085L64.68 100.195L42.305 77.815L73.12 47H95.5V53.295ZM100.5 62.255C103.7043 65.5254 105.4994 69.9214 105.5 74.5C105.4761 75.3384 105.3909 76.174 105.245 77C103.6595 88.3044 91.8188 95.061 81.28 90.675L99.77 72.185L100.5 70.415V62.255Z"></path></svg>