<svg width="144" height="144" xmlns="http://www.w3.org/2000/svg" fill="white"><path d="M72 77C74.7614 77 77 74.7614 77 72C77 69.2386 74.7614 67 72 67C69.2386 67 67 69.2386 67 72C67 74.7614 69.2386 77 72 77Z"></path><path d="M92 72C92 83.0455 83.0455 92 72 92C60.9543 92 52 83.0455 52 72C52 60.9543 60.9543 52 72 52C83.0455 52 92 60.9543 92 72ZM72 87C80.2843 87 87 80.2843 87 72C87 63.7158 80.2843 57 72 57C63.7158 57 57 63.7158 57 72C57 80.2843 63.7158 87 72 87Z"></path><path d="M107 72C107 91.33 91.33 107 72 107C52.6701 107 37 91.33 37 72C37 52.6701 52.6701 37 72 37C91.33 37 107 52.6701 107 72ZM72 102C88.5685 102 102 88.5685 102 72C102 55.4315 88.5685 42 72 42C55.4315 42 42 55.4315 42 72C42 88.5685 55.4315 102 72 102Z"></path></svg>