<svg width="144" height="144" xmlns="http://www.w3.org/2000/svg" fill="white"><path fill-rule="evenodd" clip-rule="evenodd" d="M88.2 37L91.15 38.2L101.7 62.85L100.55 65.8L84.1 72.85L81.15 71.65L80.3 69.6L62.5 77L59.6 76.05L58.8 74.15L46 79.45L43.1 78.25L39.5 69.9L40.9 66.95L53.4 61.65L52.5 59.6L53.7 56.7L71.5 49.05L70.6 47L72 44.1L88.2 37ZM44.5 70.2L46.25 74.45L57.35 69.9L55.5 65.65L44.5 70.2ZM58.2 59.6L63.75 71.85L78.75 65.45L73.2 53.25L58.2 59.6ZM75.95 47L85.25 67.55L96.7 62.5L87.9 42L75.6 47H75.95ZM74.5 77.5L89.6 102H83.75L74.35 86.85V106.85H69.35V81.1L59.9 102H54.4L62.9 82.5L74.5 77.5Z"></path></svg>