<svg width="144" height="144" xmlns="http://www.w3.org/2000/svg" fill="white"><path d="M100.275 49.8L76.59 35.75C73.7845 34.0875 70.2955 34.0875 67.49 35.75L43.815 49.8C40.9501 51.5096 39.1996 54.6038 39.21 57.94V86.06C39.193 89.3863 40.927 92.4764 43.775 94.195L67.455 108.255C70.2605 109.9175 73.7495 109.9175 76.555 108.255L100.235 94.195C103.0838 92.4771 104.818 89.3866 104.8 86.06V57.94C104.8265 54.6227 103.1108 51.5347 100.28 49.805ZM81.93 93.705V95.725C81.926 95.9776 81.7943 96.2111 81.58 96.345L80.385 97.03C80.195 97.13 80.035 97.03 80.035 96.765V94.785C79.1885 95.1997 78.2205 95.2939 77.31 95.05C77.1616 94.9527 77.1047 94.7629 77.175 94.6L77.605 92.775C77.6534 92.5735 77.7815 92.4003 77.96 92.295C78.0206 92.2689 78.0894 92.2689 78.15 92.295C78.9876 92.5196 79.8799 92.4065 80.635 91.98C81.7248 91.4457 82.4348 90.3577 82.485 89.145C82.485 88.115 81.925 87.685 80.565 87.68C78.845 87.68 77.26 87.35 77.215 84.81C77.2558 82.613 78.2775 80.5494 80 79.185V77.15C79.9986 76.8933 80.1313 76.6545 80.35 76.52L81.505 75.785C81.695 75.685 81.855 75.785 81.855 76.055V78.1C82.5635 77.7766 83.3547 77.6805 84.12 77.825C84.2871 77.9193 84.3526 78.1269 84.27 78.3L83.865 80.11C83.8155 80.2948 83.6998 80.4549 83.54 80.56C83.4832 80.5791 83.4218 80.5791 83.365 80.56C82.619 80.3983 81.8394 80.527 81.185 80.92C80.2095 81.3414 79.5648 82.2879 79.53 83.35C79.53 84.275 80.02 84.56 81.655 84.59C83.845 84.59 84.79 85.585 84.815 87.785C84.7716 90.0871 83.7185 92.2537 81.935 93.71ZM94.335 90.305C94.3669 90.48 94.2972 90.6581 94.155 90.765L88.165 94.4C88.1087 94.448 88.0278 94.454 87.965 94.415C87.9019 94.3764 87.8699 94.3024 87.885 94.23V92.68C87.8934 92.5101 88.0012 92.3611 88.16 92.3L94.055 88.77C94.1602 88.6859 94.3171 88.7473 94.3373 88.8805C94.3405 88.9019 94.3397 88.9238 94.335 88.945V90.31ZM98.47 55.735L76.06 69.575C73.265 71.23 71.21 73.04 71.21 76.41V104.01C71.21 106.03 72.035 107.32 73.275 107.715C72.866 107.7918 72.4511 107.8336 72.035 107.84C70.715 107.84 69.425 107.48 68.295 106.805L44.61 92.75C42.2728 91.3324 40.8497 88.7935 40.86 86.06V57.94C40.8461 55.203 42.2698 52.6595 44.61 51.24L68.3 37.19C70.5952 35.8294 73.4498 35.8294 75.745 37.19L99.425 51.25C101.377 52.4304 102.7089 54.4118 103.065 56.665C102.295 54.995 100.525 54.53 98.465 55.74H98.475Z"></path></svg>