<svg width="144" height="144" xmlns="http://www.w3.org/2000/svg" fill="white"><path d="M86.375 67L96.415 92H92.86L82.82 67H86.375ZM60.75 69.97C59.37 69.97 58.12 70.175 57 70.595C55.9076 70.994 54.9196 71.635 54.11 72.47C53.3 73.3 52.675 74.32 52.235 75.52C51.769 76.8478 51.5438 78.2481 51.57 79.655C51.57 81.09 51.77 82.39 52.155 83.56C52.545 84.735 53.135 85.725 53.915 86.53C54.695 87.34 55.645 87.98 56.765 88.445C57.885 88.915 59.165 89.135 60.595 89.11C62.2958 89.1088 63.9803 88.7777 65.555 88.135L66.18 90.555C65.3953 90.9065 64.5684 91.1552 63.72 91.295C62.4824 91.5191 61.2277 91.6362 59.97 91.645C58.4123 91.6598 56.8646 91.3957 55.4 90.865C54.0254 90.3634 52.7643 89.5935 51.69 88.6C50.5972 87.5746 49.7657 86.3025 49.265 84.89C48.6888 83.2453 48.3848 81.5176 48.365 79.775C48.365 77.95 48.665 76.285 49.265 74.775C49.865 73.265 50.7 71.96 51.765 70.865C52.835 69.775 54.12 68.925 55.635 68.33C57.2294 67.7151 58.9263 67.4097 60.635 67.43C62.115 67.43 63.315 67.545 64.225 67.78C65.14 68.015 65.8 68.25 66.22 68.48L65.475 70.945C64.8278 70.6337 64.1465 70.3987 63.445 70.245C62.56 70.0513 61.6559 69.959 60.75 69.97ZM72 72H77V77H72V72ZM72 82H77V87H72V82Z"></path><path d="M109.5 37H34.5L32 39.5V104.5L34.5 107H109.5L112 104.5V39.5L109.5 37ZM107 102H37V57H107V102ZM107 52H37V42H107V52Z"></path></svg>