<svg width="144" height="144" xmlns="http://www.w3.org/2000/svg" fill="white"><path d="M98.405 87.78C99.1607 88.0828 99.8121 88.5987 100.28 89.265C100.7 89.89 100.995 90.645 101.18 91.53C101.28 92.05 101.4 92.53 101.53 92.98C101.775 93.8232 102.1441 94.6253 102.625 95.36C102.86 95.725 103.175 96.125 103.565 96.57C103.9 96.935 104.2 97.405 104.465 97.975C104.7093 98.4878 104.8406 99.0471 104.85 99.615C104.8694 100.161 104.7057 100.6977 104.385 101.14C104.0588 101.5694 103.6613 101.9398 103.21 102.235C102.61 102.65 101.985 103.015 101.335 103.33C100.685 103.64 100.035 103.965 99.385 104.305C98.4131 104.7681 97.4844 105.317 96.61 105.945C95.83 106.52 95.045 107.245 94.265 108.135C93.3557 109.1536 92.303 110.0345 91.14 110.75C90.5461 111.1268 89.9012 111.4164 89.225 111.61C88.575 111.79 87.925 111.91 87.275 111.96C85.765 111.96 84.515 111.7 83.525 111.18C82.535 110.66 81.675 109.71 80.945 108.33C80.735 107.935 80.53 107.69 80.32 107.585C79.9958 107.4476 79.6543 107.3551 79.305 107.31L75.35 107C74.05 106.9 72.725 106.845 71.37 106.845C70.2446 106.8465 69.1212 106.9368 68.01 107.115C66.865 107.3 65.73 107.52 64.61 107.78C64.38 107.83 64.145 108.03 63.91 108.365C63.6174 108.7715 63.2895 109.1513 62.93 109.5C62.4429 109.9638 61.8753 110.3349 61.255 110.595C60.3711 110.9403 59.4289 111.1118 58.48 111.1C57.62 111.1 56.695 111.01 55.705 110.83C54.7788 110.6689 53.8832 110.3653 53.05 109.93C51.547 109.1612 49.9428 108.6091 48.285 108.29C46.72 108.005 45.07 107.74 43.325 107.51C42.7466 107.4346 42.1725 107.3295 41.605 107.195C41.0807 107.0764 40.5869 106.85 40.155 106.53C39.7587 106.2368 39.4282 105.8638 39.185 105.435C38.9184 104.8888 38.7831 104.2878 38.79 103.68C38.79 102.87 38.895 102.09 39.105 101.335C39.315 100.585 39.43 99.785 39.455 98.955C39.455 98.38 39.415 97.82 39.34 97.275C39.2573 96.6914 39.2039 96.104 39.18 95.515C39.18 94.19 39.495 93.215 40.12 92.585C40.745 91.96 41.655 91.465 42.855 91.1C43.3881 90.9386 43.8902 90.6885 44.34 90.36C44.7527 90.0487 45.1436 89.7096 45.51 89.345C45.882 88.9712 46.2216 88.5664 46.525 88.135C46.84 87.69 47.19 87.245 47.58 86.805C47.6578 86.7049 47.7 86.5818 47.7 86.455C47.7 86.14 47.685 85.84 47.66 85.555L47.58 84.615C47.58 82.845 47.855 81.065 48.4 79.265C48.95 77.465 49.665 75.715 50.55 73.99C51.4336 72.2752 52.4256 70.6186 53.52 69.03C54.61 67.445 55.695 65.97 56.76 64.615C58.2066 62.804 59.3544 60.7734 60.16 58.6C60.91 56.52 61.305 54.25 61.33 51.8C61.33 50.765 61.28 49.735 61.175 48.72C61.0701 47.6817 61.0184 46.6386 61.02 45.595C61.02 43.51 61.255 41.635 61.72 39.97C62.19 38.3 62.92 36.87 63.91 35.67S66.19 33.575 67.775 32.975C69.37 32.375 71.27 32.05 73.48 32C76.115 32 78.21 32.52 79.775 33.565C81.335 34.605 82.535 35.97 83.365 37.665C84.2 39.355 84.735 41.245 84.965 43.33C85.205 45.41 85.335 47.52 85.36 49.655V50.32C85.36 51.39 85.37 52.34 85.4 53.17C85.4466 54.8575 85.8308 56.5185 86.53 58.055C86.895 58.86 87.44 59.735 88.17 60.67C89.42 62.315 90.7 63.97 92 65.635C93.3 67.3 94.485 69.02 95.55 70.785C96.62 72.56 97.495 74.41 98.17 76.335C98.85 78.265 99.2 80.345 99.225 82.585C99.2317 84.351 98.9549 86.1067 98.405 87.785ZM65.635 47.08C65.995 47.08 66.295 47.17 66.535 47.35C66.7788 47.5463 66.9668 47.8032 67.08 48.095C67.2055 48.3953 67.2961 48.709 67.35 49.03C67.4 49.345 67.43 49.67 67.43 50.01C67.4382 50.2248 67.3971 50.4385 67.31 50.635C67.2243 50.801 67.1052 50.9474 66.96 51.065L66.49 51.455C66.3224 51.5969 66.1669 51.7524 66.025 51.92C65.8375 52.2119 65.5818 52.4539 65.28 52.625C64.9704 52.8047 64.67 53 64.38 53.21C64.103 53.411 63.8422 53.6333 63.6 53.875C63.3554 54.1387 63.2289 54.4909 63.25 54.85C63.25 55.085 63.365 55.28 63.6 55.435C64.183 55.8022 64.6455 56.3325 64.93 56.96C65.19 57.56 65.48 58.145 65.79 58.72C66.1 59.29 66.505 59.77 67 60.165C67.495 60.555 68.265 60.75 69.3 60.75H69.54C70.58 60.7 71.57 60.425 72.51 59.93C73.445 59.435 74.385 58.915 75.32 58.365C75.4829 58.2734 75.6535 58.1965 75.83 58.135C76.0116 58.0702 76.182 57.9774 76.335 57.86L79.185 55.635C79.2346 55.4674 79.2747 55.2971 79.305 55.125C79.3354 54.9422 79.362 54.7589 79.385 54.575C79.3938 54.3264 79.3238 54.0814 79.185 53.875C79.0571 53.6936 78.9 53.5348 78.72 53.405C78.5201 53.2687 78.2934 53.1766 78.055 53.135C77.8167 53.0872 77.5826 53.0203 77.355 52.935C76.7318 52.8069 76.136 52.5699 75.595 52.235C75.0579 51.9015 74.4797 51.6393 73.875 51.455C73.775 51.425 73.695 51.35 73.64 51.22C73.5805 51.066 73.5287 50.9092 73.485 50.75C73.4335 50.5852 73.4199 50.4108 73.445 50.24C73.4735 50.1091 73.4595 49.9724 73.405 49.85C73.405 49.54 73.43 49.215 73.485 48.875C73.539 48.5308 73.6577 48.1999 73.835 47.9C73.9874 47.6222 74.2012 47.3828 74.46 47.2C74.7683 47.0201 75.1181 46.9236 75.475 46.92C76.285 46.92 76.87 47.22 77.235 47.82C77.6 48.42 77.795 49.07 77.82 49.77C77.8264 50.0811 77.7597 50.3894 77.625 50.67C77.4915 50.9369 77.423 51.2316 77.425 51.53C77.425 51.74 77.495 51.88 77.625 51.96C77.7825 52.0463 77.9561 52.0991 78.135 52.115C78.735 52.115 79.12 51.975 79.305 51.69C79.5154 51.293 79.6221 50.8493 79.615 50.4C79.615 49.8 79.565 49.135 79.465 48.405C79.3661 47.6987 79.1533 47.0132 78.835 46.375C78.5436 45.7757 78.1317 45.2429 77.625 44.81C77.0824 44.3789 76.4022 44.1587 75.71 44.19C74.36 44.19 73.38 44.525 72.78 45.205C72.18 45.88 71.87 46.895 71.845 48.25C71.845 48.64 71.87 49.03 71.92 49.42C71.97 49.815 72 50.205 72 50.595C72 50.725 71.985 50.79 71.96 50.79C71.8789 50.7724 71.8 50.7455 71.725 50.71C71.5692 50.6468 71.4142 50.5818 71.26 50.515C71.0689 50.4343 70.8716 50.3691 70.67 50.32C70.3377 50.2393 69.9926 50.2257 69.655 50.28C69.4477 50.3063 69.239 50.3196 69.03 50.32C68.665 50.32 68.48 50.255 68.48 50.125C68.48 49.735 68.46 49.24 68.405 48.64C68.355 48.04 68.225 47.44 68.015 46.84C67.8404 46.3062 67.5767 45.8058 67.235 45.36C66.92 44.97 66.455 44.76 65.83 44.735C65.4101 44.7253 65.003 44.8795 64.695 45.165C64.3741 45.4619 64.0979 45.8038 63.875 46.18C63.6354 46.5862 63.4886 47.0404 63.445 47.51C63.4031 47.9278 63.3514 48.3446 63.29 48.76C63.3101 49.4498 63.4279 50.1333 63.64 50.79C63.77 51.205 63.915 51.57 64.07 51.885C64.225 52.195 64.41 52.35 64.62 52.35C64.745 52.35 64.92 52.26 65.125 52.08C65.335 51.895 65.44 51.73 65.44 51.57C65.44 51.49 65.4 51.44 65.32 51.415C65.2444 51.389 65.165 51.3755 65.085 51.375C64.905 51.375 64.745 51.285 64.615 51.1C64.481 50.9083 64.3765 50.6977 64.305 50.475C64.2229 50.2295 64.1446 49.9828 64.07 49.735C63.9143 49.0604 64.0122 48.3521 64.345 47.745C64.58 47.325 65.01 47.105 65.635 47.08ZM57.115 107.9C57.74 107.9 58.355 107.85 58.955 107.74C59.549 107.6379 60.1187 107.4259 60.635 107.115C61.1301 106.8285 61.5353 106.4095 61.805 105.905C62.0895 105.3192 62.2495 104.6808 62.275 104.03C62.275 103.5649 62.1956 103.1033 62.04 102.665C61.8811 102.2178 61.6571 101.7966 61.375 101.415C61.0664 100.9259 60.7274 100.4566 60.36 100.01C59.9924 99.5618 59.6534 99.0908 59.345 98.6C58.8587 97.8853 58.3754 97.1687 57.895 96.45C57.43 95.75 56.96 95.01 56.495 94.225C56.0839 93.5598 55.692 92.8828 55.32 92.195C54.9377 91.4928 54.4926 90.8268 53.99 90.205C53.6726 89.8087 53.3064 89.4543 52.9 89.15C52.4825 88.8362 51.9722 88.6708 51.45 88.68C50.9053 88.672 50.3773 88.8682 49.97 89.23C49.5045 89.6357 49.0731 90.0788 48.68 90.555C48.219 91.0953 47.7229 91.6048 47.195 92.08C46.645 92.575 45.945 92.965 45.085 93.25C44.503 93.4061 43.9677 93.7012 43.525 94.11C43.16 94.475 42.975 95.035 42.975 95.79C42.975 96.31 43.015 96.83 43.095 97.35C43.17 97.87 43.225 98.395 43.25 98.915C43.25 99.615 43.15 100.28 42.935 100.905C42.7333 101.4959 42.6286 102.1156 42.625 102.74C42.625 103.445 42.875 103.94 43.365 104.225C43.865 104.515 44.42 104.71 45.045 104.81C45.83 104.945 46.57 105.045 47.275 105.125C47.975 105.205 48.665 105.325 49.345 105.475C50.02 105.635 50.695 105.8 51.375 105.985C52.05 106.165 52.77 106.455 53.525 106.845C53.675 106.92 53.915 107.015 54.225 107.115L55.28 107.465C55.67 107.6 56.035 107.705 56.375 107.78C56.617 107.8449 56.8649 107.8851 57.115 107.9ZM71.415 103.21C72.145 103.21 72.925 103.135 73.76 102.975C75.46 102.6564 77.1042 102.0904 78.64 101.295C79.355 100.9305 80.0346 100.5003 80.67 100.01C80.7332 99.9388 80.787 99.8599 80.83 99.775C80.8798 99.6745 80.9184 99.5689 80.945 99.46V99.42C81.1 98.85 81.23 98.22 81.335 97.545C81.4434 96.8573 81.535 96.1671 81.61 95.475C81.6856 94.783 81.7773 94.0928 81.885 93.405C81.985 92.73 82.08 92.065 82.155 91.415C82.26 90.715 82.39 90.035 82.545 89.385C82.705 88.735 82.91 88.12 83.17 87.545C83.427 86.9788 83.7845 86.4638 84.225 86.025C84.7378 85.5308 85.3166 85.1101 85.945 84.775V84.695L85.905 84.58C85.9137 84.3148 85.995 84.0572 86.14 83.835C86.3151 83.548 86.5106 83.2739 86.725 83.015C86.9332 82.7521 87.1852 82.5271 87.47 82.35C87.7302 82.194 88.0048 82.0634 88.29 81.96C88.1324 81.3317 87.9623 80.7066 87.78 80.085C87.5989 79.4664 87.4421 78.8409 87.31 78.21C87.1821 77.4116 87.027 76.6178 86.845 75.83C86.7001 75.2189 86.5164 74.6177 86.295 74.03C86.0712 73.4573 85.7682 72.9187 85.395 72.43C85.01 71.91 84.525 71.28 83.955 70.555C83.7372 70.3116 83.5399 70.0508 83.365 69.775C83.2292 69.4651 83.1513 69.133 83.135 68.795C83.0727 68.4532 82.9943 68.1144 82.9 67.78C82.5488 66.5138 82.1451 65.2627 81.69 64.03C81.4498 63.3718 81.1624 62.7318 80.83 62.115C80.5644 61.6211 80.2775 61.139 79.97 60.67C79.71 60.28 79.435 60.085 79.15 60.085C78.525 60.085 77.78 60.335 76.92 60.83C76.065 61.325 75.15 61.87 74.19 62.47C73.225 63.07 72.29 63.63 71.375 64.15C70.465 64.67 69.645 64.915 68.915 64.89C68.1359 64.8895 67.3793 64.6291 66.765 64.15C66.1028 63.6455 65.4991 63.0686 64.965 62.43C64.42 61.78 63.965 61.22 63.6 60.75C63.235 60.28 62.965 60.02 62.78 59.97C62.575 59.97 62.455 60.125 62.43 60.435C62.4022 60.786 62.3888 61.1379 62.39 61.49V62.155C62.39 62.315 62.365 62.415 62.31 62.47C62.025 63.07 61.71 63.655 61.375 64.225C61.035 64.8 60.7 65.385 60.36 65.985C59.6865 67.138 59.3102 68.4404 59.265 69.775C59.265 70.165 59.29 70.555 59.345 70.945C59.395 71.335 59.525 71.715 59.735 72.08L59.655 72.23C59.4543 72.5087 59.2319 72.7712 58.99 73.015C58.7436 73.266 58.5226 73.5407 58.33 73.835C57.3736 75.2478 56.6839 76.8238 56.295 78.485C55.905 80.15 55.695 81.845 55.67 83.56C55.67 84.005 55.7 84.45 55.75 84.89C55.8 85.335 55.83 85.775 55.83 86.22C55.8285 86.3642 55.8151 86.508 55.79 86.65C55.7649 86.792 55.7515 86.9358 55.75 87.08C56.3058 87.1427 56.8405 87.3289 57.315 87.625C57.915 87.965 58.565 88.395 59.265 88.915C59.965 89.435 60.635 90.035 61.26 90.715C61.885 91.39 62.48 92.05 63.055 92.705C63.63 93.355 64.045 94.005 64.305 94.655C64.565 95.305 64.735 95.84 64.81 96.255C64.8372 96.866 64.611 97.4612 64.185 97.9C63.7366 98.3374 63.2065 98.6823 62.625 98.915C63.07 99.695 63.615 100.36 64.265 100.905C64.915 101.455 65.62 101.895 66.375 102.235C67.13 102.575 67.95 102.82 68.835 102.975C69.72 103.135 70.585 103.21 71.415 103.21ZM87.08 108.76C87.625 108.76 88.16 108.68 88.68 108.525C89.468 108.2991 90.2179 107.957 90.905 107.51C91.585 107.065 92.205 106.52 92.78 105.865C94.1383 104.2978 95.8001 103.0222 97.665 102.115L98.955 101.53C99.3976 101.337 99.8269 101.1149 100.24 100.865C100.5384 100.676 100.8151 100.4546 101.065 100.205C101.3193 99.959 101.4605 99.6188 101.455 99.265C101.4553 99.0639 101.4145 98.8648 101.335 98.68C101.2417 98.4719 101.1243 98.2756 100.985 98.095C100.6286 97.5989 100.2901 97.0902 99.97 96.57C99.6805 96.0968 99.4312 95.6 99.225 95.085L98.6 93.525C98.3746 92.9523 98.1907 92.3641 98.05 91.765C97.9958 91.5799 97.9038 91.4079 97.78 91.26C97.269 90.4959 96.3986 90.0513 95.48 90.085C95.0137 90.0833 94.5551 90.204 94.15 90.435L92.82 91.18C92.3571 91.4368 91.8886 91.6835 91.415 91.92C90.9544 92.1518 90.4456 92.2717 89.93 92.27C89.469 92.2901 89.0146 92.1545 88.64 91.885C88.2806 91.5995 87.9872 91.2396 87.78 90.83C87.5577 90.4129 87.3623 89.982 87.195 89.54L86.725 88.25C86.5214 88.5844 86.287 88.8991 86.025 89.19C85.7573 89.488 85.5456 89.8318 85.4 90.205C85.06 90.985 84.85 91.855 84.775 92.82C84.645 94.33 84.475 95.8 84.265 97.235C84.0511 98.6982 83.6995 100.1379 83.215 101.535C83.0768 101.9817 82.9715 102.4379 82.9 102.9C82.8224 103.3787 82.769 103.8609 82.74 104.345C82.74 105.62 83.135 106.675 83.915 107.51C84.695 108.34 85.75 108.76 87.08 108.76Z"></path></svg>