<svg width="144" height="144" xmlns="http://www.w3.org/2000/svg" fill="white"><path fill-rule="evenodd" clip-rule="evenodd" d="M67.42 32.145C66.8195 32.1444 66.222 32.2286 65.645 32.395L65.11 32.325C65.9643 32.2216 66.8213 32.1416 67.68 32.085C68.055 32.06 68.43 32.035 68.8 32C68.3448 32.0865 67.8832 32.135 67.42 32.145ZM88.055 70.375C88.525 69.185 88.915 68.195 88.855 66.565L88.19 67.975C88.865 65.925 88.805 63.74 88.75 61.665C88.725 60.73 88.7 59.815 88.74 58.95L88.47 58.875C88.23 51.82 82.13 44.32 76.7 41.78C72.02 39.62 64.82 39.25 61.49 40.88C61.8158 40.6775 62.1746 40.5337 62.55 40.455C63.085 40.3 63.535 40.165 63.225 39.99C60.225 40.29 59.335 40.845 58.36 41.46C57.393 42.1033 56.3172 42.5658 55.185 42.825C54.635 43.355 55.44 43.14 56.09 42.97C56.735 42.795 57.22 42.67 56.07 43.35C55.5736 43.4789 55.0665 43.5625 54.555 43.6C53.255 43.725 52.095 43.84 49.755 46.26C49.885 46.465 50.305 46.215 50.595 46.04C50.955 45.825 51.125 45.725 50.325 46.725C47.35 46.355 40.9 53.55 39.535 55.935L40.25 56.06C39.75 57.31 39.185 58.365 38.685 59.305C38.005 60.575 37.44 61.625 37.32 62.64C37.2366 63.7002 37.1332 64.7587 37.01 65.815C36.535 70.095 35.95 75.395 37.6 77.3L37.4 79.33L37.66 79.88C37.84 80.275 38.015 80.665 38.26 81.03L37.795 81.07C38.895 84.53 39.485 84.59 40.16 84.655C40.845 84.72 41.615 84.795 43.085 88.44C42.665 88.3 42.235 88.14 41.62 87.31C41.545 87.945 42.52 89.85 43.67 91.34L43.185 91.9C43.5072 92.5168 43.9696 93.0493 44.535 93.455C44.65 93.55 44.76 93.635 44.865 93.73C43.005 92.715 45.365 95.87 46.72 97.68C47.11 98.2 47.42 98.61 47.515 98.77L47.88 98.11C47.83 99.06 48.56 100.275 49.93 101.97L51.075 101.925C51.545 102.855 53.265 104.535 54.31 104.615L53.615 105.52C54.885 105.92 55.22 106.195 55.6 106.495C56 106.815 56.45 107.175 58.11 107.76L57.46 106.61C58 107.085 58.42 107.54 58.825 107.97C59.635 108.85 60.375 109.645 61.925 110.375C63.685 110.99 64.605 111.135 65.625 111.295C66.465 111.425 67.375 111.57 68.87 111.995C68.5084 111.9855 68.1467 111.9772 67.785 111.97C65.255 111.91 62.505 111.845 60.57 111.155C45.49 107.07 31.69 89.375 32.7 71.155C32.6 69.6 32.65 67.88 32.7 66.35C32.76 64.24 32.81 62.47 32.455 61.94L32.615 61.415C33.445 58.715 34.44 55.46 36.325 51.63L36.305 51.6V51.59V51.595C36.365 51.655 36.835 52.13 37.68 50.695C37.88 50.245 38.075 49.785 38.265 49.315C38.665 48.365 39.065 47.4 39.585 46.515L39.985 46.415C40.255 44.84 42.65 42.695 44.635 40.915C45.585 40.06 46.445 39.285 46.935 38.7L47.035 39.39C49.705 36.885 54.07 35.055 57.37 33.67C58.13 33.355 58.825 33.06 59.44 32.79C58.905 33.38 59.775 33.2 60.995 32.95C61.745 32.8 62.62 32.615 63.385 32.57C63.185 32.685 62.975 32.79 62.775 32.895C62.35 33.12 61.925 33.335 61.525 33.62C62.825 33.31 63.39 33.4 64.02 33.5C64.565 33.59 65.155 33.68 66.3 33.53C65.43 33.655 64.38 34 64.55 34.13C65.775 34.275 66.54 34.12 67.235 33.98C68.105 33.81 68.87 33.655 70.285 34.13L70.125 33.375C71.3 33.8 72.17 34.06 72.945 34.29C74.51 34.76 75.695 35.115 78.28 36.485C78.6719 36.5017 79.0631 36.4388 79.43 36.3C79.99 36.125 80.52 35.955 81.815 36.485C81.885 36.61 81.925 36.715 81.965 36.815C82.115 37.215 82.235 37.53 84.245 38.73C84.525 38.62 83.76 37.92 83.145 37.36L83.13 37.34C88.18 40.04 93.67 45.8 95.345 51.96C94.405 50.225 94.535 51.105 94.675 52.035C94.765 52.655 94.86 53.3 94.645 53.21C95.345 55.095 95.92 57.04 96.27 59.05L96.155 58.625C95.645 56.785 94.655 53.22 93.025 50.85C92.965 51.535 92.565 51.46 92.2 51.39C91.675 51.295 91.22 51.21 91.91 53.355C92.315 53.95 92.39 53.725 92.455 53.525C92.53 53.29 92.59 53.095 93.19 54.345C93.2 55.01 93.36 55.675 93.54 56.415C93.65 56.885 93.77 57.39 93.865 57.945C93.695 57.915 93.515 57.595 93.335 57.295C93.11 56.915 92.9 56.56 92.75 56.79C93.13 58.58 93.755 59.515 94 59.65C93.955 59.75 93.895 59.75 93.83 59.755C93.695 59.765 93.55 59.77 93.535 60.59C93.645 62.73 94.045 62.54 94.365 62.395C94.465 62.35 94.55 62.31 94.62 62.345C94.5125 62.7631 94.3738 63.1726 94.205 63.57C93.775 64.675 93.265 65.97 93.675 67.65C93.5313 67.1471 93.3542 66.6544 93.145 66.175C93.0663 65.9808 92.9896 65.7858 92.915 65.59C92.825 66.345 92.865 66.87 92.9 67.365C92.965 68.195 93.015 68.925 92.43 70.465C93.105 68.255 93.03 66.26 92.395 67.22C92.545 68.935 91.795 70.43 91.125 71.76C90.57 72.87 90.07 73.86 90.205 74.77L89.4 73.66C88.21 75.38 88.3 75.745 88.39 76.105C88.465 76.405 88.54 76.705 87.865 77.8C88.12 77.35 88.07 77.24 88.02 77.135C87.97 77.015 87.915 76.905 88.285 76.345C88.035 76.36 87.435 76.945 86.705 77.67C86.09 78.275 85.38 78.975 84.695 79.51C78.835 84.21 71.84 84.82 65.065 82.29C65.095 82.135 65.035 81.96 64.58 81.65C58.84 77.25 55.445 73.51 56.625 64.85C56.965 64.595 57.21 63.885 57.5 63.04C57.95 61.725 58.515 60.09 59.74 59.315C60.965 56.61 64.635 54.115 68.56 54.055C72.56 53.835 75.94 56.19 77.64 58.415C74.55 55.535 69.49 54.66 65.175 56.795C60.765 58.775 58.15 63.635 58.53 68.475C58.58 68.395 58.635 68.36 58.68 68.325C58.78 68.25 58.865 68.19 58.92 67.785C58.785 77.185 69.05 84.075 76.44 80.6L76.53 80.795C78.515 80.25 79.015 79.77 79.695 79.12C80.045 78.785 80.435 78.41 81.095 77.955C80.9888 78.1122 80.8628 78.2551 80.72 78.38C80.38 78.715 80.005 79.08 80.47 79.09C81.3 78.875 83.64 76.765 85.205 75.36L85.87 74.765C86.18 74.095 86.125 73.88 86.07 73.66C86.01 73.4 85.945 73.14 86.45 72.16L87.595 71.59C87.745 71.15 87.905 70.75 88.055 70.375ZM65.06 82.3C65.039 82.3209 65.0297 82.3508 65.035 82.38C65.0453 82.354 65.0536 82.3272 65.06 82.3ZM65.035 82.38C65.075 82.725 66.38 83.72 67.36 84.225C69.94 85.175 72.86 85.215 75.155 85.13C70.19 87.205 60.71 83.02 57.61 77.47C57.895 77.53 58.45 78.17 59.125 78.955C60.145 80.125 61.435 81.615 62.515 81.98C61.45 81.13 60.63 80.045 59.865 78.93C61.305 80.58 63.05 81.93 64.96 82.825C64.9253 82.6951 64.9432 82.5567 65.01 82.44L65.035 82.38ZM65.76 33.095C65.6349 33.0741 65.5099 33.0524 65.385 33.03C67.745 33.1 67.57 33.255 66.8 33.43C66.89 33.285 66.35 33.195 65.76 33.095ZM80.15 65.66C80.31 63.275 79.68 64.03 79.47 64.94C79.565 64.99 79.65 65.235 79.73 65.475C79.87 65.875 80 66.265 80.15 65.66ZM79.095 68.98C78.8508 70.2574 78.3134 71.4607 77.525 72.495C77.555 72.19 77.335 72.125 77.11 72.065C76.65 71.935 76.195 71.805 77.99 69.545C77.8304 69.9726 77.6188 70.379 77.36 70.755C76.8 71.675 76.31 72.475 77.99 71.42L78.155 71.12C78.5836 70.4631 78.9012 69.7401 79.095 68.98ZM72.395 75.215C70.66 74.95 69.085 74.285 70.41 74.265C71.515 74.365 72.61 74.365 73.69 74.1C73.2749 74.4924 72.8411 74.8645 72.39 75.215ZM66.79 33.425L66.29 33.525L66.76 33.485L66.79 33.425ZM55.95 76.09L55.76 77.02C55.995 77.34 56.22 77.67 56.44 77.995C57.04 78.87 57.625 79.735 58.44 80.41C58.1111 79.7809 57.7541 79.167 57.37 78.57C56.97 77.92 56.525 77.21 55.945 76.09ZM57.08 74.495C57.34 75.035 57.6 75.56 58.005 76.005L58.415 77.205L58.225 76.89C57.725 76.06 57.225 75.225 56.965 74.27L57.08 74.495ZM94.45 68.085L94.255 68.575C93.8952 71.1419 93.1148 73.632 91.945 75.945C93.25 73.495 94.095 70.805 94.45 68.085ZM34.18 49.13ZM34.19 49.24C34.23 49.425 34.405 49.38 34.565 49.34C34.865 49.265 35.135 49.19 34.545 50.52C34.175 50.78 33.95 50.955 33.825 51.05L33.69 51.15C33.6978 51.1194 33.7114 51.0906 33.73 51.065C34.0761 50.5222 34.2375 49.882 34.19 49.24ZM32.59 55.8C32.4695 56.5392 32.2923 57.268 32.06 57.98C32.0855 57.7233 32.0771 57.4645 32.035 57.21C31.97 56.685 31.91 56.225 32.71 55.2C32.6686 55.3994 32.6303 55.5994 32.595 55.8Z"></path></svg>