<svg width="144" height="144" xmlns="http://www.w3.org/2000/svg" fill="white"><path d="M48.3 72C48.3 77.2731 42.5917 80.5688 38.025 77.9323C35.9056 76.7086 34.6 74.4473 34.6 72C34.6 66.7269 40.3083 63.4312 44.875 66.0677C46.9944 67.2914 48.3 69.5527 48.3 72ZM87.25 105.3C89.8866 109.8688 96.4803 109.8701 99.1186 105.3024C100.3431 103.1825 100.3436 100.5704 99.12 98.45C96.4834 93.8812 89.8897 93.8799 87.2514 98.4476C86.0269 100.5675 86.0264 103.1796 87.25 105.3ZM99.1 45.55C101.8666 41.0609 98.7362 35.2603 93.4653 35.1089C90.8852 35.0347 88.4825 36.4172 87.25 38.685C84.732 43.3181 88.1736 48.9396 93.445 48.8038C95.7586 48.7441 97.8857 47.5203 99.1 45.55ZM75.95 52.5C86.0524 52.4851 94.4934 60.1883 95.4 70.25H105.4C104.9154 63.0775 101.8413 56.3253 96.75 51.25C94.0371 52.3293 90.9795 52.1083 88.45 50.65C85.9527 49.1448 84.2364 46.625 83.75 43.75C81.2375 43.0845 78.6491 42.7484 76.05 42.75C71.5222 42.7393 67.0541 43.7836 63 45.8L68 54.45C70.4842 53.2505 73.1927 52.5862 75.95 52.5ZM56.4 72C56.4131 65.6374 59.5061 59.6751 64.7 56L59.7 47.5C53.7025 51.4957 49.3655 57.539 47.5 64.5C52.31 68.3432 52.31 75.6568 47.5 79.5C49.3402 86.4456 53.64 92.4867 59.6 96.5L64.6 88C59.444 84.3032 56.3901 78.3444 56.4 72ZM75.95 91.55C73.0996 91.5283 70.2867 90.8975 67.7 89.7L62.7 98.35C66.75 100.365 71.22 101.41 75.75 101.4C78.35 101.4 80.94 101.065 83.45 100.4C83.9357 97.5248 85.6523 95.0047 88.15 93.5C90.6797 92.0425 93.737 91.8215 96.45 92.9C101.5413 87.8247 104.6154 81.0725 105.1 73.9H95.1C94.1348 83.7976 85.8933 91.3935 75.95 91.55Z"></path></svg>