<svg width="144" height="144" xmlns="http://www.w3.org/2000/svg" fill="white"><path d="M59.3 102.55C57.8561 102.543 56.4467 102.108 55.25 101.3C52.5831 99.3788 51.6417 95.843 53 92.85L57.85 82H43.9C41.572 82.0434 39.3836 80.8926 38.1 78.95C36.8083 76.9793 36.6378 74.4777 37.65 72.35C41 65.1 47 52 49 46.5C50.0011 43.8016 52.5719 42.008 55.45 42H100.1C103.9269 42.0547 107.0004 45.1727 107 49V66.55C107 70.3608 103.9108 73.45 100.1 73.45H93.2L64 100.75C62.7082 101.9078 61.0348 102.5487 59.3 102.55ZM55.45 47C54.6505 47.0082 53.937 47.5037 53.65 48.25C51.65 53.7 46.3 65.5 42 74.45C41.7065 75.0141 41.7065 75.6859 42 76.25C42.4254 76.8587 43.1735 77.154 43.9 77H60.4L63 80.4V82.7L57.55 94.9C57.1759 95.7225 57.4507 96.695 58.2 97.2C58.8987 97.7692 59.9013 97.7692 60.6 97.2L90.9 69.25L93.25 68.6H100.1C101.2108 68.6035 102.0877 67.6574 102 66.55V49C102.0013 47.9333 101.1653 47.0533 100.1 47H55.45Z"></path></svg>