<svg width="144" height="144" xmlns="http://www.w3.org/2000/svg" fill="white"><path d="M84.7 42C86.145 42.005 87.55 42.44 88.75 43.25C91.4169 45.1712 92.3583 48.707 91 51.7L86.15 62.55H100.1C102.428 62.5066 104.6164 63.6574 105.9 65.6C107.1917 67.5707 107.3622 70.0723 106.35 72.2C103 79.45 97 92.55 95 98.05C93.9989 100.7484 91.4281 102.542 88.55 102.55H43.9C40.0731 102.4953 36.9996 99.3773 37 95.55V78C37 74.1892 40.0892 71.1 43.9 71.1H50.8L80 43.8C81.2918 42.6422 82.9652 42.0013 84.7 42ZM88.55 97.55C89.3495 97.5418 90.063 97.0463 90.35 96.3C92.35 90.85 97.7 79.05 102 70.1C102.2935 69.5359 102.2935 68.8641 102 68.3C101.5746 67.6913 100.8265 67.396 100.1 67.55H83.6L81 64.15V61.85L86.45 49.65C86.8241 48.8275 86.5493 47.855 85.8 47.35C85.1013 46.7808 84.0987 46.7808 83.4 47.35L53.1 75.3L50.75 75.95H43.9C42.7892 75.9465 41.9123 76.8926 42 78V95.55C41.9987 96.6167 42.8347 97.4967 43.9 97.55H88.55Z"></path></svg>