<svg width="144" height="144" xmlns="http://www.w3.org/2000/svg" fill="white"><path fill-rule="evenodd" clip-rule="evenodd" d="M105.865 49.425L101.965 48.505L91.425 58.985L85.455 52.905L95.735 42.12L94.835 38.16C92.6626 37.4333 90.3905 37.0487 88.1 37.02C85.6013 36.9816 83.1215 37.4581 80.815 38.42C78.588 39.4281 76.575 40.8538 74.885 42.62C73.0037 44.4021 71.5138 46.556 70.51 48.945C68.5773 53.6994 68.5773 59.0206 70.51 63.775C60.0862 74.03 49.797 84.4209 39.645 94.945C38.595 96.32 38.095 98.035 38.225 99.76C38.3275 101.6153 39.1618 103.3542 40.545 104.595C41.165 105.27 41.905 105.83 42.73 106.235C43.58 106.61 44.495 106.825 45.42 106.87C47 106.84 48.515 106.24 49.69 105.185C57.43 97.9 72.26 82.935 80.685 74.165C82.97 75.135 85.425 75.635 87.905 75.63C92.9485 75.626 97.776 73.5828 101.29 69.965C104.8627 66.3213 106.8582 61.418 106.845 56.315C106.9028 53.9799 106.5716 51.6514 105.865 49.425ZM46.665 101.64C46.4725 101.8109 46.2406 101.9312 45.99 101.99C45.7435 102.0326 45.4915 102.0326 45.245 101.99C44.9865 101.9506 44.7404 101.8532 44.525 101.705C44.2939 101.5697 44.0984 101.3811 43.955 101.155C43.255 100.44 42.6 99.08 43.255 98.315C50.105 91.03 64.21 76.79 73.03 68.085C73.53 68.745 74.08 69.375 74.67 69.965C75.26 70.58 75.895 71.15 76.57 71.67C68.04 80.42 54.13 94.49 46.67 101.64ZM102.255 56.315C102.265 60.14 100.775 63.815 98.095 66.555C92.5316 72.0125 83.6234 72.0125 78.06 66.555C74.0591 62.3797 72.8229 56.2725 74.885 50.87C76.2449 47.2272 79.0846 44.3312 82.7 42.9C84.3975 42.1895 86.2199 41.8257 88.06 41.83H89.33L80.245 51.195V54.675L89.72 64.105H93.02L102.255 55.025V56.315ZM48.2 65.44H55.855L59.38 69.025L62.77 65.655L59.445 62.265V62.05L59.73 53.805L58.63 51.62L44.33 42.21L41.375 42.54L37.22 46.785L36.89 49.78L46.08 64.37L48.2 65.445ZM43.475 47.28L55.045 54.9L54.85 60.515H49.47L42.01 48.705L43.475 47.28ZM79 82.08L82.37 78.715L97.9 94.64C100.6168 97.4953 100.6168 101.9797 97.9 104.835C95.8872 106.9015 92.8151 107.5262 90.155 106.41C89.3254 106.042 88.5814 105.5057 87.97 104.835L72.26 88.82L75.655 85.43L91.315 101.4C91.5256 101.6323 91.7875 101.8121 92.08 101.925C92.6555 102.1588 93.2995 102.1588 93.875 101.925C94.1674 101.8119 94.4293 101.6321 94.64 101.4C94.8588 101.1832 95.0293 100.9225 95.14 100.635C95.2547 100.3416 95.3157 100.03 95.32 99.715C95.315 99.4006 95.2558 99.0893 95.145 98.795C95.0343 98.5075 94.8638 98.2468 94.645 98.03L79 82.08Z"></path></svg>