<svg width="144" height="144" xmlns="http://www.w3.org/2000/svg" fill="white"><path d="M107 50.92C106.042 52.3551 104.9541 53.6991 103.75 54.935C102.5398 56.1788 101.225 57.3163 99.82 58.335C99.8651 58.9623 99.8885 59.591 99.89 60.22C99.89 63.09 99.585 65.925 98.97 68.73C98.3572 71.5249 97.4626 74.2505 96.3 76.865C94.6897 80.5486 92.5615 83.9832 89.98 87.065C87.5059 90.012 84.6076 92.575 81.38 94.67C78.141 96.7601 74.6113 98.3607 70.905 99.42C67.0375 100.527 63.0328 101.0808 59.01 101.065C55.1306 101.0699 51.2702 100.5228 47.545 99.44C43.8115 98.3531 40.2583 96.7223 37 94.6C44.5956 95.5183 52.2445 93.3776 58.26 88.65C53.741 88.5868 49.5216 86.3778 46.895 82.7C46.0116 81.4813 45.325 80.1316 44.86 78.7C45.315 78.77 45.765 78.83 46.21 78.875C47.9262 79.043 49.6587 78.8921 51.32 78.43C49.6813 78.1069 48.1134 77.4939 46.69 76.62C45.3108 75.7725 44.0809 74.7031 43.05 73.455C40.9336 70.8924 39.7834 67.6685 39.8 64.345V64.18C41.81 65.315 43.985 65.92 46.33 65.99C44.3747 64.6581 42.7693 62.8744 41.65 60.79C41.1019 59.762 40.6773 58.6728 40.385 57.545C39.7897 55.1584 39.8017 52.6607 40.42 50.28C40.735 49.065 41.225 47.91 41.89 46.815C43.71 49.07 45.74 51.095 47.97 52.88C52.4021 56.4344 57.5233 59.0308 63.01 60.505C65.7794 61.2471 68.6209 61.688 71.485 61.82C71.3468 61.2866 71.2499 60.7433 71.195 60.195C71.1387 59.6451 71.1103 59.0927 71.11 58.54C71.11 56.555 71.485 54.69 72.24 52.95C73.7038 49.5118 76.4418 46.7738 79.88 45.31C81.6445 44.5548 83.5458 44.1718 85.465 44.185C89.445 44.1656 93.2512 45.814 95.96 48.73C99.1678 48.0967 102.2426 46.9161 105.05 45.24C104.0092 48.5718 101.7675 51.3981 98.76 53.17C101.6038 52.8395 104.3816 52.0827 107 50.925Z"></path></svg>