<svg width="144" height="144" xmlns="http://www.w3.org/2000/svg" fill="white"><path fill-rule="evenodd" clip-rule="evenodd" d="M69.65 64.55V44.55L64.65 49.55L61.1 46L70.25 37H73.8L83 46.15L79.45 49.65L74.45 44.65V64.55H69.65ZM69.65 79.45V99.45L64.65 94.45L61.1 98L70.25 107H73.8L83 97.85L79.45 94.35L74.45 99.35V79.45H69.65ZM100.65 52L102 57.1L83.6 71.75L102 86.9L100.65 92H79.65V87H94.65L79.75 74.85H64.7L49.25 87H64.65V92H43.35L42 86.9L60.4 72.3L42 57.1L43.35 52H64.65V57H49.25L64.25 69.1H79.3L94.65 57H79.65V52H100.65Z"></path></svg>