<svg width="144" height="144" xmlns="http://www.w3.org/2000/svg" fill="white"><path fill-rule="evenodd" clip-rule="evenodd" d="M46.5 37L57 47.5L53 51L47 45V67H42V44.5L36 51L32.5 47.5L43 37H46.5ZM47 99V77H42V99L36 93L32.5 96.5L43 107H46.5L57 96.5L53.5 93L47 99ZM74.5 67H64.5L62 64.5V54.5L64.5 52H74.5L77 54.5V64.5L74.5 67ZM67 62H72V57H67V62ZM104.5 67H89.5L87 64.5V49.5L89.5 47H104.5L107 49.5V64.5L104.5 67ZM92 62H102V52H92V62ZM74.5 92H64.5L62 89.5V79.5L64.5 77H74.5L77 79.5V89.5L74.5 92ZM67 87H72V82H67V87ZM104.5 97H89.5L87 94.5V79.5L89.5 77H104.5L107 79.5V94.5L104.5 97ZM92 92H102V82H92V92ZM87 82H77V87H87V82ZM87 57H77V62H87V57Z"></path></svg>