<svg width="144" height="144" xmlns="http://www.w3.org/2000/svg" fill="white"><path fill-rule="evenodd" clip-rule="evenodd" d="M39.5 56.15H53.45L72.75 37L77 38.75V103.75L72.75 105.4L53.45 86.15H39.5L37 83.65V58.65L39.5 56.15ZM56.25 82L72 97.7V44.8L56.25 60.4L54.5 61.15H42V81.15H54.5L56.25 82ZM107 71.15C107.0131 79.221 104.2244 87.0463 99.11 93.29L95.55 89.74C99.7376 84.4495 102.011 77.8972 102 71.15C102 64.15 99.6 57.705 95.58 52.6L99.14 49.05C104.2345 55.2874 107.0119 63.0965 107 71.15ZM97 71.15C97.0094 76.5685 95.2504 81.8421 91.99 86.17L88.41 82.59C90.7537 79.2361 92.0073 75.2416 92 71.15C92.007 67.0746 90.7626 63.0953 88.435 59.75L92.015 56.17C95.145 60.345 97 65.53 97 71.15ZM87 71.15C87 74.02 86.2 76.7 84.8 78.98L81.105 75.29C82.3002 72.677 82.3093 69.6752 81.13 67.055L84.825 63.36C86.205 65.63 87 68.3 87 71.15Z"></path></svg>