<svg width="144" height="144" xmlns="http://www.w3.org/2000/svg" fill="white"><path fill-rule="evenodd" clip-rule="evenodd" d="M70.35 105.6H73.9L82.5 97H94.5L97 94.5V82.4L105.7 73.8V70.25L97.15 61.65V49.45L94.65 47H82.5L73.9 38.45H70.35L62 47H49.65L47 49.5V61.65L38.55 70.25V73.8L47 82.4V94.5L49.65 97H62L70.35 105.6ZM62.8 92H52V81.35L51.4 79.6L43.85 72L51.25 64.45L52 62.7V52H62.8L64.6 51.3L72 43.75L79.7 51.3L81.45 52H92V62.7L92.85 64.45L100.45 72L92.7 79.6L92 81.35V92H81.45L79.55 92.75L72 100.3L64.6 92.7L62.8 92ZM70.015 62.705C69.7225 63.1512 69.5062 63.6429 69.375 64.16C69.225 64.705 69.125 65.235 69.065 65.745L69.04 65.96H64.565L64.58 65.705C64.67 64.075 65.025 62.63 65.64 61.385C65.9 60.845 66.225 60.315 66.605 59.795C67.01 59.265 67.505 58.795 68.075 58.395C68.67 57.975 69.35 57.645 70.12 57.395C70.9946 57.1191 71.908 56.9857 72.825 57C74.225 57 75.44 57.23 76.455 57.7C77.455 58.145 78.285 58.75 78.925 59.515C79.56 60.275 80.025 61.145 80.32 62.115C80.61 63.085 80.755 64.085 80.755 65.11C80.755 66.065 80.595 66.965 80.265 67.81C79.945 68.63 79.55 69.41 79.075 70.14C78.605 70.855 78.09 71.54 77.525 72.19C76.975 72.835 76.47 73.45 76.005 74.05C75.5752 74.5838 75.1905 75.1524 74.855 75.75C74.5746 76.2336 74.4231 76.7811 74.415 77.34V79.74H69.975V77.045C69.975 76.205 70.13 75.43 70.445 74.725C70.771 74.015 71.1733 73.3427 71.645 72.72C72.125 72.085 72.645 71.47 73.185 70.88C73.7121 70.3115 74.2111 69.7174 74.68 69.1C75.145 68.5 75.53 67.87 75.82 67.215C76.1235 66.5552 76.2772 65.8363 76.27 65.11C76.2745 64.571 76.1953 64.0346 76.035 63.52V63.515C75.9094 63.0675 75.6876 62.6528 75.385 62.3C75.0944 61.953 74.7238 61.6818 74.305 61.51H74.3C73.8376 61.3049 73.3357 61.2042 72.83 61.215C72.2375 61.1944 71.6509 61.338 71.135 61.63C70.6918 61.9059 70.3119 62.2722 70.02 62.705ZM74.5 87H70.06V82.56H74.5V87Z"></path></svg>