<svg width="144" height="144" xmlns="http://www.w3.org/2000/svg" fill="white"><path d="M58.935 89.615C58.8834 88.0686 60.5253 87.0462 61.8903 87.7748C61.8936 87.7765 61.8968 87.7783 61.9 87.78C62.19 87.935 62.45 88.105 62.685 88.29C62.92 88.47 63.125 88.64 63.31 88.795C63.4695 88.9425 63.6778 89.0261 63.895 89.03C64.155 89.03 64.495 88.83 64.91 88.445C65.325 88.055 65.785 87.535 66.275 86.88C66.775 86.23 67.28 85.54 67.8 84.81C68.32 84.08 68.8 83.34 69.25 82.585L70.38 80.635C70.69 80.085 70.915 79.64 71.045 79.305C70.8388 78.4278 70.617 77.5544 70.38 76.685C70.1431 75.8173 69.9214 74.9455 69.715 74.07C69.5354 73.3541 69.3133 72.6495 69.05 71.96C68.8329 71.3873 68.5164 70.8575 68.115 70.395C67.7572 69.9767 67.2998 69.6551 66.785 69.46C66.1793 69.2567 65.5482 69.1389 64.91 69.11C64.3595 69.1061 63.81 69.158 63.27 69.265V68.29L70.45 67C71.4397 68.0695 72.2214 69.3141 72.755 70.67C73.015 71.32 73.24 71.985 73.42 72.665C73.605 73.34 73.8 74.08 74.005 74.89C74.395 74.315 74.88 73.59 75.455 72.7C76.0536 71.7809 76.7187 70.9069 77.445 70.085C78.195 69.225 78.995 68.51 79.825 67.935C80.5948 67.3866 81.5019 67.0629 82.445 67C83.095 67 83.68 67.17 84.2 67.505C84.725 67.845 84.985 68.38 84.985 69.105C84.985 70.515 84.28 71.22 82.875 71.22C82.3701 71.2256 81.8718 71.1053 81.425 70.87C80.9817 70.6346 80.4869 70.5126 79.985 70.515C79.485 70.515 78.97 70.765 78.42 71.255C77.8412 71.7868 77.3185 72.3766 76.86 73.015C75.9954 74.2002 75.1862 75.4249 74.435 76.685L76.665 85.945C76.7538 86.5342 76.9098 87.1113 77.13 87.665C77.244 87.9714 77.4024 88.2595 77.6 88.52C77.7439 88.7333 77.9706 88.8765 78.225 88.915C78.6131 88.8862 78.9823 88.7357 79.28 88.485C80.1099 87.8133 80.8346 87.0212 81.43 86.135C81.69 85.75 81.895 85.385 82.055 85.045L82.99 85.515C82.6907 86.1636 82.3237 86.7787 81.895 87.35C81.362 88.095 80.7754 88.8002 80.14 89.46C79.5127 90.1134 78.8338 90.7154 78.11 91.26C77.405 91.78 76.765 92.025 76.195 92C75.6781 92.0196 75.174 91.8366 74.79 91.49C74.4102 91.1366 74.0684 90.7444 73.77 90.32C73.4786 89.7486 73.257 89.1443 73.11 88.52C72.8868 87.6814 72.69 86.836 72.52 85.985C72.3446 85.0997 72.1763 84.213 72.015 83.325C71.8991 82.6188 71.7149 81.9256 71.465 81.255L70.45 83.13C70.0286 83.912 69.5611 84.6684 69.05 85.395C68.5 86.18 67.94 86.975 67.365 87.78C66.823 88.553 66.1939 89.261 65.49 89.89C64.815 90.49 64.165 90.995 63.54 91.415C62.9568 91.8188 62.259 92.024 61.55 92C60.8887 92.0067 60.2481 91.77 59.75 91.335C59.2395 90.9087 58.9416 90.28 58.935 89.615ZM89.485 92C90.885 90.2 91.965 88.26 92.725 86.18C93.4824 84.0624 93.8647 81.829 93.855 79.58C93.855 77.23 93.48 75.02 92.725 72.935C91.9422 70.8063 90.8469 68.8061 89.475 67H93.145C96.1692 70.486 97.8095 74.9603 97.755 79.575C97.755 81.945 97.39 84.16 96.665 86.22C95.935 88.275 94.765 90.2 93.145 92H89.475ZM50.85 92C49.3022 90.3413 48.105 88.3873 47.33 86.255C46.5869 84.1072 46.2182 81.8476 46.24 79.575C46.24 74.81 47.775 70.62 50.85 67H54.48C53.0989 68.7791 52.0179 70.7721 51.28 72.9C50.5435 75.0491 50.1602 77.3033 50.145 79.575C50.1186 84.0919 51.6495 88.4799 54.48 92H50.85Z"></path><path d="M109.5 37H34.5L32 39.5V104.5L34.5 107H109.5L112 104.5V39.5L109.5 37ZM107 102H37V57H107V102ZM107 52H37V42H107V52Z"></path></svg>