<svg width="144" height="144" xmlns="http://www.w3.org/2000/svg" fill="white"><path fill-rule="evenodd" clip-rule="evenodd" d="M70.35 105.6H73.9L82.5 97H94.5L97 94.5V82.4L105.7 73.8V70.25L97.15 61.65V49.45L94.65 47H82.5L73.9 38.45H70.35L62 47H49.65L47 49.5V61.65L38.55 70.25V73.8L47 82.4V94.5L49.65 97H62L70.35 105.6ZM62.8 92H52V81.35L51.4 79.6L43.85 72L51.25 64.45L52 62.7V52H62.8L64.6 51.3L72 43.75L79.7 51.3L81.45 52H92V62.7L92.85 64.45L100.45 72L92.7 79.6L92 81.35V92H81.45L79.55 92.75L72 100.3L64.6 92.7L62.8 92ZM65.65 84.4H69.2L88.05 65.55L84.5 62L67.45 79.1L60.55 72.2L57 75.75L65.65 84.4Z"></path></svg>