<svg width="144" height="144" xmlns="http://www.w3.org/2000/svg" fill="white"><path fill-rule="evenodd" clip-rule="evenodd" d="M39.5 42H104.5L107 44.5V72.015C105.4517 70.8533 103.7738 69.8751 102 69.1V47H42V92H67C67 97.4093 68.7544 102.6726 72 107H52V102H67V97H39.5L37 94.5V44.5L39.5 42Z"></path><path fill-rule="evenodd" clip-rule="evenodd" d="M80.89 75.37C93.6469 66.7504 110.951 75.1729 112.0374 90.5305C112.5468 97.7328 109.1347 104.6506 103.11 108.63C90.2634 117.1153 73.0486 108.5118 72.1234 93.1436C71.6985 86.086 75.0315 79.3285 80.89 75.37ZM91.54 100.32L103.475 84.41L99.475 81.41L89.09 95.255L82.585 90.05L79.46 93.95L87.98 100.77L91.545 100.32Z"></path></svg>