<svg width="144" height="144" xmlns="http://www.w3.org/2000/svg" fill="white"><path fill-rule="evenodd" clip-rule="evenodd" d="M39.5 42H104.5L107 44.5V72.015C105.4517 70.8533 103.7738 69.8751 102 69.1V47H42V92H67C67 97.4093 68.7544 102.6726 72 107H52V102H67V97H39.5L37 94.5V44.5L39.5 42Z"></path><path d="M92 72C76.604 72 66.9815 88.6667 74.6795 102C78.2521 108.188 84.8547 112 92 112C107.396 112 117.0185 95.3333 109.3205 82C105.7479 75.812 99.1453 72 92 72ZM92 107C80.4511 107 73.233 94.4979 79.0075 84.4963C81.6874 79.8545 86.6401 76.995 92 76.995C103.5489 76.995 110.767 89.4971 104.9925 99.4988C102.3126 104.1405 97.3599 107 92 107Z"></path></svg>