<svg width="144" height="144" xmlns="http://www.w3.org/2000/svg" fill="white"><path fill-rule="evenodd" clip-rule="evenodd" d="M39.5 42H104.5L107 44.5V72.015C105.4517 70.8533 103.7738 69.8751 102 69.1V47H42V92H67C67 97.4093 68.7544 102.6726 72 107H52V102H67V97H39.5L37 94.5V44.5L39.5 42Z"></path><path d="M92 72C93.835 72 95.605 72.235 97.315 72.7C99.015 73.17 100.605 73.85 102.08 74.735C103.55 75.62 104.895 76.66 106.12 77.86C107.345 79.06 108.395 80.405 109.27 81.9C111.9786 86.5592 112.7079 92.1092 111.295 97.31C110.83 99.02 110.15 100.61 109.265 102.08C108.3844 103.5439 107.3356 104.8998 106.14 106.12C104.94 107.345 103.595 108.395 102.1 109.27C97.441 111.9791 91.8907 112.7085 86.69 111.295C85.0144 110.8404 83.4093 110.1573 81.92 109.265C80.4561 108.3844 79.1002 107.3356 77.88 106.14C76.6528 104.9414 75.5932 103.5824 74.73 102.1C72.0198 97.4414 71.2904 91.8907 72.705 86.69C73.17 84.98 73.85 83.39 74.735 81.92C75.62 80.45 76.66 79.105 77.86 77.88C79.06 76.655 80.405 75.605 81.9 74.73C84.9674 72.9462 88.4516 72.0044 92 72ZM102 91.94L87 82V102L102 91.94Z"></path></svg>