<svg width="144" height="144" xmlns="http://www.w3.org/2000/svg" fill="white"><path d="M53.9 57H58.9V52H63.9V47H58.9V42H53.9V47H48.9V52H53.9V57ZM93.9 77H88.9V82H83.9V87H88.9V92H93.9V87H98.9V82H93.9V77ZM102 42V37H97V42H92V47H97V52H102V47H107V42H102ZM87.265 54.21C84.3484 51.2576 79.5816 51.2576 76.665 54.21L39.215 91.66C36.2626 94.5766 36.2626 99.3434 39.215 102.26C42.165 105.21 46.915 105.21 49.815 102.26L87.265 64.81C90.165 61.91 90.165 57.16 87.265 54.21ZM46.265 98.71C45.265 99.71 43.715 99.71 42.715 98.71C41.715 97.71 41.715 96.16 42.715 95.16L75.015 62.86L78.565 66.41L46.265 98.71ZM83.715 61.26L82.115 62.86L78.565 59.31L80.165 57.71C81.165 56.71 82.715 56.71 83.715 57.71C84.665 58.71 84.665 60.31 83.715 61.26Z"></path></svg>