<svg width="144" height="144" xmlns="http://www.w3.org/2000/svg" fill="white"><path d="M69.5 77H79.5V72H72V59.5H67V74.5L69.5 77Z"></path><path fill-rule="evenodd" clip-rule="evenodd" d="M59.5 50.345C51.7621 54.8101 46.9964 63.0662 47 72C46.9964 80.9338 51.7621 89.1899 59.5 93.655V104.5L62 107H82L84.5 104.5V93.655C92.2379 89.1899 97.0036 80.9338 97 72C97.0036 63.0662 92.2379 54.8101 84.5 50.345V39.5L82 37H62L59.5 39.5V50.345ZM92 72C92 87.396 75.3333 97.0185 62 89.3205C55.812 85.7479 52 79.1453 52 72C52 56.604 68.6667 46.9815 82 54.6795C88.188 58.2521 92 64.8547 92 72Z"></path></svg>