<svg width="144" height="144" xmlns="http://www.w3.org/2000/svg" fill="white"><path fill-rule="evenodd" clip-rule="evenodd" d="M32 87H37V97H107V87H112V102H107H37H32V87Z"></path><path d="M66.2024 87H61.7982V82.703H61.6907C59.775 85.9975 56.9552 87.6445 53.2313 87.6445C50.492 87.6445 48.3436 86.9195 46.7859 85.469C45.2462 84.019 44.4763 82.0945 44.4763 79.6953C44.4763 74.557 47.502 71.5671 53.5535 70.7256L61.7982 69.5708C61.7982 64.898 59.9093 62.5615 56.1316 62.5615C52.8195 62.5615 49.8296 63.6895 47.1619 65.9453V61.4336C49.8654 59.7149 52.9806 58.8555 56.5076 58.8555C62.9708 58.8555 66.2024 62.2751 66.2024 69.1143V87ZM61.7982 73.0889L55.1649 74.0019C53.1238 74.2884 51.5841 74.7987 50.5457 75.5327C49.5073 76.2489 48.9881 77.529 48.9881 79.3731C48.9881 80.7158 49.4625 81.8169 50.4114 82.6765C51.3782 83.5175 52.6583 83.9385 54.2518 83.9385C56.436 83.9385 58.2353 83.1775 59.6497 81.6558C61.082 80.1161 61.7982 78.1735 61.7982 75.8281V73.0889Z"></path><path d="M78.7375 83.0255H78.6301V87H74.2258V46.2871H78.6301V64.334H78.7375C80.9038 60.6817 84.073 58.8555 88.2445 58.8555C91.7715 58.8555 94.5285 60.0908 96.516 62.5615C98.521 65.0143 99.5235 68.3086 99.5235 72.4444C99.5235 77.0455 98.4045 80.7337 96.1665 83.509C93.9285 86.266 90.867 87.6445 86.982 87.6445C83.3475 87.6445 80.5994 86.105 78.7375 83.0255ZM78.6301 71.9341V75.7744C78.6301 78.0482 79.3641 79.9818 80.8322 81.5752C82.318 83.1505 84.198 83.9385 86.472 83.9385C89.1395 83.9385 91.2255 82.918 92.729 80.8769C94.251 78.836 95.012 75.9982 95.012 72.3638C95.012 69.3023 94.3045 66.9032 92.8905 65.1665C91.476 63.4299 89.56 62.5615 87.143 62.5615C84.583 62.5615 82.524 63.4567 80.9665 65.2471C79.4089 67.0196 78.6301 69.2486 78.6301 71.9341Z"></path></svg>