<svg width="144" height="144" xmlns="http://www.w3.org/2000/svg" fill="white"><path fill-rule="evenodd" clip-rule="evenodd" d="M51.34 49.245C50.6956 48.5142 49.8843 47.9499 48.975 47.6C47.605 47.045 45.86 46.85 43.7 47.22C42.4832 47.4403 41.2933 47.7889 40.15 48.26C39.74 48.435 39.35 48.645 38.975 48.885L38.76 49.035V54.315L39.6 53.62C40.35 53 41.23 52.495 42.235 52.105C43.215 51.735 44.235 51.54 45.255 51.54C46.195 51.54 46.905 51.795 47.41 52.325C47.845 52.8 48.095 53.565 48.145 54.605L43.335 55.325C42.24 55.475 41.285 55.755 40.485 56.155C39.7224 56.5319 39.0451 57.0611 38.495 57.71C37.98 58.335 37.59 59.06 37.35 59.84C36.865 61.49 36.885 63.24 37.405 64.88C37.9218 66.4127 39.0894 67.6389 40.595 68.23C41.37 68.545 42.235 68.695 43.235 68.695C45.1136 68.7324 46.9093 67.9227 48.125 66.49V68.215H53.16V55.25C53.16 53.975 53.01 52.83 52.715 51.845C52.4428 50.892 51.9744 50.0064 51.34 49.245ZM48.16 58.725V59.905C48.16 60.5 48.07 61.06 47.885 61.61C47.5875 62.5808 46.9067 63.388 46 63.845C45.1952 64.2151 44.2793 64.2634 43.44 63.98C43.1509 63.8776 42.8856 63.7177 42.66 63.51C42.4546 63.3153 42.2942 63.0781 42.19 62.815C42.0697 62.5199 42.0102 62.2036 42.015 61.885C42.015 61.5 42.065 61.15 42.135 60.825C42.2047 60.5614 42.3387 60.3192 42.525 60.12C42.7489 59.8801 43.0241 59.6938 43.33 59.575C43.8217 59.3922 44.3338 59.2697 44.855 59.21L48.16 58.725ZM73.415 53.39C73.1817 52.2398 72.77 51.1331 72.195 50.11C71.6599 49.1835 70.9128 48.397 70.015 47.815C69.0517 47.221 67.9363 46.9204 66.805 46.95C65.5641 46.9348 64.3523 47.3264 63.355 48.065C62.8544 48.4438 62.41 48.8916 62.035 49.395V37H57.45V68.12H62.04V66.715C62.655 67.475 63.475 68.045 64.4 68.355C64.89 68.515 65.44 68.59 66.05 68.59C67.325 68.59 68.465 68.29 69.435 67.705C70.395 67.13 71.21 66.315 71.865 65.275C72.5539 64.1703 73.0493 62.9563 73.33 61.685C73.6601 60.2317 73.8211 58.7452 73.81 57.255C73.8155 55.9566 73.6848 54.6612 73.42 53.39ZM69.115 57.18C69.115 58.34 69.015 59.375 68.815 60.245C68.635 61.105 68.365 61.82 68.02 62.365C67.743 62.8558 67.3411 63.2647 66.855 63.55C65.9886 64.0597 64.9206 64.0861 64.03 63.62C63.6209 63.3904 63.2634 63.0789 62.98 62.705C62.6638 62.2776 62.4236 61.799 62.27 61.29C62.089 60.7106 61.9979 60.107 62 59.5V56.915C62 56.095 62.1 55.345 62.3 54.68C62.48 54.02 62.735 53.47 63.08 53C63.3736 52.5691 63.764 52.2129 64.22 51.96C64.6644 51.718 65.1641 51.5957 65.67 51.605C66.6906 51.5774 67.6436 52.1135 68.15 53C68.465 53.495 68.69 54.07 68.865 54.77C69.02 55.485 69.115 56.3 69.115 57.18ZM44.035 81.5C44.4678 80.9908 45.0072 80.5829 45.615 80.305C46.705 79.805 48.35 79.78 49.445 80.215C49.965 80.425 50.465 80.715 51.045 81.135L52.695 82.435V76.725L52.21 76.415C50.8117 75.6935 49.2584 75.3245 47.685 75.34C46.145 75.34 44.72 75.625 43.455 76.18C42.205 76.73 41.12 77.53 40.22 78.555C39.32 79.605 38.63 80.82 38.205 82.14C37.755 83.5 37.52 84.99 37.52 86.615C37.52 88.06 37.735 89.42 38.17 90.655C38.6 91.9 39.225 93.01 40.035 93.915C40.84 94.84 41.84 95.58 43.02 96.12C44.18 96.64 45.485 96.895 46.91 96.895C48.075 96.895 49.08 96.755 49.975 96.475C50.8 96.225 51.585 95.86 52.305 95.39L52.695 95.085V90.64L51.695 91.115C51.573 91.171 51.4457 91.2145 51.315 91.245C51.065 91.33 50.82 91.42 50.675 91.49C50.495 91.605 49.54 91.94 49.54 91.94C49.24 92.06 48.84 92.155 48.45 92.235C47.4465 92.4574 46.3985 92.3577 45.455 91.95C44.8646 91.6988 44.3408 91.3136 43.925 90.825C43.4622 90.2724 43.1137 89.6334 42.9 88.945C42.6369 88.0884 42.5087 87.196 42.52 86.3C42.52 85.25 42.66 84.305 42.935 83.5C43.205 82.71 43.585 82.03 44.035 81.5ZM102 62H82V57H104.5L107 59.5V89.5L104.5 92H71.395L81.745 102.355L78.215 105.89L63.765 91.445V87.91L78.215 73.46L81.75 77L71.75 87H102V62Z"></path></svg>