<svg width="144" height="144" xmlns="http://www.w3.org/2000/svg" fill="white"><path d="M72.345 32C73.655 32 74.945 32.085 76.145 32.285C77.3268 32.4399 78.4929 32.6975 79.63 33.055C80.77 33.4 81.885 33.83 83 34.37C84.085 34.885 85.2 35.515 86.315 36.2C88.2 37.4 90.055 38.37 91.945 39.145C95.6657 40.6342 99.6001 41.5203 103.6 41.77C105.63 41.915 107.715 42 109.885 42V62C109.885 65.8 109.4 69.4 108.43 72.83C107.4982 76.2111 106.1742 79.4715 104.485 82.545C102.8029 85.6142 100.8126 88.5041 98.545 91.17C96.2426 93.8965 93.7497 96.4563 91.085 98.83C88.3851 101.2107 85.5414 103.4232 82.57 105.455C79.6 107.515 76.6 109.43 73.6 111.17L72.4 111.885L71.2 111.17C68.116 109.3845 65.1037 107.478 62.17 105.455C59.182 103.4461 56.3368 101.2325 53.655 98.83C50.9919 96.4562 48.5007 93.8965 46.2 91.17C43.9385 88.4928 41.9393 85.6045 40.23 82.545C38.5697 79.4579 37.247 76.2007 36.285 72.83C35.3088 69.3037 34.8276 65.6588 34.855 62V42C37.03 42 39.115 41.915 41.145 41.77C43.1433 41.6312 45.1287 41.3454 47.085 40.915C49 40.485 50.915 39.915 52.8 39.145C54.756 38.3556 56.6314 37.3794 58.4 36.23C60.6 34.8 62.83 33.745 65.03 33.05C67.3993 32.3237 69.867 31.9694 72.345 32ZM104.855 46.915C101.0701 46.7314 97.3205 46.0986 93.685 45.03C90.0687 43.9513 86.6242 42.3637 83.455 40.315C81.8111 39.236 80.0259 38.3896 78.15 37.8C76.2762 37.2337 74.3275 36.9538 72.37 36.97C70.398 36.9572 68.435 37.237 66.545 37.8C64.6664 38.3705 62.8834 39.2181 61.255 40.315C58.0803 42.3749 54.6269 43.9694 51 45.05C47.455 46.08 43.745 46.71 39.855 46.94V62.025C39.855 65.34 40.285 68.51 41.145 71.565C42.0211 74.5935 43.2284 77.5161 44.745 80.28C46.2797 83.0727 48.0887 85.7057 50.145 88.14C52.23 90.595 54.455 92.88 56.855 95.05C59.255 97.225 61.77 99.225 64.4 101.08C67.055 102.94 69.715 104.625 72.37 106.165C75.0886 104.5823 77.7393 102.8858 80.315 101.08C82.9624 99.2308 85.4907 97.2169 87.885 95.05C90.285 92.88 92.515 90.595 94.6 88.14C96.6565 85.7058 98.4655 83.0728 100 80.28C101.5099 77.5196 102.6992 74.5956 103.545 71.565C104.4311 68.4631 104.8722 65.251 104.855 62.025V46.915Z"></path><path fill-rule="evenodd" clip-rule="evenodd" d="M90.985 55.545L88.785 53.655L86.755 53.83L64.955 79.57L57.53 68.97L55.53 68.63L53.215 70.285L52.87 72.285L62.415 85.915L63.5 86.515L65.785 86.655L66.955 86.145L91.13 57.57L90.985 55.545Z"></path></svg>