<svg width="144" height="144" xmlns="http://www.w3.org/2000/svg" fill="white"><path d="M72.335 32C73.65 32 74.935 32.085 76.135 32.285C77.3168 32.4399 78.4829 32.6975 79.62 33.055C80.765 33.4 81.88 33.83 82.995 34.37C84.08 34.885 85.195 35.515 86.305 36.2C88.0912 37.3457 89.9752 38.3312 91.935 39.145C95.6572 40.6349 99.5934 41.5211 103.595 41.77C105.62 41.915 107.705 42 109.88 42V62C109.88 65.8 109.395 69.4 108.42 72.83C107.4898 76.2108 106.1675 79.4713 104.48 82.545C102.7965 85.6145 100.8045 88.5044 98.535 91.17C96.2343 93.8965 93.7431 96.4562 91.08 98.83C88.3801 101.2107 85.5364 103.4232 82.565 105.455C79.595 107.515 76.595 109.43 73.595 111.17L72.395 111.885L71.195 111.17C68.111 109.3845 65.0986 107.4781 62.165 105.455C59.177 103.4461 56.3318 101.2325 53.65 98.83C50.9869 96.4562 48.4957 93.8965 46.195 91.17C43.9318 88.493 41.9309 85.6047 40.22 82.545C38.5614 79.4577 37.2404 76.2005 36.28 72.83C35.3038 69.3037 34.8226 65.6588 34.85 62V42C37.02 42 39.105 41.915 41.135 41.77C43.135 41.6314 45.122 41.3457 47.08 40.915C48.995 40.485 50.905 39.915 52.795 39.145C54.751 38.3556 56.6264 37.3794 58.395 36.23C60.595 34.8 62.82 33.745 65.02 33.05C67.3893 32.3237 69.857 31.9694 72.335 32ZM104.85 46.915C101.0651 46.7313 97.3155 46.0985 93.68 45.03C90.0637 43.9513 86.6192 42.3637 83.45 40.315C81.803 39.2352 80.0143 38.3888 78.135 37.8C76.2644 37.2347 74.3191 36.9549 72.365 36.97C70.3913 36.9568 68.4266 37.2365 66.535 37.8C64.6581 38.3709 62.8768 39.2186 61.25 40.315C58.0755 42.3766 54.6221 43.9728 50.995 45.055C47.45 46.085 43.735 46.715 39.85 46.945V62.03C39.85 65.345 40.28 68.515 41.135 71.57C42.0111 74.5985 43.2184 77.5211 44.735 80.285C46.2697 83.0777 48.0787 85.7107 50.135 88.145C52.22 90.6 54.45 92.885 56.85 95.055C59.25 97.23 61.765 99.23 64.395 101.085C67.05 102.945 69.705 104.63 72.365 106.17C75.0819 104.5872 77.7309 102.8907 80.305 101.085C82.9541 99.2361 85.4841 97.2221 87.88 95.055C90.28 92.885 92.505 90.6 94.595 88.145C96.6512 85.7106 98.4601 83.0776 99.995 80.285C101.5027 77.5241 102.6904 74.6002 103.535 71.57C104.4228 68.4683 104.8656 65.2562 104.85 62.03V46.915Z"></path><path fill-rule="evenodd" clip-rule="evenodd" d="M79.165 55.6C80.02 56.455 80.735 57.485 81.22 58.63C81.735 59.77 81.995 61.03 81.965 62.4C81.996 63.4944 81.802 64.5836 81.395 65.6C81.011 66.4581 80.5205 67.2644 79.935 68C79.4062 68.6923 78.8136 69.3334 78.165 69.915C77.5763 70.4191 77.0139 70.9531 76.48 71.515C76.0066 71.9891 75.6026 72.5278 75.28 73.115C74.9881 73.6478 74.8399 74.2475 74.85 74.855V76.655L74.195 77.345H70.62L69.905 76.63V74.85C69.905 73.65 70.105 72.6 70.505 71.68C70.88 70.795 71.335 69.965 71.905 69.25C72.4648 68.567 73.0766 67.9285 73.735 67.34C74.335 66.795 74.88 66.28 75.395 65.74C75.88 65.225 76.305 64.68 76.62 64.11C76.9155 63.5677 77.0637 62.9574 77.05 62.34C77.043 61.7219 76.9174 61.1108 76.68 60.54C76.442 59.9856 76.1029 59.4803 75.68 59.05C73.85 57.2455 70.91 57.2455 69.08 59.05C68.6479 59.4727 68.3074 59.9799 68.08 60.54C67.8218 61.1044 67.6937 61.7195 67.705 62.34L67 63.05H63.425L62.77 62.365C62.77 61.05 63 59.795 63.51 58.625C64.025 57.48 64.71 56.45 65.57 55.595C66.455 54.71 67.485 53.995 68.625 53.51C71.0214 52.4669 73.7436 52.4669 76.14 53.51C77.285 54.025 78.31 54.71 79.17 55.595ZM69.85 80.23L70.565 79.515H74.135L74.85 80.23V83.8L74.135 84.515H70.565L69.85 83.8V80.23Z"></path></svg>