<svg width="144" height="144" xmlns="http://www.w3.org/2000/svg" fill="white"><path d="M72.335 32C73.65 32 74.935 32.085 76.135 32.285C77.3168 32.4399 78.4829 32.6975 79.62 33.055C80.765 33.4 81.88 33.83 82.995 34.37C84.08 34.885 85.195 35.515 86.305 36.2C88.0912 37.3457 89.9752 38.3312 91.935 39.145C95.6572 40.6349 99.5934 41.5211 103.595 41.77C105.62 41.915 107.705 42 109.88 42V62C109.88 65.8 109.395 69.4 108.42 72.83C107.4898 76.2108 106.1675 79.4713 104.48 82.545C102.7965 85.6145 100.8045 88.5044 98.535 91.17C96.2343 93.8965 93.7431 96.4562 91.08 98.83C88.3801 101.2107 85.5364 103.4232 82.565 105.455C79.595 107.515 76.595 109.43 73.595 111.17L72.395 111.885L71.195 111.17C68.111 109.3845 65.0986 107.4781 62.165 105.455C59.177 103.4461 56.3318 101.2325 53.65 98.83C50.9869 96.4562 48.4957 93.8965 46.195 91.17C43.9318 88.493 41.9309 85.6047 40.22 82.545C38.5614 79.4577 37.2404 76.2005 36.28 72.83C35.3038 69.3037 34.8226 65.6588 34.85 62V42C37.02 42 39.105 41.915 41.135 41.77C43.135 41.6314 45.122 41.3457 47.08 40.915C48.995 40.485 50.905 39.915 52.795 39.145C54.751 38.3556 56.6264 37.3794 58.395 36.23C60.595 34.8 62.82 33.745 65.02 33.05C67.3893 32.3237 69.857 31.9694 72.335 32ZM104.85 46.915C101.0651 46.7313 97.3155 46.0985 93.68 45.03C90.0637 43.9513 86.6192 42.3637 83.45 40.315C81.803 39.2352 80.0143 38.3888 78.135 37.8C76.2644 37.2347 74.3191 36.9549 72.365 36.97C70.3913 36.9568 68.4266 37.2365 66.535 37.8C64.6581 38.3709 62.8768 39.2186 61.25 40.315C58.0755 42.3766 54.6221 43.9728 50.995 45.055C47.45 46.085 43.735 46.715 39.85 46.945V62.03C39.85 65.345 40.28 68.515 41.135 71.57C42.0111 74.5985 43.2184 77.5211 44.735 80.285C46.2697 83.0777 48.0787 85.7107 50.135 88.145C52.22 90.6 54.45 92.885 56.85 95.055C59.25 97.23 61.765 99.23 64.395 101.085C67.05 102.945 69.705 104.63 72.365 106.17C75.0819 104.5872 77.7309 102.8907 80.305 101.085C82.9541 99.2361 85.4841 97.2221 87.88 95.055C90.28 92.885 92.505 90.6 94.595 88.145C96.6512 85.7106 98.4601 83.0776 99.995 80.285C101.5027 77.5241 102.6904 74.6002 103.535 71.57C104.4228 68.4683 104.8656 65.2562 104.85 62.03V46.915Z"></path><path d="M85.935 59.23L83.935 57.2H82.905L73 67.115L63.08 57.2H62.08L60.05 59.23V60.23L69.965 70.145L60.05 80.05V81.08L62.08 83.08H63.08L72.995 73.165L82.905 83.08H83.935L85.935 81.08V80.05L76.02 70.15L85.935 60.235V59.235Z"></path></svg>