<svg width="144" height="144" xmlns="http://www.w3.org/2000/svg" fill="white"><path fill-rule="evenodd" clip-rule="evenodd" d="M92.135 62.745C92.6119 69.8328 90.3374 76.8316 85.785 82.285L107.085 103.585L103.585 107.135L82.285 85.785C65.975 99.401 41.0414 90.2549 37.4046 69.322C33.7678 48.3891 54.1553 31.3691 74.1022 38.6859C84.3372 42.4403 91.4032 51.8677 92.135 62.745ZM64.885 87.185C70.8493 87.1743 76.5664 84.8011 80.785 80.585L80.585 80.685C84.8991 76.4749 87.348 70.7128 87.385 64.685C87.385 47.3645 68.635 36.5392 53.635 45.1994C38.635 53.8597 38.635 75.5103 53.635 84.1706C57.0554 86.1454 60.9354 87.185 64.885 87.185ZM52.185 62.285H77.185V67.285H52.185V62.285Z"></path></svg>